{"glyphs":{"0":{"ha":1310,"x_min":69,"x_max":1240,"o":"m 655 -44 q 356 37 488 -44 q 147 283 224 117 q 69 694 69 448 q 147 1106 69 940 q 356 1352 224 1272 q 655 1433 488 1433 q 953 1352 821 1433 q 1163 1106 1085 1272 q 1240 694 1240 940 q 1163 283 1240 448 q 953 37 1085 117 q 655 -44 821 -44 m 655 85 q 840 152 758 85 q 970 355 923 218 q 1018 694 1018 492 q 970 1036 1018 899 q 840 1238 923 1173 q 655 1304 758 1304 q 470 1238 552 1304 q 341 1036 389 1173 q 294 694 294 899 q 341 355 294 492 q 470 152 389 218 q 655 85 552 85 z "},"1":{"ha":692,"x_min":139,"x_max":544,"o":"m 139 99 l 167 99 q 204 115 188 99 q 220 153 220 131 l 220 1091 q 202 1135 220 1117 q 159 1153 185 1153 l 145 1153 l 145 1236 q 233 1267 188 1238 q 309 1342 278 1296 q 341 1440 339 1389 l 456 1440 l 456 153 q 472 115 456 131 q 510 99 488 99 l 544 99 l 544 0 l 139 0 l 139 99 z "},"2":{"ha":1103,"x_min":109,"x_max":992,"o":"m 121 0 q 109 137 109 69 q 192 464 109 313 q 440 718 276 615 q 643 866 575 802 q 730 978 710 931 q 750 1081 750 1026 q 722 1193 750 1139 q 640 1282 694 1248 q 510 1315 585 1315 q 355 1267 421 1315 q 256 1143 290 1218 q 222 990 222 1067 l 119 990 l 119 1431 l 210 1431 q 223 1402 210 1413 q 258 1391 236 1391 q 286 1395 266 1391 q 396 1425 349 1415 q 538 1435 442 1435 q 844 1351 706 1435 q 982 1058 982 1268 q 912 841 982 937 q 761 691 841 746 q 562 569 681 637 q 389 462 448 504 q 290 361 329 421 q 250 222 250 302 l 728 222 q 814 235 784 222 q 867 284 845 248 q 911 391 889 319 l 992 365 l 895 0 l 121 0 z "},"3":{"ha":1175,"x_min":69,"x_max":1065,"o":"m 540 -50 q 261 4 381 -50 q 69 135 141 58 l 137 238 q 307 127 206 171 q 526 83 407 83 q 670 117 599 83 q 787 224 740 151 q 833 413 833 298 q 790 592 833 524 q 688 689 746 661 q 579 718 629 718 l 556 718 q 501 695 524 718 q 478 647 478 673 l 478 599 l 379 599 l 379 958 l 480 958 l 480 935 q 504 871 480 893 q 563 849 528 849 l 575 849 q 736 929 687 849 q 778 1105 786 1008 q 716 1250 772 1183 q 556 1317 661 1317 q 427 1278 480 1317 q 346 1180 373 1238 q 319 1065 319 1121 l 196 1065 l 196 1427 l 298 1427 q 313 1390 300 1401 q 343 1379 325 1379 q 371 1385 359 1379 q 422 1405 383 1389 q 504 1429 460 1421 q 601 1437 548 1437 q 786 1399 692 1437 q 941 1283 879 1361 q 1004 1089 1004 1204 q 975 942 1004 1008 q 907 836 946 877 q 835 790 867 796 q 930 725 875 778 q 1025 589 984 673 q 1065 405 1065 506 q 990 155 1065 258 q 795 1 915 52 q 540 -50 675 -50 z "},"4":{"ha":1385,"x_min":69,"x_max":1290,"o":"m 742 95 l 778 95 q 815 111 800 95 q 831 149 831 127 l 831 290 l 69 290 l 69 296 l 1054 1470 l 1060 1470 l 1060 419 l 1127 419 q 1177 435 1163 419 q 1190 492 1190 450 l 1190 522 l 1290 522 l 1290 188 l 1190 188 l 1190 228 q 1177 278 1190 266 q 1123 290 1163 290 l 1060 290 l 1060 149 q 1075 111 1060 127 q 1113 95 1091 95 l 1157 95 l 1157 0 l 742 0 l 742 95 m 831 419 l 831 1020 l 325 419 l 831 419 z "},"5":{"ha":1204,"x_min":95,"x_max":1095,"o":"m 581 -58 q 316 -4 446 -58 q 95 141 187 50 l 155 240 q 325 123 238 165 q 524 81 413 81 q 730 144 645 81 q 845 288 815 206 q 877 464 877 377 q 842 635 877 558 q 754 754 808 712 q 579 806 685 806 q 408 765 488 806 q 290 651 327 724 l 159 706 l 323 1389 l 1014 1389 l 1014 1044 l 915 1044 l 915 1115 q 899 1155 915 1137 q 855 1173 883 1173 l 409 1173 l 331 855 q 449 916 381 895 q 593 937 518 937 q 847 879 728 937 q 1031 704 966 821 q 1095 452 1095 587 q 1052 246 1095 339 q 857 16 980 89 q 581 -58 734 -58 z "},"6":{"ha":1147,"x_min":69,"x_max":1048,"o":"m 1048 389 q 989 161 1048 260 q 832 6 931 62 q 619 -50 734 -50 q 333 24 442 -50 q 143 238 216 97 q 69 567 69 379 q 183 1046 69 853 q 450 1331 296 1238 q 644 1415 542 1387 q 845 1442 746 1442 q 1014 1419 938 1442 l 982 1313 q 911 1319 950 1319 q 689 1272 804 1319 q 481 1129 575 1224 q 341 895 387 1034 q 315 750 315 819 q 317 714 315 726 q 453 799 375 770 q 621 827 532 827 q 837 768 740 825 q 991 611 935 710 q 1048 389 1048 512 m 823 383 q 754 598 823 516 q 575 681 685 681 q 397 606 468 681 q 325 395 325 532 q 398 178 325 260 q 577 95 470 95 q 756 167 688 95 q 823 383 823 238 z "},"7":{"ha":1095,"x_min":89,"x_max":1036,"o":"m 304 0 q 300 85 300 56 q 319 282 300 173 q 479 718 353 462 q 746 1155 605 974 l 234 1155 q 201 1142 214 1155 q 188 1109 188 1129 l 188 1024 l 89 1024 l 89 1389 l 1036 1389 l 1036 1333 q 903 1151 972 1258 q 764 912 833 1044 q 641 647 694 780 q 564 412 593 526 q 536 216 536 298 q 556 128 536 157 q 635 99 575 99 l 635 0 l 304 0 z "},"8":{"ha":1143,"x_min":91,"x_max":1052,"o":"m 813 788 q 986 624 921 730 q 1052 387 1052 518 q 987 170 1052 270 q 813 10 923 69 q 575 -50 704 -50 q 329 9 440 -50 q 155 169 218 67 q 91 389 91 270 q 161 609 91 506 q 341 776 230 712 q 221 910 264 829 q 179 1081 179 990 q 231 1258 179 1177 q 375 1387 284 1339 q 573 1435 466 1435 q 770 1387 679 1435 q 915 1256 861 1339 q 968 1071 968 1173 q 928 911 968 984 q 813 788 887 837 m 373 1171 q 367 1131 367 1151 q 465 968 367 1036 q 663 867 563 901 q 776 938 732 895 q 831 1054 819 982 q 833 1083 833 1063 q 798 1191 833 1139 q 702 1276 762 1244 q 575 1308 643 1308 q 443 1270 496 1308 q 373 1171 391 1232 m 861 296 q 863 331 863 308 q 745 548 863 466 q 464 687 627 629 q 314 577 381 647 q 242 421 248 508 q 279 248 236 323 q 400 131 321 173 q 571 89 478 89 q 715 114 653 85 q 815 191 778 143 q 861 296 853 240 z "},"9":{"ha":1155,"x_min":99,"x_max":1085,"o":"m 821 1371 q 1016 1140 946 1290 q 1085 808 1085 990 q 992 401 1085 595 q 805 146 921 248 q 557 -5 688 44 q 296 -54 425 -54 q 125 -28 208 -54 l 153 75 q 218 71 196 71 q 468 122 347 71 q 680 268 589 173 q 810 488 770 363 q 831 675 837 583 q 544 567 718 567 q 321 625 423 567 q 160 785 220 683 q 99 1012 99 887 q 163 1234 99 1135 q 329 1389 226 1333 q 548 1444 433 1444 q 821 1371 714 1444 m 575 716 q 755 789 687 716 q 823 996 823 861 q 752 1221 823 1139 q 573 1304 681 1304 q 447 1265 504 1304 q 358 1162 391 1226 q 325 1020 325 1097 q 397 798 325 879 q 575 716 468 716 z "}," ":{"ha":794,"x_min":0,"x_max":0,"o":""},"A":{"ha":1427,"x_min":69,"x_max":1357,"o":"m 1357 99 l 1357 0 l 927 0 l 927 99 l 964 99 q 993 115 982 99 q 996 149 1004 131 l 915 347 l 393 347 l 312 149 q 310 135 310 145 q 319 109 310 119 q 345 99 329 99 l 397 99 l 397 0 l 69 0 l 69 99 l 117 99 q 150 110 135 99 q 173 137 165 121 l 710 1433 l 716 1433 l 1256 137 q 1279 110 1264 121 q 1312 99 1294 99 l 1357 99 m 865 470 l 653 986 l 442 470 l 865 470 z "},"Á":{"ha":1427,"x_min":69,"x_max":1357,"o":"m 1357 99 l 1357 0 l 927 0 l 927 99 l 964 99 q 993 115 982 99 q 996 149 1004 131 l 915 347 l 393 347 l 312 149 q 310 135 310 145 q 319 109 310 119 q 345 99 329 99 l 397 99 l 397 0 l 69 0 l 69 99 l 117 99 q 150 110 135 99 q 173 137 165 121 l 710 1433 l 716 1433 l 1256 137 q 1279 110 1264 121 q 1312 99 1294 99 l 1357 99 m 865 470 l 653 986 l 442 470 l 865 470 m 546 1571 l 802 1776 l 877 1673 l 591 1506 l 546 1571 z "},"Ă":{"ha":1427,"x_min":69,"x_max":1357,"o":"m 1357 99 l 1357 0 l 927 0 l 927 99 l 964 99 q 993 115 982 99 q 996 149 1004 131 l 915 347 l 393 347 l 312 149 q 310 135 310 145 q 319 109 310 119 q 345 99 329 99 l 397 99 l 397 0 l 69 0 l 69 99 l 117 99 q 150 110 135 99 q 173 137 165 121 l 710 1433 l 716 1433 l 1256 137 q 1279 110 1264 121 q 1312 99 1294 99 l 1357 99 m 865 470 l 653 986 l 442 470 l 865 470 m 710 1514 q 564 1559 635 1514 q 476 1665 494 1603 l 530 1714 q 710 1637 595 1637 q 891 1714 825 1637 l 946 1665 q 853 1558 923 1601 q 710 1514 784 1514 z "},"Ắ":{"ha":1427,"x_min":69,"x_max":1357,"o":"m 1357 99 l 1357 0 l 927 0 l 927 99 l 964 99 q 993 115 982 99 q 996 149 1004 131 l 915 347 l 393 347 l 312 149 q 310 135 310 145 q 319 109 310 119 q 345 99 329 99 l 397 99 l 397 0 l 69 0 l 69 99 l 117 99 q 150 110 135 99 q 173 137 165 121 l 710 1433 l 716 1433 l 1256 137 q 1279 110 1264 121 q 1312 99 1294 99 l 1357 99 m 865 470 l 653 986 l 442 470 l 865 470 z "},"Ặ":{"ha":1427,"x_min":69,"x_max":1357,"o":"m 1357 99 l 1357 0 l 927 0 l 927 99 l 964 99 q 993 115 982 99 q 996 149 1004 131 l 915 347 l 393 347 l 312 149 q 310 135 310 145 q 319 109 310 119 q 345 99 329 99 l 397 99 l 397 0 l 69 0 l 69 99 l 117 99 q 150 110 135 99 q 173 137 165 121 l 710 1433 l 716 1433 l 1256 137 q 1279 110 1264 121 q 1312 99 1294 99 l 1357 99 m 865 470 l 653 986 l 442 470 l 865 470 m 675 -248 q 617 -223 641 -248 q 593 -165 593 -198 q 617 -108 593 -133 q 675 -83 641 -83 q 731 -108 706 -83 q 756 -165 756 -133 q 732 -223 756 -198 q 675 -248 708 -248 m 710 1514 q 564 1559 635 1514 q 476 1665 494 1603 l 530 1714 q 710 1637 595 1637 q 891 1714 825 1637 l 946 1665 q 853 1558 923 1601 q 710 1514 784 1514 z "},"Ằ":{"ha":1427,"x_min":69,"x_max":1357,"o":"m 1357 99 l 1357 0 l 927 0 l 927 99 l 964 99 q 993 115 982 99 q 996 149 1004 131 l 915 347 l 393 347 l 312 149 q 310 135 310 145 q 319 109 310 119 q 345 99 329 99 l 397 99 l 397 0 l 69 0 l 69 99 l 117 99 q 150 110 135 99 q 173 137 165 121 l 710 1433 l 716 1433 l 1256 137 q 1279 110 1264 121 q 1312 99 1294 99 l 1357 99 m 865 470 l 653 986 l 442 470 l 865 470 z "},"Ẳ":{"ha":1427,"x_min":69,"x_max":1357,"o":"m 1357 99 l 1357 0 l 927 0 l 927 99 l 964 99 q 993 115 982 99 q 996 149 1004 131 l 915 347 l 393 347 l 312 149 q 310 135 310 145 q 319 109 310 119 q 345 99 329 99 l 397 99 l 397 0 l 69 0 l 69 99 l 117 99 q 150 110 135 99 q 173 137 165 121 l 710 1433 l 716 1433 l 1256 137 q 1279 110 1264 121 q 1312 99 1294 99 l 1357 99 m 865 470 l 653 986 l 442 470 l 865 470 z "},"Ẵ":{"ha":1427,"x_min":69,"x_max":1357,"o":"m 1357 99 l 1357 0 l 927 0 l 927 99 l 964 99 q 993 115 982 99 q 996 149 1004 131 l 915 347 l 393 347 l 312 149 q 310 135 310 145 q 319 109 310 119 q 345 99 329 99 l 397 99 l 397 0 l 69 0 l 69 99 l 117 99 q 150 110 135 99 q 173 137 165 121 l 710 1433 l 716 1433 l 1256 137 q 1279 110 1264 121 q 1312 99 1294 99 l 1357 99 m 865 470 l 653 986 l 442 470 l 865 470 z "},"Ǎ":{"ha":1427,"x_min":69,"x_max":1357,"o":"m 1357 99 l 1357 0 l 927 0 l 927 99 l 964 99 q 993 115 982 99 q 996 149 1004 131 l 915 347 l 393 347 l 312 149 q 310 135 310 145 q 319 109 310 119 q 345 99 329 99 l 397 99 l 397 0 l 69 0 l 69 99 l 117 99 q 150 110 135 99 q 173 137 165 121 l 710 1433 l 716 1433 l 1256 137 q 1279 110 1264 121 q 1312 99 1294 99 l 1357 99 m 865 470 l 653 986 l 442 470 l 865 470 m 710 1643 l 933 1714 l 933 1637 l 710 1504 l 490 1637 l 490 1714 l 710 1643 z "},"Â":{"ha":1427,"x_min":69,"x_max":1357,"o":"m 1357 99 l 1357 0 l 927 0 l 927 99 l 964 99 q 993 115 982 99 q 996 149 1004 131 l 915 347 l 393 347 l 312 149 q 310 135 310 145 q 319 109 310 119 q 345 99 329 99 l 397 99 l 397 0 l 69 0 l 69 99 l 117 99 q 150 110 135 99 q 173 137 165 121 l 710 1433 l 716 1433 l 1256 137 q 1279 110 1264 121 q 1312 99 1294 99 l 1357 99 m 865 470 l 653 986 l 442 470 l 865 470 m 490 1565 l 710 1698 l 933 1565 l 933 1488 l 710 1560 l 490 1488 l 490 1565 z "},"Ấ":{"ha":1427,"x_min":69,"x_max":1357,"o":"m 1357 99 l 1357 0 l 927 0 l 927 99 l 964 99 q 993 115 982 99 q 996 149 1004 131 l 915 347 l 393 347 l 312 149 q 310 135 310 145 q 319 109 310 119 q 345 99 329 99 l 397 99 l 397 0 l 69 0 l 69 99 l 117 99 q 150 110 135 99 q 173 137 165 121 l 710 1433 l 716 1433 l 1256 137 q 1279 110 1264 121 q 1312 99 1294 99 l 1357 99 m 865 470 l 653 986 l 442 470 l 865 470 z "},"Ậ":{"ha":1427,"x_min":69,"x_max":1357,"o":"m 1357 99 l 1357 0 l 927 0 l 927 99 l 964 99 q 993 115 982 99 q 996 149 1004 131 l 915 347 l 393 347 l 312 149 q 310 135 310 145 q 319 109 310 119 q 345 99 329 99 l 397 99 l 397 0 l 69 0 l 69 99 l 117 99 q 150 110 135 99 q 173 137 165 121 l 710 1433 l 716 1433 l 1256 137 q 1279 110 1264 121 q 1312 99 1294 99 l 1357 99 m 865 470 l 653 986 l 442 470 l 865 470 m 675 -248 q 617 -223 641 -248 q 593 -165 593 -198 q 617 -108 593 -133 q 675 -83 641 -83 q 731 -108 706 -83 q 756 -165 756 -133 q 732 -223 756 -198 q 675 -248 708 -248 m 490 1565 l 710 1698 l 933 1565 l 933 1488 l 710 1560 l 490 1488 l 490 1565 z "},"Ầ":{"ha":1427,"x_min":69,"x_max":1357,"o":"m 1357 99 l 1357 0 l 927 0 l 927 99 l 964 99 q 993 115 982 99 q 996 149 1004 131 l 915 347 l 393 347 l 312 149 q 310 135 310 145 q 319 109 310 119 q 345 99 329 99 l 397 99 l 397 0 l 69 0 l 69 99 l 117 99 q 150 110 135 99 q 173 137 165 121 l 710 1433 l 716 1433 l 1256 137 q 1279 110 1264 121 q 1312 99 1294 99 l 1357 99 m 865 470 l 653 986 l 442 470 l 865 470 m 706 1812 l 790 1909 l 1030 1687 l 980 1625 l 706 1812 m 490 1565 l 710 1698 l 933 1565 l 933 1488 l 710 1560 l 490 1488 l 490 1565 z "},"Ẩ":{"ha":1427,"x_min":69,"x_max":1357,"o":"m 1357 99 l 1357 0 l 927 0 l 927 99 l 964 99 q 993 115 982 99 q 996 149 1004 131 l 915 347 l 393 347 l 312 149 q 310 135 310 145 q 319 109 310 119 q 345 99 329 99 l 397 99 l 397 0 l 69 0 l 69 99 l 117 99 q 150 110 135 99 q 173 137 165 121 l 710 1433 l 716 1433 l 1256 137 q 1279 110 1264 121 q 1312 99 1294 99 l 1357 99 m 865 470 l 653 986 l 442 470 l 865 470 z "},"Ẫ":{"ha":1427,"x_min":69,"x_max":1357,"o":"m 1357 99 l 1357 0 l 927 0 l 927 99 l 964 99 q 993 115 982 99 q 996 149 1004 131 l 915 347 l 393 347 l 312 149 q 310 135 310 145 q 319 109 310 119 q 345 99 329 99 l 397 99 l 397 0 l 69 0 l 69 99 l 117 99 q 150 110 135 99 q 173 137 165 121 l 710 1433 l 716 1433 l 1256 137 q 1279 110 1264 121 q 1312 99 1294 99 l 1357 99 m 865 470 l 653 986 l 442 470 l 865 470 z "},"Ä":{"ha":1427,"x_min":69,"x_max":1357,"o":"m 1357 99 l 1357 0 l 927 0 l 927 99 l 964 99 q 993 115 982 99 q 996 149 1004 131 l 915 347 l 393 347 l 312 149 q 310 135 310 145 q 319 109 310 119 q 345 99 329 99 l 397 99 l 397 0 l 69 0 l 69 99 l 117 99 q 150 110 135 99 q 173 137 165 121 l 710 1433 l 716 1433 l 1256 137 q 1279 110 1264 121 q 1312 99 1294 99 l 1357 99 m 865 470 l 653 986 l 442 470 l 865 470 m 554 1520 q 496 1545 520 1520 q 472 1603 472 1569 q 496 1661 472 1637 q 554 1685 520 1685 q 610 1661 585 1685 q 635 1603 635 1637 q 611 1545 635 1569 q 554 1520 587 1520 m 871 1520 q 813 1545 837 1520 q 790 1603 790 1569 q 813 1661 790 1637 q 871 1685 837 1685 q 928 1661 903 1685 q 952 1603 952 1637 q 929 1545 952 1569 q 871 1520 905 1520 z "},"Ạ":{"ha":1427,"x_min":69,"x_max":1357,"o":"m 1357 99 l 1357 0 l 927 0 l 927 99 l 964 99 q 993 115 982 99 q 996 149 1004 131 l 915 347 l 393 347 l 312 149 q 310 135 310 145 q 319 109 310 119 q 345 99 329 99 l 397 99 l 397 0 l 69 0 l 69 99 l 117 99 q 150 110 135 99 q 173 137 165 121 l 710 1433 l 716 1433 l 1256 137 q 1279 110 1264 121 q 1312 99 1294 99 l 1357 99 m 865 470 l 653 986 l 442 470 l 865 470 m 675 -248 q 617 -223 641 -248 q 593 -165 593 -198 q 617 -108 593 -133 q 675 -83 641 -83 q 731 -108 706 -83 q 756 -165 756 -133 q 732 -223 756 -198 q 675 -248 708 -248 z "},"À":{"ha":1427,"x_min":69,"x_max":1357,"o":"m 1357 99 l 1357 0 l 927 0 l 927 99 l 964 99 q 993 115 982 99 q 996 149 1004 131 l 915 347 l 393 347 l 312 149 q 310 135 310 145 q 319 109 310 119 q 345 99 329 99 l 397 99 l 397 0 l 69 0 l 69 99 l 117 99 q 150 110 135 99 q 173 137 165 121 l 710 1433 l 716 1433 l 1256 137 q 1279 110 1264 121 q 1312 99 1294 99 l 1357 99 m 865 470 l 653 986 l 442 470 l 865 470 m 546 1673 l 621 1776 l 877 1571 l 831 1506 l 546 1673 z "},"Ả":{"ha":1427,"x_min":69,"x_max":1357,"o":"m 1357 99 l 1357 0 l 927 0 l 927 99 l 964 99 q 993 115 982 99 q 996 149 1004 131 l 915 347 l 393 347 l 312 149 q 310 135 310 145 q 319 109 310 119 q 345 99 329 99 l 397 99 l 397 0 l 69 0 l 69 99 l 117 99 q 150 110 135 99 q 173 137 165 121 l 710 1433 l 716 1433 l 1256 137 q 1279 110 1264 121 q 1312 99 1294 99 l 1357 99 m 865 470 l 653 986 l 442 470 l 865 470 m 665 1518 q 724 1627 665 1577 q 754 1679 754 1653 q 739 1715 754 1702 q 702 1728 724 1728 q 641 1694 663 1728 l 597 1758 q 651 1811 617 1792 q 722 1829 685 1829 q 821 1790 782 1829 q 861 1692 861 1750 q 841 1622 861 1655 q 782 1569 821 1589 q 756 1548 768 1562 q 744 1518 744 1534 l 665 1518 z "},"Ā":{"ha":1427,"x_min":69,"x_max":1357,"o":"m 1357 99 l 1357 0 l 927 0 l 927 99 l 964 99 q 993 115 982 99 q 996 149 1004 131 l 915 347 l 393 347 l 312 149 q 310 135 310 145 q 319 109 310 119 q 345 99 329 99 l 397 99 l 397 0 l 69 0 l 69 99 l 117 99 q 150 110 135 99 q 173 137 165 121 l 710 1433 l 716 1433 l 1256 137 q 1279 110 1264 121 q 1312 99 1294 99 l 1357 99 m 865 470 l 653 986 l 442 470 l 865 470 m 488 1655 l 938 1655 l 938 1536 l 488 1536 l 488 1655 z "},"Ą":{"ha":1427,"x_min":69,"x_max":1357,"o":"m 1163 0 q 1080 -45 1113 -10 q 1048 -117 1048 -79 q 1054 -141 1048 -129 q 1105 -177 1071 -177 q 1167 -153 1135 -177 l 1206 -206 q 1149 -260 1183 -242 q 1077 -278 1115 -278 q 978 -241 1020 -278 q 937 -143 937 -204 q 1014 0 937 -50 l 927 0 l 927 99 l 964 99 q 993 115 982 99 q 996 149 1004 131 l 915 347 l 393 347 l 312 149 q 310 135 310 145 q 319 109 310 119 q 345 99 329 99 l 397 99 l 397 0 l 69 0 l 69 99 l 117 99 q 150 110 135 99 q 173 137 165 121 l 710 1433 l 716 1433 l 1256 137 q 1279 110 1264 121 q 1312 99 1294 99 l 1357 99 l 1357 0 l 1163 0 m 865 470 l 653 986 l 442 470 l 865 470 z "},"Å":{"ha":1427,"x_min":69,"x_max":1357,"o":"m 1357 99 l 1357 0 l 927 0 l 927 99 l 964 99 q 993 115 982 99 q 996 149 1004 131 l 915 347 l 393 347 l 312 149 q 310 135 310 145 q 319 109 310 119 q 345 99 329 99 l 397 99 l 397 0 l 69 0 l 69 99 l 117 99 q 150 110 135 99 q 173 137 165 121 l 681 1361 q 574 1422 617 1371 q 532 1538 532 1472 q 585 1664 532 1611 q 712 1716 639 1716 q 837 1663 784 1716 q 891 1538 891 1609 q 849 1423 891 1472 q 746 1361 808 1373 l 1256 137 q 1279 110 1264 121 q 1312 99 1294 99 l 1357 99 m 623 1538 q 649 1474 623 1500 q 712 1448 675 1448 q 775 1474 750 1448 q 800 1538 800 1500 q 775 1600 800 1575 q 712 1625 750 1625 q 649 1600 675 1625 q 623 1538 623 1575 m 865 470 l 653 986 l 442 470 l 865 470 z "},"Ã":{"ha":1427,"x_min":69,"x_max":1357,"o":"m 1357 99 l 1357 0 l 927 0 l 927 99 l 964 99 q 993 115 982 99 q 996 149 1004 131 l 915 347 l 393 347 l 312 149 q 310 135 310 145 q 319 109 310 119 q 345 99 329 99 l 397 99 l 397 0 l 69 0 l 69 99 l 117 99 q 150 110 135 99 q 173 137 165 121 l 710 1433 l 716 1433 l 1256 137 q 1279 110 1264 121 q 1312 99 1294 99 l 1357 99 m 865 470 l 653 986 l 442 470 l 865 470 m 486 1601 q 536 1655 500 1637 q 619 1673 571 1673 q 728 1653 669 1673 q 839 1629 796 1629 q 927 1667 897 1629 l 938 1589 q 881 1536 921 1554 q 792 1518 841 1518 q 692 1538 738 1518 q 585 1563 639 1563 q 496 1528 526 1563 l 486 1601 z "},"Æ":{"ha":1897,"x_min":67,"x_max":1798,"o":"m 1798 298 l 1698 0 l 845 0 l 845 99 l 877 99 q 915 115 899 99 q 931 153 931 131 l 931 347 l 458 347 l 345 173 q 337 145 337 159 q 348 115 337 127 q 379 103 359 103 l 403 103 l 403 0 l 67 0 l 67 103 l 95 103 q 212 190 155 103 l 853 1185 q 881 1254 881 1228 q 857 1288 881 1280 l 845 1288 l 845 1387 l 1677 1387 l 1677 1127 l 1567 1127 l 1567 1173 q 1476 1266 1567 1266 l 1167 1266 l 1167 794 l 1401 794 q 1431 807 1419 794 q 1442 835 1442 819 l 1442 907 l 1548 907 l 1548 556 l 1442 556 l 1442 631 q 1431 661 1442 649 q 1401 673 1419 673 l 1167 673 l 1167 188 q 1433 127 1254 127 q 1596 166 1526 127 q 1706 321 1667 204 l 1798 298 m 931 470 l 931 1073 l 538 470 l 931 470 z "},"B":{"ha":1155,"x_min":119,"x_max":1065,"o":"m 833 744 q 1004 595 942 696 q 1065 381 1065 494 q 1012 186 1065 272 q 863 50 958 99 q 647 0 768 0 l 119 0 l 119 99 l 161 99 q 198 115 183 99 q 214 153 214 131 l 214 1238 q 198 1275 214 1260 q 161 1290 183 1290 l 119 1290 l 119 1389 l 611 1389 q 799 1348 712 1389 q 937 1228 885 1308 q 988 1038 988 1149 q 946 866 988 942 q 833 744 905 790 m 454 782 l 518 782 q 693 850 627 782 q 760 1032 760 919 q 684 1202 760 1143 q 488 1262 607 1262 l 454 1262 l 454 782 m 565 143 q 755 218 690 143 q 819 399 819 294 q 734 578 819 514 q 534 643 649 643 l 454 643 l 454 198 q 565 143 454 143 z "},"C":{"ha":1198,"x_min":69,"x_max":1103,"o":"m 647 -44 q 343 44 474 -44 q 141 296 212 131 q 69 687 69 460 q 152 1124 69 958 q 364 1358 234 1290 q 647 1427 494 1427 q 734 1417 696 1427 q 801 1396 772 1407 q 841 1381 829 1385 q 885 1373 863 1373 q 944 1405 921 1373 l 1062 1405 l 1062 956 l 933 956 q 863 1198 933 1099 q 645 1298 794 1298 q 480 1230 560 1298 q 350 1024 401 1163 q 300 683 300 885 q 401 233 300 379 q 673 87 502 87 q 903 183 819 87 q 984 480 986 278 l 1101 478 q 1103 415 1103 456 q 975 63 1103 171 q 647 -44 847 -44 z "},"Ć":{"ha":1198,"x_min":69,"x_max":1103,"o":"m 647 -44 q 343 44 474 -44 q 141 296 212 131 q 69 687 69 460 q 152 1124 69 958 q 364 1358 234 1290 q 647 1427 494 1427 q 734 1417 696 1427 q 801 1396 772 1407 q 841 1381 829 1385 q 885 1373 863 1373 q 944 1405 921 1373 l 1062 1405 l 1062 956 l 933 956 q 863 1198 933 1099 q 645 1298 794 1298 q 480 1230 560 1298 q 350 1024 401 1163 q 300 683 300 885 q 401 233 300 379 q 673 87 502 87 q 903 183 819 87 q 984 480 986 278 l 1101 478 q 1103 415 1103 456 q 975 63 1103 171 q 647 -44 847 -44 m 480 1548 l 736 1752 l 812 1649 l 526 1482 l 480 1548 z "},"Č":{"ha":1198,"x_min":69,"x_max":1103,"o":"m 647 -44 q 343 44 474 -44 q 141 296 212 131 q 69 687 69 460 q 152 1124 69 958 q 364 1358 234 1290 q 647 1427 494 1427 q 734 1417 696 1427 q 801 1396 772 1407 q 841 1381 829 1385 q 885 1373 863 1373 q 944 1405 921 1373 l 1062 1405 l 1062 956 l 933 956 q 863 1198 933 1099 q 645 1298 794 1298 q 480 1230 560 1298 q 350 1024 401 1163 q 300 683 300 885 q 401 233 300 379 q 673 87 502 87 q 903 183 819 87 q 984 480 986 278 l 1101 478 q 1103 415 1103 456 q 975 63 1103 171 q 647 -44 847 -44 m 645 1619 l 867 1690 l 867 1613 l 645 1480 l 425 1613 l 425 1690 l 645 1619 z "},"Ç":{"ha":1198,"x_min":69,"x_max":1103,"o":"m 1101 478 q 1103 415 1103 456 q 988 76 1103 185 q 690 -42 873 -32 l 683 -58 q 738 -103 712 -71 q 764 -183 764 -135 q 721 -282 764 -244 q 619 -319 679 -319 q 551 -303 583 -319 q 498 -252 518 -286 l 540 -202 q 605 -226 573 -226 q 642 -212 627 -226 q 657 -179 657 -198 q 629 -132 657 -149 q 548 -115 601 -115 l 581 -40 q 312 67 427 -24 q 133 317 196 159 q 69 687 69 476 q 152 1124 69 958 q 364 1358 234 1290 q 647 1427 494 1427 q 734 1417 696 1427 q 801 1396 772 1407 q 841 1381 829 1385 q 885 1373 863 1373 q 944 1405 921 1373 l 1062 1405 l 1062 956 l 933 956 q 863 1198 933 1099 q 645 1298 794 1298 q 480 1230 560 1298 q 350 1024 401 1163 q 300 683 300 885 q 401 233 300 379 q 673 87 502 87 q 903 183 819 87 q 984 480 986 278 l 1101 478 z "},"Ċ":{"ha":1198,"x_min":69,"x_max":1103,"o":"m 647 -44 q 343 44 474 -44 q 141 296 212 131 q 69 687 69 460 q 152 1124 69 958 q 364 1358 234 1290 q 647 1427 494 1427 q 734 1417 696 1427 q 801 1396 772 1407 q 841 1381 829 1385 q 885 1373 863 1373 q 944 1405 921 1373 l 1062 1405 l 1062 956 l 933 956 q 863 1198 933 1099 q 645 1298 794 1298 q 480 1230 560 1298 q 350 1024 401 1163 q 300 683 300 885 q 401 233 300 379 q 673 87 502 87 q 903 183 819 87 q 984 480 986 278 l 1101 478 q 1103 415 1103 456 q 975 63 1103 171 q 647 -44 847 -44 m 647 1496 q 589 1521 613 1496 q 565 1579 565 1546 q 589 1637 565 1613 q 647 1661 613 1661 q 703 1637 679 1661 q 728 1579 728 1613 q 704 1521 728 1546 q 647 1496 681 1496 z "},"D":{"ha":1337,"x_min":119,"x_max":1258,"o":"m 1050 1276 q 1200 1070 1143 1206 q 1258 683 1258 935 q 1220 377 1258 496 q 1130 195 1183 258 q 1006 81 1077 133 q 639 0 887 0 l 119 0 l 119 99 l 171 99 q 208 114 192 99 q 224 151 224 129 l 224 1236 q 208 1274 224 1258 q 171 1290 192 1290 l 119 1290 l 119 1389 l 613 1389 q 879 1362 790 1389 q 1050 1276 968 1335 m 623 137 q 934 301 853 137 q 1014 718 1014 464 q 927 1079 1014 909 q 573 1250 839 1250 l 460 1250 l 460 185 q 623 137 516 137 z "},"Ð":{"ha":1337,"x_min":119,"x_max":1258,"o":"m 1050 1276 q 1200 1070 1143 1206 q 1258 683 1258 935 q 1220 377 1258 496 q 1130 195 1183 258 q 1006 81 1077 133 q 639 0 887 0 l 119 0 l 119 99 l 171 99 q 208 114 192 99 q 224 151 224 129 l 224 659 l 125 659 l 125 812 l 224 812 l 224 1236 q 208 1274 224 1258 q 171 1290 192 1290 l 119 1290 l 119 1389 l 613 1389 q 879 1362 790 1389 q 1050 1276 968 1335 m 623 137 q 934 301 853 137 q 1014 718 1014 464 q 927 1079 1014 909 q 573 1250 839 1250 l 460 1250 l 460 812 l 700 812 l 700 659 l 460 659 l 460 185 q 623 137 516 137 z "},"Ď":{"ha":1337,"x_min":119,"x_max":1258,"o":"m 1050 1276 q 1200 1070 1143 1206 q 1258 683 1258 935 q 1220 377 1258 496 q 1130 195 1183 258 q 1006 81 1077 133 q 639 0 887 0 l 119 0 l 119 99 l 171 99 q 208 114 192 99 q 224 151 224 129 l 224 1236 q 208 1274 224 1258 q 171 1290 192 1290 l 119 1290 l 119 1389 l 613 1389 q 879 1362 790 1389 q 1050 1276 968 1335 m 623 137 q 934 301 853 137 q 1014 718 1014 464 q 927 1079 1014 909 q 573 1250 839 1250 l 460 1250 l 460 185 q 623 137 516 137 m 659 1593 l 881 1665 l 881 1587 l 659 1454 l 438 1587 l 438 1665 l 659 1593 z "},"Đ":{"ha":1337,"x_min":119,"x_max":1258,"o":"m 1050 1276 q 1200 1070 1143 1206 q 1258 683 1258 935 q 1220 377 1258 496 q 1130 195 1183 258 q 1006 81 1077 133 q 639 0 887 0 l 119 0 l 119 99 l 171 99 q 208 114 192 99 q 224 151 224 129 l 224 659 l 125 659 l 125 812 l 224 812 l 224 1236 q 208 1274 224 1258 q 171 1290 192 1290 l 119 1290 l 119 1389 l 613 1389 q 879 1362 790 1389 q 1050 1276 968 1335 m 623 137 q 934 301 853 137 q 1014 718 1014 464 q 927 1079 1014 909 q 573 1250 839 1250 l 460 1250 l 460 812 l 700 812 l 700 659 l 460 659 l 460 185 q 623 137 516 137 z "},"E":{"ha":1171,"x_min":119,"x_max":1071,"o":"m 1071 298 l 972 0 l 119 0 l 119 99 l 151 99 q 188 115 173 99 q 204 153 204 131 l 204 1234 q 188 1272 204 1256 q 151 1288 173 1288 l 119 1288 l 119 1387 l 950 1387 l 950 1127 l 841 1127 l 841 1173 q 750 1266 841 1266 l 440 1266 l 440 794 l 675 794 q 704 807 692 794 q 716 835 716 819 l 716 907 l 821 907 l 821 556 l 716 556 l 716 631 q 704 661 716 649 q 675 673 692 673 l 440 673 l 440 188 q 706 127 528 127 q 870 166 800 127 q 980 321 940 204 l 1071 298 z "},"É":{"ha":1171,"x_min":119,"x_max":1071,"o":"m 1071 298 l 972 0 l 119 0 l 119 99 l 151 99 q 188 115 173 99 q 204 153 204 131 l 204 1234 q 188 1272 204 1256 q 151 1288 173 1288 l 119 1288 l 119 1387 l 950 1387 l 950 1127 l 841 1127 l 841 1173 q 750 1266 841 1266 l 440 1266 l 440 794 l 675 794 q 704 807 692 794 q 716 835 716 819 l 716 907 l 821 907 l 821 556 l 716 556 l 716 631 q 704 661 716 649 q 675 673 692 673 l 440 673 l 440 188 q 706 127 528 127 q 870 166 800 127 q 980 321 940 204 l 1071 298 m 425 1522 l 681 1726 l 756 1623 l 470 1456 l 425 1522 z "},"Ě":{"ha":1171,"x_min":119,"x_max":1071,"o":"m 1071 298 l 972 0 l 119 0 l 119 99 l 151 99 q 188 115 173 99 q 204 153 204 131 l 204 1234 q 188 1272 204 1256 q 151 1288 173 1288 l 119 1288 l 119 1387 l 950 1387 l 950 1127 l 841 1127 l 841 1173 q 750 1266 841 1266 l 440 1266 l 440 794 l 675 794 q 704 807 692 794 q 716 835 716 819 l 716 907 l 821 907 l 821 556 l 716 556 l 716 631 q 704 661 716 649 q 675 673 692 673 l 440 673 l 440 188 q 706 127 528 127 q 870 166 800 127 q 980 321 940 204 l 1071 298 m 589 1593 l 812 1665 l 812 1587 l 589 1454 l 369 1587 l 369 1665 l 589 1593 z "},"Ê":{"ha":1171,"x_min":119,"x_max":1071,"o":"m 1071 298 l 972 0 l 119 0 l 119 99 l 151 99 q 188 115 173 99 q 204 153 204 131 l 204 1234 q 188 1272 204 1256 q 151 1288 173 1288 l 119 1288 l 119 1387 l 950 1387 l 950 1127 l 841 1127 l 841 1173 q 750 1266 841 1266 l 440 1266 l 440 794 l 675 794 q 704 807 692 794 q 716 835 716 819 l 716 907 l 821 907 l 821 556 l 716 556 l 716 631 q 704 661 716 649 q 675 673 692 673 l 440 673 l 440 188 q 706 127 528 127 q 870 166 800 127 q 980 321 940 204 l 1071 298 m 369 1544 l 589 1677 l 812 1544 l 812 1466 l 589 1538 l 369 1466 l 369 1544 z "},"Ế":{"ha":1171,"x_min":119,"x_max":1071,"o":"m 1071 298 l 972 0 l 119 0 l 119 99 l 151 99 q 188 115 173 99 q 204 153 204 131 l 204 1234 q 188 1272 204 1256 q 151 1288 173 1288 l 119 1288 l 119 1387 l 950 1387 l 950 1127 l 841 1127 l 841 1173 q 750 1266 841 1266 l 440 1266 l 440 794 l 675 794 q 704 807 692 794 q 716 835 716 819 l 716 907 l 821 907 l 821 556 l 716 556 l 716 631 q 704 661 716 649 q 675 673 692 673 l 440 673 l 440 188 q 706 127 528 127 q 870 166 800 127 q 980 321 940 204 l 1071 298 z "},"Ệ":{"ha":1171,"x_min":119,"x_max":1071,"o":"m 1071 298 l 972 0 l 119 0 l 119 99 l 151 99 q 188 115 173 99 q 204 153 204 131 l 204 1234 q 188 1272 204 1256 q 151 1288 173 1288 l 119 1288 l 119 1387 l 950 1387 l 950 1127 l 841 1127 l 841 1173 q 750 1266 841 1266 l 440 1266 l 440 794 l 675 794 q 704 807 692 794 q 716 835 716 819 l 716 907 l 821 907 l 821 556 l 716 556 l 716 631 q 704 661 716 649 q 675 673 692 673 l 440 673 l 440 188 q 706 127 528 127 q 870 166 800 127 q 980 321 940 204 l 1071 298 m 595 -248 q 538 -223 562 -248 q 514 -165 514 -198 q 538 -108 514 -133 q 595 -83 562 -83 q 652 -108 627 -83 q 677 -165 677 -133 q 653 -223 677 -198 q 595 -248 629 -248 m 369 1544 l 589 1677 l 812 1544 l 812 1466 l 589 1538 l 369 1466 l 369 1544 z "},"Ề":{"ha":1171,"x_min":119,"x_max":1071,"o":"m 1071 298 l 972 0 l 119 0 l 119 99 l 151 99 q 188 115 173 99 q 204 153 204 131 l 204 1234 q 188 1272 204 1256 q 151 1288 173 1288 l 119 1288 l 119 1387 l 950 1387 l 950 1127 l 841 1127 l 841 1173 q 750 1266 841 1266 l 440 1266 l 440 794 l 675 794 q 704 807 692 794 q 716 835 716 819 l 716 907 l 821 907 l 821 556 l 716 556 l 716 631 q 704 661 716 649 q 675 673 692 673 l 440 673 l 440 188 q 706 127 528 127 q 870 166 800 127 q 980 321 940 204 l 1071 298 m 585 1790 l 669 1887 l 909 1665 l 859 1603 l 585 1790 m 369 1544 l 589 1677 l 812 1544 l 812 1466 l 589 1538 l 369 1466 l 369 1544 z "},"Ể":{"ha":1171,"x_min":119,"x_max":1071,"o":"m 1071 298 l 972 0 l 119 0 l 119 99 l 151 99 q 188 115 173 99 q 204 153 204 131 l 204 1234 q 188 1272 204 1256 q 151 1288 173 1288 l 119 1288 l 119 1387 l 950 1387 l 950 1127 l 841 1127 l 841 1173 q 750 1266 841 1266 l 440 1266 l 440 794 l 675 794 q 704 807 692 794 q 716 835 716 819 l 716 907 l 821 907 l 821 556 l 716 556 l 716 631 q 704 661 716 649 q 675 673 692 673 l 440 673 l 440 188 q 706 127 528 127 q 870 166 800 127 q 980 321 940 204 l 1071 298 z "},"Ễ":{"ha":1171,"x_min":119,"x_max":1071,"o":"m 1071 298 l 972 0 l 119 0 l 119 99 l 151 99 q 188 115 173 99 q 204 153 204 131 l 204 1234 q 188 1272 204 1256 q 151 1288 173 1288 l 119 1288 l 119 1387 l 950 1387 l 950 1127 l 841 1127 l 841 1173 q 750 1266 841 1266 l 440 1266 l 440 794 l 675 794 q 704 807 692 794 q 716 835 716 819 l 716 907 l 821 907 l 821 556 l 716 556 l 716 631 q 704 661 716 649 q 675 673 692 673 l 440 673 l 440 188 q 706 127 528 127 q 870 166 800 127 q 980 321 940 204 l 1071 298 z "},"Ë":{"ha":1171,"x_min":119,"x_max":1071,"o":"m 1071 298 l 972 0 l 119 0 l 119 99 l 151 99 q 188 115 173 99 q 204 153 204 131 l 204 1234 q 188 1272 204 1256 q 151 1288 173 1288 l 119 1288 l 119 1387 l 950 1387 l 950 1127 l 841 1127 l 841 1173 q 750 1266 841 1266 l 440 1266 l 440 794 l 675 794 q 704 807 692 794 q 716 835 716 819 l 716 907 l 821 907 l 821 556 l 716 556 l 716 631 q 704 661 716 649 q 675 673 692 673 l 440 673 l 440 188 q 706 127 528 127 q 870 166 800 127 q 980 321 940 204 l 1071 298 m 433 1470 q 375 1495 399 1470 q 351 1554 351 1520 q 375 1611 351 1587 q 433 1635 399 1635 q 489 1611 464 1635 q 514 1554 514 1587 q 490 1495 514 1520 q 433 1470 466 1470 m 750 1470 q 692 1495 716 1470 q 669 1554 669 1520 q 692 1611 669 1587 q 750 1635 716 1635 q 807 1611 782 1635 q 831 1554 831 1587 q 808 1495 831 1520 q 750 1470 784 1470 z "},"Ė":{"ha":1171,"x_min":119,"x_max":1071,"o":"m 1071 298 l 972 0 l 119 0 l 119 99 l 151 99 q 188 115 173 99 q 204 153 204 131 l 204 1234 q 188 1272 204 1256 q 151 1288 173 1288 l 119 1288 l 119 1387 l 950 1387 l 950 1127 l 841 1127 l 841 1173 q 750 1266 841 1266 l 440 1266 l 440 794 l 675 794 q 704 807 692 794 q 716 835 716 819 l 716 907 l 821 907 l 821 556 l 716 556 l 716 631 q 704 661 716 649 q 675 673 692 673 l 440 673 l 440 188 q 706 127 528 127 q 870 166 800 127 q 980 321 940 204 l 1071 298 m 591 1470 q 534 1495 558 1470 q 510 1554 510 1520 q 534 1611 510 1587 q 591 1635 558 1635 q 648 1611 623 1635 q 673 1554 673 1587 q 649 1495 673 1520 q 591 1470 625 1470 z "},"Ẹ":{"ha":1171,"x_min":119,"x_max":1071,"o":"m 1071 298 l 972 0 l 119 0 l 119 99 l 151 99 q 188 115 173 99 q 204 153 204 131 l 204 1234 q 188 1272 204 1256 q 151 1288 173 1288 l 119 1288 l 119 1387 l 950 1387 l 950 1127 l 841 1127 l 841 1173 q 750 1266 841 1266 l 440 1266 l 440 794 l 675 794 q 704 807 692 794 q 716 835 716 819 l 716 907 l 821 907 l 821 556 l 716 556 l 716 631 q 704 661 716 649 q 675 673 692 673 l 440 673 l 440 188 q 706 127 528 127 q 870 166 800 127 q 980 321 940 204 l 1071 298 m 595 -248 q 538 -223 562 -248 q 514 -165 514 -198 q 538 -108 514 -133 q 595 -83 562 -83 q 652 -108 627 -83 q 677 -165 677 -133 q 653 -223 677 -198 q 595 -248 629 -248 z "},"È":{"ha":1171,"x_min":119,"x_max":1071,"o":"m 1071 298 l 972 0 l 119 0 l 119 99 l 151 99 q 188 115 173 99 q 204 153 204 131 l 204 1234 q 188 1272 204 1256 q 151 1288 173 1288 l 119 1288 l 119 1387 l 950 1387 l 950 1127 l 841 1127 l 841 1173 q 750 1266 841 1266 l 440 1266 l 440 794 l 675 794 q 704 807 692 794 q 716 835 716 819 l 716 907 l 821 907 l 821 556 l 716 556 l 716 631 q 704 661 716 649 q 675 673 692 673 l 440 673 l 440 188 q 706 127 528 127 q 870 166 800 127 q 980 321 940 204 l 1071 298 m 425 1623 l 500 1726 l 756 1522 l 710 1456 l 425 1623 z "},"Ẻ":{"ha":1171,"x_min":119,"x_max":1071,"o":"m 1071 298 l 972 0 l 119 0 l 119 99 l 151 99 q 188 115 173 99 q 204 153 204 131 l 204 1234 q 188 1272 204 1256 q 151 1288 173 1288 l 119 1288 l 119 1387 l 950 1387 l 950 1127 l 841 1127 l 841 1173 q 750 1266 841 1266 l 440 1266 l 440 794 l 675 794 q 704 807 692 794 q 716 835 716 819 l 716 907 l 821 907 l 821 556 l 716 556 l 716 631 q 704 661 716 649 q 675 673 692 673 l 440 673 l 440 188 q 706 127 528 127 q 870 166 800 127 q 980 321 940 204 l 1071 298 m 544 1468 q 603 1577 544 1528 q 633 1629 633 1603 q 618 1666 633 1653 q 581 1679 603 1679 q 520 1645 542 1679 l 476 1708 q 530 1761 496 1742 q 601 1780 563 1780 q 700 1740 661 1780 q 740 1643 740 1700 q 720 1572 740 1605 q 661 1520 700 1540 q 635 1498 647 1512 q 623 1468 623 1484 l 544 1468 z "},"Ē":{"ha":1171,"x_min":119,"x_max":1071,"o":"m 1071 298 l 972 0 l 119 0 l 119 99 l 151 99 q 188 115 173 99 q 204 153 204 131 l 204 1234 q 188 1272 204 1256 q 151 1288 173 1288 l 119 1288 l 119 1387 l 950 1387 l 950 1127 l 841 1127 l 841 1173 q 750 1266 841 1266 l 440 1266 l 440 794 l 675 794 q 704 807 692 794 q 716 835 716 819 l 716 907 l 821 907 l 821 556 l 716 556 l 716 631 q 704 661 716 649 q 675 673 692 673 l 440 673 l 440 188 q 706 127 528 127 q 870 166 800 127 q 980 321 940 204 l 1071 298 m 367 1605 l 817 1605 l 817 1486 l 367 1486 l 367 1605 z "},"Ę":{"ha":1171,"x_min":119,"x_max":1071,"o":"m 677 0 q 594 -45 627 -10 q 562 -117 562 -79 q 567 -141 562 -129 q 619 -177 585 -177 q 681 -153 649 -177 l 720 -206 q 663 -260 696 -242 q 591 -278 629 -278 q 492 -241 534 -278 q 450 -143 450 -204 q 528 0 450 -50 l 119 0 l 119 99 l 151 99 q 188 115 173 99 q 204 153 204 131 l 204 1234 q 188 1272 204 1256 q 151 1288 173 1288 l 119 1288 l 119 1387 l 950 1387 l 950 1127 l 841 1127 l 841 1173 q 750 1266 841 1266 l 440 1266 l 440 794 l 675 794 q 704 807 692 794 q 716 835 716 819 l 716 907 l 821 907 l 821 556 l 716 556 l 716 631 q 704 661 716 649 q 675 673 692 673 l 440 673 l 440 188 q 706 127 528 127 q 870 166 800 127 q 980 321 940 204 l 1071 298 l 972 0 l 677 0 z "},"Ẽ":{"ha":1171,"x_min":119,"x_max":1071,"o":"m 1071 298 l 972 0 l 119 0 l 119 99 l 151 99 q 188 115 173 99 q 204 153 204 131 l 204 1234 q 188 1272 204 1256 q 151 1288 173 1288 l 119 1288 l 119 1387 l 950 1387 l 950 1127 l 841 1127 l 841 1173 q 750 1266 841 1266 l 440 1266 l 440 794 l 675 794 q 704 807 692 794 q 716 835 716 819 l 716 907 l 821 907 l 821 556 l 716 556 l 716 631 q 704 661 716 649 q 675 673 692 673 l 440 673 l 440 188 q 706 127 528 127 q 870 166 800 127 q 980 321 940 204 l 1071 298 m 365 1552 q 415 1605 379 1587 q 498 1623 450 1623 q 607 1603 548 1623 q 718 1579 675 1579 q 806 1617 776 1579 l 817 1540 q 760 1486 800 1504 q 671 1468 720 1468 q 571 1488 617 1468 q 464 1514 518 1514 q 375 1478 405 1514 l 365 1552 z "},"F":{"ha":1028,"x_min":119,"x_max":938,"o":"m 938 1117 l 829 1117 l 829 1175 q 811 1249 829 1232 q 738 1266 792 1266 l 456 1266 l 456 802 l 659 802 q 695 816 681 802 q 710 853 710 831 l 710 901 l 815 901 l 815 563 l 710 563 l 710 621 q 695 658 710 643 q 659 673 681 673 l 456 673 l 456 153 q 471 115 456 131 q 506 99 486 99 l 554 99 l 554 0 l 119 0 l 119 99 l 167 99 q 203 115 188 99 q 218 153 218 131 l 218 1232 q 203 1270 218 1254 q 167 1286 188 1286 l 119 1286 l 119 1389 l 938 1389 l 938 1117 z "},"G":{"ha":1317,"x_min":69,"x_max":1248,"o":"m 653 -46 q 226 134 383 -46 q 69 667 69 313 q 228 1238 69 1052 q 649 1425 387 1425 q 732 1418 696 1425 q 801 1401 768 1411 q 853 1385 833 1391 q 895 1379 875 1379 q 944 1391 925 1379 q 964 1419 964 1403 l 1058 1419 l 1058 968 l 952 968 q 875 1196 952 1103 q 651 1290 798 1290 q 480 1215 558 1290 q 357 1002 403 1141 q 312 679 312 863 q 362 347 312 482 q 491 148 413 212 q 651 83 569 83 q 824 128 752 83 q 925 248 897 173 l 925 417 q 909 454 925 438 q 871 470 893 470 l 812 470 l 812 577 l 1248 577 l 1248 470 l 1204 470 q 1167 454 1183 470 q 1151 417 1151 438 l 1151 -6 l 1042 -6 q 1032 29 1040 14 q 1002 50 1024 44 q 986 52 996 52 q 883 16 950 52 q 653 -46 780 -46 z "},"Ğ":{"ha":1317,"x_min":69,"x_max":1248,"o":"m 653 -46 q 226 134 383 -46 q 69 667 69 313 q 228 1238 69 1052 q 649 1425 387 1425 q 732 1418 696 1425 q 801 1401 768 1411 q 853 1385 833 1391 q 895 1379 875 1379 q 944 1391 925 1379 q 964 1419 964 1403 l 1058 1419 l 1058 968 l 952 968 q 875 1196 952 1103 q 651 1290 798 1290 q 480 1215 558 1290 q 357 1002 403 1141 q 312 679 312 863 q 362 347 312 482 q 491 148 413 212 q 651 83 569 83 q 824 128 752 83 q 925 248 897 173 l 925 417 q 909 454 925 438 q 871 470 893 470 l 812 470 l 812 577 l 1248 577 l 1248 470 l 1204 470 q 1167 454 1183 470 q 1151 417 1151 438 l 1151 -6 l 1042 -6 q 1032 29 1040 14 q 1002 50 1024 44 q 986 52 996 52 q 883 16 950 52 q 653 -46 780 -46 m 635 1494 q 489 1539 560 1494 q 401 1645 419 1583 l 454 1694 q 635 1617 520 1617 q 815 1694 750 1617 l 871 1645 q 778 1538 847 1581 q 635 1494 708 1494 z "},"Ģ":{"ha":1317,"x_min":69,"x_max":1248,"o":"m 653 -46 q 226 134 383 -46 q 69 667 69 313 q 228 1238 69 1052 q 649 1425 387 1425 q 732 1418 696 1425 q 801 1401 768 1411 q 853 1385 833 1391 q 895 1379 875 1379 q 944 1391 925 1379 q 964 1419 964 1403 l 1058 1419 l 1058 968 l 952 968 q 875 1196 952 1103 q 651 1290 798 1290 q 480 1215 558 1290 q 357 1002 403 1141 q 312 679 312 863 q 362 347 312 482 q 491 148 413 212 q 651 83 569 83 q 824 128 752 83 q 925 248 897 173 l 925 417 q 909 454 925 438 q 871 470 893 470 l 812 470 l 812 577 l 1248 577 l 1248 470 l 1204 470 q 1167 454 1183 470 q 1151 417 1151 438 l 1151 -6 l 1042 -6 q 1032 29 1040 14 q 1002 50 1024 44 q 986 52 996 52 q 883 16 950 52 q 653 -46 780 -46 m 589 -357 q 619 -268 619 -308 q 578 -239 595 -260 q 562 -192 562 -218 q 584 -138 562 -161 q 637 -115 607 -115 q 693 -143 671 -115 q 716 -204 716 -171 q 695 -284 716 -248 q 645 -339 675 -319 q 589 -357 615 -359 z "},"Ġ":{"ha":1317,"x_min":69,"x_max":1248,"o":"m 653 -46 q 226 134 383 -46 q 69 667 69 313 q 228 1238 69 1052 q 649 1425 387 1425 q 732 1418 696 1425 q 801 1401 768 1411 q 853 1385 833 1391 q 895 1379 875 1379 q 944 1391 925 1379 q 964 1419 964 1403 l 1058 1419 l 1058 968 l 952 968 q 875 1196 952 1103 q 651 1290 798 1290 q 480 1215 558 1290 q 357 1002 403 1141 q 312 679 312 863 q 362 347 312 482 q 491 148 413 212 q 651 83 569 83 q 824 128 752 83 q 925 248 897 173 l 925 417 q 909 454 925 438 q 871 470 893 470 l 812 470 l 812 577 l 1248 577 l 1248 470 l 1204 470 q 1167 454 1183 470 q 1151 417 1151 438 l 1151 -6 l 1042 -6 q 1032 29 1040 14 q 1002 50 1024 44 q 986 52 996 52 q 883 16 950 52 q 653 -46 780 -46 m 637 1500 q 579 1525 603 1500 q 556 1583 556 1550 q 579 1641 556 1617 q 637 1665 603 1665 q 693 1641 669 1665 q 718 1583 718 1617 q 694 1525 718 1550 q 637 1500 671 1500 z "},"H":{"ha":1419,"x_min":119,"x_max":1300,"o":"m 1258 1290 q 1220 1274 1236 1290 q 1204 1236 1204 1258 l 1204 153 q 1220 115 1204 131 q 1258 99 1236 99 l 1300 99 l 1300 0 l 871 0 l 871 99 l 913 99 q 949 115 935 99 q 964 153 964 131 l 964 675 l 452 675 l 452 153 q 468 115 452 131 q 506 99 484 99 l 548 99 l 548 0 l 119 0 l 119 99 l 161 99 q 198 115 183 99 q 214 153 214 131 l 214 1236 q 198 1274 214 1258 q 161 1290 183 1290 l 119 1290 l 119 1389 l 548 1389 l 548 1290 l 506 1290 q 468 1274 484 1290 q 452 1236 452 1258 l 452 798 l 964 798 l 964 1236 q 949 1274 964 1258 q 913 1290 935 1290 l 871 1290 l 871 1389 l 1300 1389 l 1300 1290 l 1258 1290 z "},"Ħ":{"ha":1419,"x_min":119,"x_max":1300,"o":"m 1258 1290 q 1220 1274 1236 1290 q 1204 1236 1204 1258 l 1204 1125 l 1294 1125 l 1294 972 l 1204 972 l 1204 153 q 1220 115 1204 131 q 1258 99 1236 99 l 1300 99 l 1300 0 l 871 0 l 871 99 l 913 99 q 949 115 935 99 q 964 153 964 131 l 964 675 l 452 675 l 452 153 q 468 115 452 131 q 506 99 484 99 l 548 99 l 548 0 l 119 0 l 119 99 l 161 99 q 198 115 183 99 q 214 153 214 131 l 214 972 l 121 972 l 121 1125 l 214 1125 l 214 1236 q 198 1274 214 1258 q 161 1290 183 1290 l 119 1290 l 119 1389 l 548 1389 l 548 1290 l 506 1290 q 468 1274 484 1290 q 452 1236 452 1258 l 452 1125 l 964 1125 l 964 1236 q 949 1274 964 1258 q 913 1290 935 1290 l 871 1290 l 871 1389 l 1300 1389 l 1300 1290 l 1258 1290 m 964 972 l 452 972 l 452 798 l 964 798 l 964 972 z "},"I":{"ha":726,"x_min":149,"x_max":577,"o":"m 149 99 l 190 99 q 227 115 212 99 q 242 153 242 131 l 242 1236 q 227 1274 242 1258 q 190 1290 212 1290 l 149 1290 l 149 1389 l 577 1389 l 577 1290 l 536 1290 q 498 1274 514 1290 q 482 1236 482 1258 l 482 153 q 498 115 482 131 q 536 99 514 99 l 577 99 l 577 0 l 149 0 l 149 99 z "},"Í":{"ha":726,"x_min":149,"x_max":577,"o":"m 149 99 l 190 99 q 227 115 212 99 q 242 153 242 131 l 242 1236 q 227 1274 242 1258 q 190 1290 212 1290 l 149 1290 l 149 1389 l 577 1389 l 577 1290 l 536 1290 q 498 1274 514 1290 q 482 1236 482 1258 l 482 153 q 498 115 482 131 q 536 99 514 99 l 577 99 l 577 0 l 149 0 l 149 99 m 196 1522 l 452 1726 l 528 1623 l 242 1456 l 196 1522 z "},"Ǐ":{"ha":726,"x_min":141,"x_max":583,"o":"m 149 99 l 190 99 q 227 115 212 99 q 242 153 242 131 l 242 1236 q 227 1274 242 1258 q 190 1290 212 1290 l 149 1290 l 149 1389 l 577 1389 l 577 1290 l 536 1290 q 498 1274 514 1290 q 482 1236 482 1258 l 482 153 q 498 115 482 131 q 536 99 514 99 l 577 99 l 577 0 l 149 0 l 149 99 m 361 1593 l 583 1665 l 583 1587 l 361 1454 l 141 1587 l 141 1665 l 361 1593 z "},"Î":{"ha":726,"x_min":141,"x_max":583,"o":"m 149 99 l 190 99 q 227 115 212 99 q 242 153 242 131 l 242 1236 q 227 1274 242 1258 q 190 1290 212 1290 l 149 1290 l 149 1389 l 577 1389 l 577 1290 l 536 1290 q 498 1274 514 1290 q 482 1236 482 1258 l 482 153 q 498 115 482 131 q 536 99 514 99 l 577 99 l 577 0 l 149 0 l 149 99 m 141 1544 l 361 1677 l 583 1544 l 583 1466 l 361 1538 l 141 1466 l 141 1544 z "},"Ï":{"ha":726,"x_min":123,"x_max":603,"o":"m 149 99 l 190 99 q 227 115 212 99 q 242 153 242 131 l 242 1236 q 227 1274 242 1258 q 190 1290 212 1290 l 149 1290 l 149 1389 l 577 1389 l 577 1290 l 536 1290 q 498 1274 514 1290 q 482 1236 482 1258 l 482 153 q 498 115 482 131 q 536 99 514 99 l 577 99 l 577 0 l 149 0 l 149 99 m 204 1470 q 147 1495 171 1470 q 123 1554 123 1520 q 147 1611 123 1587 q 204 1635 171 1635 q 261 1611 236 1635 q 286 1554 286 1587 q 262 1495 286 1520 q 204 1470 238 1470 m 522 1470 q 464 1495 488 1470 q 440 1554 440 1520 q 464 1611 440 1587 q 522 1635 488 1635 q 578 1611 554 1635 q 603 1554 603 1587 q 579 1495 603 1520 q 522 1470 556 1470 z "},"İ":{"ha":726,"x_min":149,"x_max":577,"o":"m 149 99 l 190 99 q 227 115 212 99 q 242 153 242 131 l 242 1236 q 227 1274 242 1258 q 190 1290 212 1290 l 149 1290 l 149 1389 l 577 1389 l 577 1290 l 536 1290 q 498 1274 514 1290 q 482 1236 482 1258 l 482 153 q 498 115 482 131 q 536 99 514 99 l 577 99 l 577 0 l 149 0 l 149 99 m 363 1470 q 306 1495 329 1470 q 282 1554 282 1520 q 306 1611 282 1587 q 363 1635 329 1635 q 420 1611 395 1635 q 444 1554 444 1587 q 421 1495 444 1520 q 363 1470 397 1470 z "},"Ị":{"ha":726,"x_min":149,"x_max":577,"o":"m 149 99 l 190 99 q 227 115 212 99 q 242 153 242 131 l 242 1236 q 227 1274 242 1258 q 190 1290 212 1290 l 149 1290 l 149 1389 l 577 1389 l 577 1290 l 536 1290 q 498 1274 514 1290 q 482 1236 482 1258 l 482 153 q 498 115 482 131 q 536 99 514 99 l 577 99 l 577 0 l 149 0 l 149 99 m 363 -248 q 306 -223 329 -248 q 282 -165 282 -198 q 306 -108 282 -133 q 363 -83 329 -83 q 420 -108 395 -83 q 444 -165 444 -133 q 421 -223 444 -198 q 363 -248 397 -248 z "},"Ì":{"ha":726,"x_min":149,"x_max":577,"o":"m 149 99 l 190 99 q 227 115 212 99 q 242 153 242 131 l 242 1236 q 227 1274 242 1258 q 190 1290 212 1290 l 149 1290 l 149 1389 l 577 1389 l 577 1290 l 536 1290 q 498 1274 514 1290 q 482 1236 482 1258 l 482 153 q 498 115 482 131 q 536 99 514 99 l 577 99 l 577 0 l 149 0 l 149 99 m 196 1623 l 272 1726 l 528 1522 l 482 1456 l 196 1623 z "},"Ỉ":{"ha":726,"x_min":149,"x_max":577,"o":"m 149 99 l 190 99 q 227 115 212 99 q 242 153 242 131 l 242 1236 q 227 1274 242 1258 q 190 1290 212 1290 l 149 1290 l 149 1389 l 577 1389 l 577 1290 l 536 1290 q 498 1274 514 1290 q 482 1236 482 1258 l 482 153 q 498 115 482 131 q 536 99 514 99 l 577 99 l 577 0 l 149 0 l 149 99 m 315 1468 q 375 1577 315 1528 q 405 1629 405 1603 q 390 1666 405 1653 q 353 1679 375 1679 q 292 1645 313 1679 l 248 1708 q 302 1761 268 1742 q 373 1780 335 1780 q 472 1740 433 1780 q 512 1643 512 1700 q 492 1572 512 1605 q 433 1520 472 1540 q 407 1498 419 1512 q 395 1468 395 1484 l 315 1468 z "},"Ī":{"ha":726,"x_min":139,"x_max":589,"o":"m 149 99 l 190 99 q 227 115 212 99 q 242 153 242 131 l 242 1236 q 227 1274 242 1258 q 190 1290 212 1290 l 149 1290 l 149 1389 l 577 1389 l 577 1290 l 536 1290 q 498 1274 514 1290 q 482 1236 482 1258 l 482 153 q 498 115 482 131 q 536 99 514 99 l 577 99 l 577 0 l 149 0 l 149 99 m 139 1605 l 589 1605 l 589 1486 l 139 1486 l 139 1605 z "},"Į":{"ha":726,"x_min":149,"x_max":577,"o":"m 536 1290 q 498 1274 514 1290 q 482 1236 482 1258 l 482 153 q 498 115 482 131 q 536 99 514 99 l 577 99 l 577 0 l 444 0 q 362 -45 395 -10 q 329 -117 329 -79 q 335 -141 329 -129 q 387 -177 353 -177 q 448 -153 417 -177 l 488 -206 q 431 -260 464 -242 q 359 -278 397 -278 q 260 -241 302 -278 q 218 -143 218 -204 q 296 0 218 -50 l 149 0 l 149 99 l 190 99 q 227 115 212 99 q 242 153 242 131 l 242 1236 q 227 1274 242 1258 q 190 1290 212 1290 l 149 1290 l 149 1389 l 577 1389 l 577 1290 l 536 1290 z "},"Ĩ":{"ha":726,"x_min":149,"x_max":577,"o":"m 149 1552 q 195 1605 161 1587 q 276 1623 230 1623 q 379 1603 323 1623 q 486 1579 444 1579 q 567 1617 542 1579 l 577 1540 q 524 1486 562 1504 q 440 1468 486 1468 q 345 1488 389 1468 q 242 1514 292 1514 q 159 1478 188 1514 l 149 1552 m 149 99 l 190 99 q 227 115 212 99 q 242 153 242 131 l 242 1236 q 227 1274 242 1258 q 190 1290 212 1290 l 149 1290 l 149 1389 l 577 1389 l 577 1290 l 536 1290 q 498 1274 514 1290 q 482 1236 482 1258 l 482 153 q 498 115 482 131 q 536 99 514 99 l 577 99 l 577 0 l 149 0 l 149 99 z "},"J":{"ha":1087,"x_min":69,"x_max":988,"o":"m 69 385 l 175 385 q 240 157 175 242 q 425 71 306 71 q 596 156 536 71 q 657 369 657 240 l 657 1236 q 640 1274 657 1258 q 601 1290 623 1290 l 554 1290 l 554 1389 l 988 1389 l 988 1290 l 937 1290 q 899 1274 915 1290 q 883 1236 883 1258 l 885 367 q 839 162 885 248 q 718 22 794 75 q 433 -50 605 -60 q 258 -6 367 -46 q 226 0 234 0 q 173 -50 181 0 l 69 -50 l 69 385 z "},"K":{"ha":1292,"x_min":119,"x_max":1222,"o":"m 1222 99 l 1222 0 l 788 0 l 788 99 l 802 99 q 826 111 813 99 q 839 143 839 123 q 829 177 839 159 l 562 651 l 452 502 l 452 153 q 468 115 452 131 q 506 99 484 99 l 548 99 l 548 0 l 119 0 l 119 99 l 161 99 q 197 115 183 99 q 212 153 212 131 l 212 1238 q 197 1275 212 1260 q 161 1290 183 1290 l 119 1290 l 119 1389 l 548 1389 l 548 1290 l 506 1290 q 468 1275 484 1290 q 452 1238 452 1260 l 452 724 l 815 1216 q 839 1266 839 1250 q 808 1290 839 1290 l 780 1290 l 780 1389 l 1115 1389 l 1115 1290 l 1081 1290 q 1016 1260 1046 1290 q 954 1185 986 1230 l 716 861 l 1105 153 q 1138 110 1121 121 q 1192 99 1155 99 l 1222 99 z "},"Ķ":{"ha":1292,"x_min":119,"x_max":1222,"o":"m 1222 99 l 1222 0 l 788 0 l 788 99 l 802 99 q 826 111 813 99 q 839 143 839 123 q 829 177 839 159 l 562 651 l 452 502 l 452 153 q 468 115 452 131 q 506 99 484 99 l 548 99 l 548 0 l 119 0 l 119 99 l 161 99 q 197 115 183 99 q 212 153 212 131 l 212 1238 q 197 1275 212 1260 q 161 1290 183 1290 l 119 1290 l 119 1389 l 548 1389 l 548 1290 l 506 1290 q 468 1275 484 1290 q 452 1238 452 1260 l 452 724 l 815 1216 q 839 1266 839 1250 q 808 1290 839 1290 l 780 1290 l 780 1389 l 1115 1389 l 1115 1290 l 1081 1290 q 1016 1260 1046 1290 q 954 1185 986 1230 l 716 861 l 1105 153 q 1138 110 1121 121 q 1192 99 1155 99 l 1222 99 m 611 -325 q 641 -236 641 -276 q 600 -207 617 -228 q 583 -161 583 -187 q 606 -106 583 -129 q 659 -83 629 -83 q 715 -111 692 -83 q 738 -173 738 -139 q 717 -252 738 -216 q 667 -308 696 -288 q 611 -325 637 -327 z "},"L":{"ha":1133,"x_min":119,"x_max":1063,"o":"m 1063 256 l 974 0 l 119 0 l 119 99 l 161 99 q 198 115 183 99 q 214 153 214 131 l 214 1236 q 198 1274 214 1258 q 161 1290 183 1290 l 119 1290 l 119 1389 l 548 1389 l 548 1290 l 506 1290 q 468 1274 484 1290 q 452 1236 452 1258 l 452 206 q 643 119 502 125 l 716 117 q 861 152 800 117 q 958 290 923 187 l 1063 256 z "},"Ĺ":{"ha":1133,"x_min":119,"x_max":1063,"o":"m 1063 256 l 974 0 l 119 0 l 119 99 l 161 99 q 198 115 183 99 q 214 153 214 131 l 214 1236 q 198 1274 214 1258 q 161 1290 183 1290 l 119 1290 l 119 1389 l 548 1389 l 548 1290 l 506 1290 q 468 1274 484 1290 q 452 1236 452 1258 l 452 206 q 643 119 502 125 l 716 117 q 861 152 800 117 q 958 290 923 187 l 1063 256 m 437 1522 l 692 1726 l 768 1623 l 482 1456 l 437 1522 z "},"Ľ":{"ha":1133,"x_min":119,"x_max":1063,"o":"m 1063 256 l 974 0 l 119 0 l 119 99 l 161 99 q 198 115 183 99 q 214 153 214 131 l 214 1236 q 198 1274 214 1258 q 161 1290 183 1290 l 119 1290 l 119 1389 l 548 1389 l 548 1290 l 506 1290 q 468 1274 484 1290 q 452 1236 452 1258 l 452 206 q 643 119 502 125 l 716 117 q 861 152 800 117 q 958 290 923 187 l 1063 256 m 802 1173 q 831 1262 831 1222 q 791 1291 808 1270 q 774 1337 774 1312 q 797 1392 774 1369 q 849 1415 819 1415 q 906 1387 883 1415 q 929 1325 929 1359 q 908 1246 929 1282 q 857 1190 887 1210 q 802 1173 827 1171 z "},"Ļ":{"ha":1133,"x_min":119,"x_max":1063,"o":"m 1063 256 l 974 0 l 119 0 l 119 99 l 161 99 q 198 115 183 99 q 214 153 214 131 l 214 1236 q 198 1274 214 1258 q 161 1290 183 1290 l 119 1290 l 119 1389 l 548 1389 l 548 1290 l 506 1290 q 468 1274 484 1290 q 452 1236 452 1258 l 452 206 q 643 119 502 125 l 716 117 q 861 152 800 117 q 958 290 923 187 l 1063 256 m 506 -325 q 536 -236 536 -276 q 495 -207 512 -228 q 478 -161 478 -187 q 501 -106 478 -129 q 554 -83 524 -83 q 610 -111 587 -83 q 633 -173 633 -139 q 612 -252 633 -216 q 562 -308 591 -288 q 506 -325 532 -327 z "},"Ł":{"ha":1143,"x_min":119,"x_max":1073,"o":"m 1073 256 l 984 0 l 129 0 l 129 99 l 171 99 q 208 115 192 99 q 224 153 224 131 l 224 633 l 119 585 l 119 746 l 224 794 l 224 1236 q 208 1274 224 1258 q 171 1290 192 1290 l 129 1290 l 129 1389 l 558 1389 l 558 1290 l 516 1290 q 478 1274 494 1290 q 462 1236 462 1258 l 462 899 l 569 946 l 569 786 l 462 738 l 462 206 q 653 119 512 125 l 726 117 q 871 152 810 117 q 968 290 933 187 l 1073 256 z "},"M":{"ha":1563,"x_min":119,"x_max":1444,"o":"m 1399 1286 q 1361 1271 1377 1286 q 1345 1234 1345 1256 l 1345 153 q 1361 115 1345 131 q 1399 99 1377 99 l 1440 99 l 1440 0 l 1012 0 l 1012 99 l 1054 99 q 1091 115 1075 99 q 1107 153 1107 131 l 1107 851 l 742 -48 l 736 -48 l 345 865 l 345 145 q 360 112 345 125 q 399 99 375 99 l 440 99 l 440 0 l 119 0 l 119 99 l 161 99 q 197 112 183 99 q 212 145 212 125 l 212 1234 q 197 1278 212 1270 q 139 1286 183 1286 l 139 1385 l 381 1385 l 798 431 l 1190 1385 l 1444 1385 l 1444 1286 l 1399 1286 z "},"N":{"ha":1359,"x_min":119,"x_max":1250,"o":"m 1250 1389 l 1250 1290 l 1228 1290 q 1190 1274 1206 1290 q 1175 1236 1175 1258 l 1175 -95 l 1169 -95 l 345 998 l 345 149 q 360 116 345 129 q 399 103 375 103 l 440 103 l 440 4 l 119 4 l 119 103 l 161 103 q 197 116 183 103 q 212 149 212 129 l 212 1236 q 193 1281 212 1272 q 129 1290 175 1290 l 129 1389 l 361 1389 l 1052 484 l 1052 1236 q 1036 1274 1052 1258 q 998 1290 1020 1290 l 956 1290 l 956 1389 l 1250 1389 z "},"Ń":{"ha":1359,"x_min":119,"x_max":1250,"o":"m 1250 1389 l 1250 1290 l 1228 1290 q 1190 1274 1206 1290 q 1175 1236 1175 1258 l 1175 -95 l 1169 -95 l 345 998 l 345 149 q 360 116 345 129 q 399 103 375 103 l 440 103 l 440 4 l 119 4 l 119 103 l 161 103 q 197 116 183 103 q 212 149 212 129 l 212 1236 q 193 1281 212 1272 q 129 1290 175 1290 l 129 1389 l 361 1389 l 1052 484 l 1052 1236 q 1036 1274 1052 1258 q 998 1290 1020 1290 l 956 1290 l 956 1389 l 1250 1389 m 518 1522 l 774 1726 l 849 1623 l 563 1456 l 518 1522 z "},"Ň":{"ha":1359,"x_min":119,"x_max":1250,"o":"m 1250 1389 l 1250 1290 l 1228 1290 q 1190 1274 1206 1290 q 1175 1236 1175 1258 l 1175 -95 l 1169 -95 l 345 998 l 345 149 q 360 116 345 129 q 399 103 375 103 l 440 103 l 440 4 l 119 4 l 119 103 l 161 103 q 197 116 183 103 q 212 149 212 129 l 212 1236 q 193 1281 212 1272 q 129 1290 175 1290 l 129 1389 l 361 1389 l 1052 484 l 1052 1236 q 1036 1274 1052 1258 q 998 1290 1020 1290 l 956 1290 l 956 1389 l 1250 1389 m 683 1593 l 905 1665 l 905 1587 l 683 1454 l 462 1587 l 462 1665 l 683 1593 z "},"Ņ":{"ha":1359,"x_min":119,"x_max":1250,"o":"m 1250 1389 l 1250 1290 l 1228 1290 q 1190 1274 1206 1290 q 1175 1236 1175 1258 l 1175 -95 l 1169 -95 l 345 998 l 345 149 q 360 116 345 129 q 399 103 375 103 l 440 103 l 440 4 l 119 4 l 119 103 l 161 103 q 197 116 183 103 q 212 149 212 129 l 212 1236 q 193 1281 212 1272 q 129 1290 175 1290 l 129 1389 l 361 1389 l 1052 484 l 1052 1236 q 1036 1274 1052 1258 q 998 1290 1020 1290 l 956 1290 l 956 1389 l 1250 1389 m 671 -325 q 700 -236 700 -276 q 660 -207 677 -228 q 643 -161 643 -187 q 666 -106 643 -129 q 718 -83 688 -83 q 775 -111 752 -83 q 798 -173 798 -139 q 777 -252 798 -216 q 726 -308 756 -288 q 671 -325 696 -327 z "},"Ñ":{"ha":1359,"x_min":119,"x_max":1250,"o":"m 1250 1389 l 1250 1290 l 1228 1290 q 1190 1274 1206 1290 q 1175 1236 1175 1258 l 1175 -95 l 1169 -95 l 345 998 l 345 149 q 360 116 345 129 q 399 103 375 103 l 440 103 l 440 4 l 119 4 l 119 103 l 161 103 q 197 116 183 103 q 212 149 212 129 l 212 1236 q 193 1281 212 1272 q 129 1290 175 1290 l 129 1389 l 361 1389 l 1052 484 l 1052 1236 q 1036 1274 1052 1258 q 998 1290 1020 1290 l 956 1290 l 956 1389 l 1250 1389 m 458 1552 q 508 1605 472 1587 q 591 1623 544 1623 q 700 1603 641 1623 q 812 1579 768 1579 q 899 1617 869 1579 l 911 1540 q 853 1486 893 1504 q 764 1468 813 1468 q 665 1488 710 1468 q 558 1514 611 1514 q 468 1478 498 1514 l 458 1552 z "},"O":{"ha":1276,"x_min":69,"x_max":1206,"o":"m 639 -36 q 347 44 476 -36 q 144 287 218 123 q 69 694 69 450 q 144 1102 69 938 q 347 1345 218 1266 q 639 1425 476 1425 q 930 1345 802 1425 q 1132 1102 1058 1266 q 1206 694 1206 938 q 1132 287 1206 450 q 930 44 1058 123 q 639 -36 802 -36 m 639 95 q 885 245 790 95 q 980 694 980 395 q 885 1144 980 994 q 639 1294 790 1294 q 391 1144 486 1294 q 296 694 296 994 q 391 245 296 395 q 639 95 486 95 z "},"Ó":{"ha":1276,"x_min":69,"x_max":1206,"o":"m 639 -36 q 347 44 476 -36 q 144 287 218 123 q 69 694 69 450 q 144 1102 69 938 q 347 1345 218 1266 q 639 1425 476 1425 q 930 1345 802 1425 q 1132 1102 1058 1266 q 1206 694 1206 938 q 1132 287 1206 450 q 930 44 1058 123 q 639 -36 802 -36 m 639 95 q 885 245 790 95 q 980 694 980 395 q 885 1144 980 994 q 639 1294 790 1294 q 391 1144 486 1294 q 296 694 296 994 q 391 245 296 395 q 639 95 486 95 m 472 1548 l 728 1752 l 804 1649 l 518 1482 l 472 1548 z "},"Ǒ":{"ha":1276,"x_min":69,"x_max":1206,"o":"m 639 -36 q 347 44 476 -36 q 144 287 218 123 q 69 694 69 450 q 144 1102 69 938 q 347 1345 218 1266 q 639 1425 476 1425 q 930 1345 802 1425 q 1132 1102 1058 1266 q 1206 694 1206 938 q 1132 287 1206 450 q 930 44 1058 123 q 639 -36 802 -36 m 639 95 q 885 245 790 95 q 980 694 980 395 q 885 1144 980 994 q 639 1294 790 1294 q 391 1144 486 1294 q 296 694 296 994 q 391 245 296 395 q 639 95 486 95 m 637 1619 l 859 1690 l 859 1613 l 637 1480 l 417 1613 l 417 1690 l 637 1619 z "},"Ô":{"ha":1276,"x_min":69,"x_max":1206,"o":"m 639 -36 q 347 44 476 -36 q 144 287 218 123 q 69 694 69 450 q 144 1102 69 938 q 347 1345 218 1266 q 639 1425 476 1425 q 930 1345 802 1425 q 1132 1102 1058 1266 q 1206 694 1206 938 q 1132 287 1206 450 q 930 44 1058 123 q 639 -36 802 -36 m 639 95 q 885 245 790 95 q 980 694 980 395 q 885 1144 980 994 q 639 1294 790 1294 q 391 1144 486 1294 q 296 694 296 994 q 391 245 296 395 q 639 95 486 95 m 417 1569 l 637 1702 l 859 1569 l 859 1492 l 637 1563 l 417 1492 l 417 1569 z "},"Ố":{"ha":1276,"x_min":69,"x_max":1206,"o":"m 639 -36 q 347 44 476 -36 q 144 287 218 123 q 69 694 69 450 q 144 1102 69 938 q 347 1345 218 1266 q 639 1425 476 1425 q 930 1345 802 1425 q 1132 1102 1058 1266 q 1206 694 1206 938 q 1132 287 1206 450 q 930 44 1058 123 q 639 -36 802 -36 m 639 95 q 885 245 790 95 q 980 694 980 395 q 885 1144 980 994 q 639 1294 790 1294 q 391 1144 486 1294 q 296 694 296 994 q 391 245 296 395 q 639 95 486 95 z "},"Ộ":{"ha":1276,"x_min":69,"x_max":1206,"o":"m 639 -36 q 347 44 476 -36 q 144 287 218 123 q 69 694 69 450 q 144 1102 69 938 q 347 1345 218 1266 q 639 1425 476 1425 q 930 1345 802 1425 q 1132 1102 1058 1266 q 1206 694 1206 938 q 1132 287 1206 450 q 930 44 1058 123 q 639 -36 802 -36 m 639 95 q 885 245 790 95 q 980 694 980 395 q 885 1144 980 994 q 639 1294 790 1294 q 391 1144 486 1294 q 296 694 296 994 q 391 245 296 395 q 639 95 486 95 m 639 -274 q 581 -249 605 -274 q 558 -190 558 -224 q 581 -134 558 -159 q 639 -109 605 -109 q 695 -134 671 -109 q 720 -190 720 -159 q 696 -249 720 -224 q 639 -274 673 -274 m 417 1569 l 637 1702 l 859 1569 l 859 1492 l 637 1563 l 417 1492 l 417 1569 z "},"Ồ":{"ha":1276,"x_min":69,"x_max":1206,"o":"m 639 -36 q 347 44 476 -36 q 144 287 218 123 q 69 694 69 450 q 144 1102 69 938 q 347 1345 218 1266 q 639 1425 476 1425 q 930 1345 802 1425 q 1132 1102 1058 1266 q 1206 694 1206 938 q 1132 287 1206 450 q 930 44 1058 123 q 639 -36 802 -36 m 639 95 q 885 245 790 95 q 980 694 980 395 q 885 1144 980 994 q 639 1294 790 1294 q 391 1144 486 1294 q 296 694 296 994 q 391 245 296 395 q 639 95 486 95 m 633 1815 l 716 1913 l 956 1690 l 907 1629 l 633 1815 m 417 1569 l 637 1702 l 859 1569 l 859 1492 l 637 1563 l 417 1492 l 417 1569 z "},"Ổ":{"ha":1276,"x_min":69,"x_max":1206,"o":"m 639 -36 q 347 44 476 -36 q 144 287 218 123 q 69 694 69 450 q 144 1102 69 938 q 347 1345 218 1266 q 639 1425 476 1425 q 930 1345 802 1425 q 1132 1102 1058 1266 q 1206 694 1206 938 q 1132 287 1206 450 q 930 44 1058 123 q 639 -36 802 -36 m 639 95 q 885 245 790 95 q 980 694 980 395 q 885 1144 980 994 q 639 1294 790 1294 q 391 1144 486 1294 q 296 694 296 994 q 391 245 296 395 q 639 95 486 95 z "},"Ỗ":{"ha":1276,"x_min":69,"x_max":1206,"o":"m 639 -36 q 347 44 476 -36 q 144 287 218 123 q 69 694 69 450 q 144 1102 69 938 q 347 1345 218 1266 q 639 1425 476 1425 q 930 1345 802 1425 q 1132 1102 1058 1266 q 1206 694 1206 938 q 1132 287 1206 450 q 930 44 1058 123 q 639 -36 802 -36 m 639 95 q 885 245 790 95 q 980 694 980 395 q 885 1144 980 994 q 639 1294 790 1294 q 391 1144 486 1294 q 296 694 296 994 q 391 245 296 395 q 639 95 486 95 z "},"Ö":{"ha":1276,"x_min":69,"x_max":1206,"o":"m 639 -36 q 347 44 476 -36 q 144 287 218 123 q 69 694 69 450 q 144 1102 69 938 q 347 1345 218 1266 q 639 1425 476 1425 q 930 1345 802 1425 q 1132 1102 1058 1266 q 1206 694 1206 938 q 1132 287 1206 450 q 930 44 1058 123 q 639 -36 802 -36 m 639 95 q 885 245 790 95 q 980 694 980 395 q 885 1144 980 994 q 639 1294 790 1294 q 391 1144 486 1294 q 296 694 296 994 q 391 245 296 395 q 639 95 486 95 m 480 1496 q 423 1521 446 1496 q 399 1579 399 1546 q 423 1637 399 1613 q 480 1661 446 1661 q 537 1637 512 1661 q 562 1579 562 1613 q 538 1521 562 1546 q 480 1496 514 1496 m 798 1496 q 740 1521 764 1496 q 716 1579 716 1546 q 740 1637 716 1613 q 798 1661 764 1661 q 854 1637 829 1661 q 879 1579 879 1613 q 855 1521 879 1546 q 798 1496 831 1496 z "},"Ọ":{"ha":1276,"x_min":69,"x_max":1206,"o":"m 639 -36 q 347 44 476 -36 q 144 287 218 123 q 69 694 69 450 q 144 1102 69 938 q 347 1345 218 1266 q 639 1425 476 1425 q 930 1345 802 1425 q 1132 1102 1058 1266 q 1206 694 1206 938 q 1132 287 1206 450 q 930 44 1058 123 q 639 -36 802 -36 m 639 95 q 885 245 790 95 q 980 694 980 395 q 885 1144 980 994 q 639 1294 790 1294 q 391 1144 486 1294 q 296 694 296 994 q 391 245 296 395 q 639 95 486 95 m 639 -274 q 581 -249 605 -274 q 558 -190 558 -224 q 581 -134 558 -159 q 639 -109 605 -109 q 695 -134 671 -109 q 720 -190 720 -159 q 696 -249 720 -224 q 639 -274 673 -274 z "},"Ò":{"ha":1276,"x_min":69,"x_max":1206,"o":"m 639 -36 q 347 44 476 -36 q 144 287 218 123 q 69 694 69 450 q 144 1102 69 938 q 347 1345 218 1266 q 639 1425 476 1425 q 930 1345 802 1425 q 1132 1102 1058 1266 q 1206 694 1206 938 q 1132 287 1206 450 q 930 44 1058 123 q 639 -36 802 -36 m 639 95 q 885 245 790 95 q 980 694 980 395 q 885 1144 980 994 q 639 1294 790 1294 q 391 1144 486 1294 q 296 694 296 994 q 391 245 296 395 q 639 95 486 95 m 472 1649 l 548 1752 l 804 1548 l 758 1482 l 472 1649 z "},"Ỏ":{"ha":1276,"x_min":69,"x_max":1206,"o":"m 639 -36 q 347 44 476 -36 q 144 287 218 123 q 69 694 69 450 q 144 1102 69 938 q 347 1345 218 1266 q 639 1425 476 1425 q 930 1345 802 1425 q 1132 1102 1058 1266 q 1206 694 1206 938 q 1132 287 1206 450 q 930 44 1058 123 q 639 -36 802 -36 m 639 95 q 885 245 790 95 q 980 694 980 395 q 885 1144 980 994 q 639 1294 790 1294 q 391 1144 486 1294 q 296 694 296 994 q 391 245 296 395 q 639 95 486 95 m 591 1494 q 651 1603 591 1554 q 681 1655 681 1629 q 666 1691 681 1679 q 629 1704 651 1704 q 567 1671 589 1704 l 524 1734 q 577 1787 544 1768 q 649 1806 611 1806 q 748 1766 708 1806 q 788 1669 788 1726 q 768 1598 788 1631 q 708 1546 748 1565 q 683 1524 694 1538 q 671 1494 671 1510 l 591 1494 z "},"Ơ":{"ha":1276,"x_min":69,"x_max":1206,"o":"m 1036 1254 q 1206 694 1206 1062 q 1132 287 1206 450 q 930 44 1058 123 q 639 -36 802 -36 q 347 44 476 -36 q 144 287 218 123 q 69 694 69 450 q 144 1102 69 938 q 347 1345 218 1266 q 639 1425 476 1425 q 986 1304 845 1425 q 1026 1325 1012 1312 q 1020 1357 1020 1341 q 1046 1419 1020 1395 q 1095 1437 1067 1437 q 1155 1409 1133 1437 q 1171 1363 1171 1391 q 1133 1290 1171 1317 q 1036 1254 1089 1254 m 639 95 q 885 245 790 95 q 980 694 980 395 q 885 1144 980 994 q 639 1294 790 1294 q 391 1144 486 1294 q 296 694 296 994 q 391 245 296 395 q 639 95 486 95 z "},"Ớ":{"ha":1276,"x_min":69,"x_max":1206,"o":"m 1036 1254 q 1206 694 1206 1062 q 1132 287 1206 450 q 930 44 1058 123 q 639 -36 802 -36 q 347 44 476 -36 q 144 287 218 123 q 69 694 69 450 q 144 1102 69 938 q 347 1345 218 1266 q 639 1425 476 1425 q 986 1304 845 1425 q 1026 1325 1012 1312 q 1020 1357 1020 1341 q 1046 1419 1020 1395 q 1095 1437 1067 1437 q 1155 1409 1133 1437 q 1171 1363 1171 1391 q 1133 1290 1171 1317 q 1036 1254 1089 1254 m 639 95 q 885 245 790 95 q 980 694 980 395 q 885 1144 980 994 q 639 1294 790 1294 q 391 1144 486 1294 q 296 694 296 994 q 391 245 296 395 q 639 95 486 95 m 472 1548 l 728 1752 l 804 1649 l 518 1482 l 472 1548 z "},"Ợ":{"ha":1276,"x_min":69,"x_max":1206,"o":"m 1036 1254 q 1206 694 1206 1062 q 1132 287 1206 450 q 930 44 1058 123 q 639 -36 802 -36 q 347 44 476 -36 q 144 287 218 123 q 69 694 69 450 q 144 1102 69 938 q 347 1345 218 1266 q 639 1425 476 1425 q 986 1304 845 1425 q 1026 1325 1012 1312 q 1020 1357 1020 1341 q 1046 1419 1020 1395 q 1095 1437 1067 1437 q 1155 1409 1133 1437 q 1171 1363 1171 1391 q 1133 1290 1171 1317 q 1036 1254 1089 1254 m 639 95 q 885 245 790 95 q 980 694 980 395 q 885 1144 980 994 q 639 1294 790 1294 q 391 1144 486 1294 q 296 694 296 994 q 391 245 296 395 q 639 95 486 95 m 639 -274 q 581 -249 605 -274 q 558 -190 558 -224 q 581 -134 558 -159 q 639 -109 605 -109 q 695 -134 671 -109 q 720 -190 720 -159 q 696 -249 720 -224 q 639 -274 673 -274 z "},"Ờ":{"ha":1276,"x_min":69,"x_max":1206,"o":"m 1036 1254 q 1206 694 1206 1062 q 1132 287 1206 450 q 930 44 1058 123 q 639 -36 802 -36 q 347 44 476 -36 q 144 287 218 123 q 69 694 69 450 q 144 1102 69 938 q 347 1345 218 1266 q 639 1425 476 1425 q 986 1304 845 1425 q 1026 1325 1012 1312 q 1020 1357 1020 1341 q 1046 1419 1020 1395 q 1095 1437 1067 1437 q 1155 1409 1133 1437 q 1171 1363 1171 1391 q 1133 1290 1171 1317 q 1036 1254 1089 1254 m 639 95 q 885 245 790 95 q 980 694 980 395 q 885 1144 980 994 q 639 1294 790 1294 q 391 1144 486 1294 q 296 694 296 994 q 391 245 296 395 q 639 95 486 95 m 472 1649 l 548 1752 l 804 1548 l 758 1482 l 472 1649 z "},"Ở":{"ha":1276,"x_min":69,"x_max":1206,"o":"m 1036 1254 q 1206 694 1206 1062 q 1132 287 1206 450 q 930 44 1058 123 q 639 -36 802 -36 q 347 44 476 -36 q 144 287 218 123 q 69 694 69 450 q 144 1102 69 938 q 347 1345 218 1266 q 639 1425 476 1425 q 986 1304 845 1425 q 1026 1325 1012 1312 q 1020 1357 1020 1341 q 1046 1419 1020 1395 q 1095 1437 1067 1437 q 1155 1409 1133 1437 q 1171 1363 1171 1391 q 1133 1290 1171 1317 q 1036 1254 1089 1254 m 639 95 q 885 245 790 95 q 980 694 980 395 q 885 1144 980 994 q 639 1294 790 1294 q 391 1144 486 1294 q 296 694 296 994 q 391 245 296 395 q 639 95 486 95 m 591 1494 q 651 1603 591 1554 q 681 1655 681 1629 q 666 1691 681 1679 q 629 1704 651 1704 q 567 1671 589 1704 l 524 1734 q 577 1787 544 1768 q 649 1806 611 1806 q 748 1766 708 1806 q 788 1669 788 1726 q 768 1598 788 1631 q 708 1546 748 1565 q 683 1524 694 1538 q 671 1494 671 1510 l 591 1494 z "},"Ỡ":{"ha":1276,"x_min":69,"x_max":1206,"o":"m 619 1514 q 516 1540 565 1540 q 431 1504 460 1540 l 421 1577 q 469 1631 435 1613 q 550 1649 504 1649 q 653 1629 597 1649 q 760 1605 720 1605 q 843 1643 817 1605 l 855 1565 q 802 1512 839 1530 q 716 1494 764 1494 q 619 1514 665 1494 m 1036 1254 q 1206 694 1206 1062 q 1132 287 1206 450 q 930 44 1058 123 q 639 -36 802 -36 q 347 44 476 -36 q 144 287 218 123 q 69 694 69 450 q 144 1102 69 938 q 347 1345 218 1266 q 639 1425 476 1425 q 986 1304 845 1425 q 1026 1325 1012 1312 q 1020 1357 1020 1341 q 1046 1419 1020 1395 q 1095 1437 1067 1437 q 1155 1409 1133 1437 q 1171 1363 1171 1391 q 1133 1290 1171 1317 q 1036 1254 1089 1254 m 639 95 q 885 245 790 95 q 980 694 980 395 q 885 1144 980 994 q 639 1294 790 1294 q 391 1144 486 1294 q 296 694 296 994 q 391 245 296 395 q 639 95 486 95 z "},"Ő":{"ha":1276,"x_min":69,"x_max":1206,"o":"m 639 -36 q 347 44 476 -36 q 144 287 218 123 q 69 694 69 450 q 144 1102 69 938 q 347 1345 218 1266 q 639 1425 476 1425 q 930 1345 802 1425 q 1132 1102 1058 1266 q 1206 694 1206 938 q 1132 287 1206 450 q 930 44 1058 123 q 639 -36 802 -36 m 639 95 q 885 245 790 95 q 980 694 980 395 q 885 1144 980 994 q 639 1294 790 1294 q 391 1144 486 1294 q 296 694 296 994 q 391 245 296 395 q 639 95 486 95 z "},"Ō":{"ha":1276,"x_min":69,"x_max":1206,"o":"m 639 -36 q 347 44 476 -36 q 144 287 218 123 q 69 694 69 450 q 144 1102 69 938 q 347 1345 218 1266 q 639 1425 476 1425 q 930 1345 802 1425 q 1132 1102 1058 1266 q 1206 694 1206 938 q 1132 287 1206 450 q 930 44 1058 123 q 639 -36 802 -36 m 639 95 q 885 245 790 95 q 980 694 980 395 q 885 1144 980 994 q 639 1294 790 1294 q 391 1144 486 1294 q 296 694 296 994 q 391 245 296 395 q 639 95 486 95 m 415 1631 l 865 1631 l 865 1512 l 415 1512 l 415 1631 z "},"Ø":{"ha":1276,"x_min":69,"x_max":1206,"o":"m 994 1296 q 1151 1055 1095 1206 q 1206 694 1206 903 q 1132 287 1206 450 q 930 44 1058 123 q 639 -36 802 -36 q 421 6 522 -36 l 401 -42 l 226 -42 l 286 89 q 126 331 183 181 q 69 694 69 482 q 144 1102 69 938 q 347 1345 218 1266 q 639 1425 476 1425 q 859 1383 758 1425 l 877 1425 l 1052 1425 l 994 1296 m 296 694 q 371 284 296 435 l 796 1242 q 639 1294 730 1294 q 391 1144 486 1294 q 296 694 296 994 m 639 95 q 885 245 790 95 q 980 694 980 395 q 909 1101 980 942 l 482 143 q 639 95 554 95 z "},"Õ":{"ha":1276,"x_min":69,"x_max":1206,"o":"m 639 -36 q 347 44 476 -36 q 144 287 218 123 q 69 694 69 450 q 144 1102 69 938 q 347 1345 218 1266 q 639 1425 476 1425 q 930 1345 802 1425 q 1132 1102 1058 1266 q 1206 694 1206 938 q 1132 287 1206 450 q 930 44 1058 123 q 639 -36 802 -36 m 639 95 q 885 245 790 95 q 980 694 980 395 q 885 1144 980 994 q 639 1294 790 1294 q 391 1144 486 1294 q 296 694 296 994 q 391 245 296 395 q 639 95 486 95 m 413 1577 q 462 1631 427 1613 q 546 1649 498 1649 q 655 1629 595 1649 q 766 1605 722 1605 q 853 1643 823 1605 l 865 1565 q 808 1512 847 1530 q 718 1494 768 1494 q 619 1514 665 1494 q 512 1540 565 1540 q 423 1504 452 1540 l 413 1577 z "},"Œ":{"ha":1980,"x_min":69,"x_max":1881,"o":"m 1881 298 l 1782 0 l 1014 0 l 1014 111 q 844 1 940 38 q 639 -36 748 -36 q 347 44 476 -36 q 144 287 218 123 q 69 694 69 450 q 144 1102 69 938 q 347 1345 218 1266 q 639 1425 476 1425 q 844 1388 748 1425 q 1014 1278 940 1351 l 1014 1387 l 1760 1387 l 1760 1127 l 1651 1127 l 1651 1173 q 1560 1266 1651 1266 l 1250 1266 l 1250 794 l 1484 794 q 1514 807 1502 794 q 1526 835 1526 819 l 1526 907 l 1631 907 l 1631 556 l 1526 556 l 1526 631 q 1514 661 1526 649 q 1484 673 1502 673 l 1250 673 l 1250 188 q 1355 142 1292 157 q 1516 127 1419 127 q 1680 166 1609 127 q 1790 321 1750 204 l 1881 298 m 639 95 q 885 245 790 95 q 980 694 980 395 q 885 1144 980 994 q 639 1294 790 1294 q 391 1144 486 1294 q 296 694 296 994 q 391 245 296 395 q 639 95 486 95 z "},"P":{"ha":1083,"x_min":119,"x_max":1004,"o":"m 1004 998 q 953 792 1004 887 q 814 641 903 696 q 615 585 726 585 q 454 625 538 585 l 454 153 q 470 115 454 131 q 508 99 486 99 l 550 99 l 550 0 l 119 0 l 119 99 l 161 99 q 198 115 183 99 q 214 153 214 131 l 214 1236 q 198 1274 214 1258 q 161 1290 183 1290 l 119 1290 l 119 1389 l 643 1389 q 823 1340 740 1389 q 955 1202 907 1292 q 1004 998 1004 1113 m 454 746 q 563 718 510 718 q 722 788 657 718 q 788 968 788 857 q 784 1020 788 984 q 701 1194 766 1151 q 532 1238 637 1238 l 454 1238 l 454 746 z "},"Q":{"ha":1315,"x_min":69,"x_max":1248,"o":"m 1248 69 q 1169 -40 1224 6 q 1028 -85 1113 -85 q 859 -10 925 -85 q 657 -38 770 -38 q 232 133 395 -38 q 69 692 69 304 q 232 1252 69 1081 q 657 1423 395 1423 q 1081 1252 919 1423 q 1244 692 1244 1081 q 1042 91 1244 274 q 1105 65 1075 65 q 1142 78 1125 65 q 1177 115 1159 91 l 1248 69 m 294 692 q 343 357 294 492 q 475 158 393 222 q 657 93 558 93 q 770 117 716 93 q 651 181 714 181 q 621 177 641 181 q 650 252 615 216 q 742 288 685 288 q 901 224 815 288 q 1020 692 1020 387 q 970 1028 1020 893 q 838 1227 921 1163 q 657 1292 756 1292 q 475 1227 558 1292 q 343 1028 393 1163 q 294 692 294 893 z "},"R":{"ha":1234,"x_min":119,"x_max":1175,"o":"m 1129 119 q 1175 71 1133 111 q 1125 -5 1161 26 q 1032 -36 1089 -36 q 877 22 938 -36 q 766 177 815 79 q 679 360 734 236 q 583 577 623 484 q 454 595 520 577 l 454 151 q 470 114 454 129 q 508 99 486 99 l 550 99 l 550 0 l 119 0 l 119 99 l 163 99 q 199 115 185 99 q 214 151 214 131 l 214 1236 q 199 1274 214 1258 q 163 1290 185 1290 l 119 1290 l 119 1389 l 623 1389 q 808 1339 722 1389 q 943 1199 893 1290 q 994 992 994 1109 q 945 796 994 887 q 812 647 897 704 l 829 579 q 903 327 891 363 q 958 188 935 232 q 1016 117 982 143 q 1067 103 1032 103 q 1129 119 1107 103 m 454 754 q 552 732 508 732 q 704 806 643 732 q 766 996 766 879 q 681 1187 766 1127 q 474 1246 595 1246 l 454 1246 l 454 754 z "},"Ŕ":{"ha":1234,"x_min":119,"x_max":1175,"o":"m 1129 119 q 1175 71 1133 111 q 1125 -5 1161 26 q 1032 -36 1089 -36 q 877 22 938 -36 q 766 177 815 79 q 679 360 734 236 q 583 577 623 484 q 454 595 520 577 l 454 151 q 470 114 454 129 q 508 99 486 99 l 550 99 l 550 0 l 119 0 l 119 99 l 163 99 q 199 115 185 99 q 214 151 214 131 l 214 1236 q 199 1274 214 1258 q 163 1290 185 1290 l 119 1290 l 119 1389 l 623 1389 q 808 1339 722 1389 q 943 1199 893 1290 q 994 992 994 1109 q 945 796 994 887 q 812 647 897 704 l 829 579 q 903 327 891 363 q 958 188 935 232 q 1016 117 982 143 q 1067 103 1032 103 q 1129 119 1107 103 m 454 754 q 552 732 508 732 q 704 806 643 732 q 766 996 766 879 q 681 1187 766 1127 q 474 1246 595 1246 l 454 1246 l 454 754 m 446 1522 l 702 1726 l 778 1623 l 492 1456 l 446 1522 z "},"Ř":{"ha":1234,"x_min":119,"x_max":1175,"o":"m 1129 119 q 1175 71 1133 111 q 1125 -5 1161 26 q 1032 -36 1089 -36 q 877 22 938 -36 q 766 177 815 79 q 679 360 734 236 q 583 577 623 484 q 454 595 520 577 l 454 151 q 470 114 454 129 q 508 99 486 99 l 550 99 l 550 0 l 119 0 l 119 99 l 163 99 q 199 115 185 99 q 214 151 214 131 l 214 1236 q 199 1274 214 1258 q 163 1290 185 1290 l 119 1290 l 119 1389 l 623 1389 q 808 1339 722 1389 q 943 1199 893 1290 q 994 992 994 1109 q 945 796 994 887 q 812 647 897 704 l 829 579 q 903 327 891 363 q 958 188 935 232 q 1016 117 982 143 q 1067 103 1032 103 q 1129 119 1107 103 m 454 754 q 552 732 508 732 q 704 806 643 732 q 766 996 766 879 q 681 1187 766 1127 q 474 1246 595 1246 l 454 1246 l 454 754 m 611 1593 l 833 1665 l 833 1587 l 611 1454 l 391 1587 l 391 1665 l 611 1593 z "},"Ŗ":{"ha":1234,"x_min":119,"x_max":1175,"o":"m 1129 119 q 1175 71 1133 111 q 1125 -5 1161 26 q 1032 -36 1089 -36 q 877 22 938 -36 q 766 177 815 79 q 679 360 734 236 q 583 577 623 484 q 454 595 520 577 l 454 151 q 470 114 454 129 q 508 99 486 99 l 550 99 l 550 0 l 119 0 l 119 99 l 163 99 q 199 115 185 99 q 214 151 214 131 l 214 1236 q 199 1274 214 1258 q 163 1290 185 1290 l 119 1290 l 119 1389 l 623 1389 q 808 1339 722 1389 q 943 1199 893 1290 q 994 992 994 1109 q 945 796 994 887 q 812 647 897 704 l 829 579 q 903 327 891 363 q 958 188 935 232 q 1016 117 982 143 q 1067 103 1032 103 q 1129 119 1107 103 m 454 754 q 552 732 508 732 q 704 806 643 732 q 766 996 766 879 q 681 1187 766 1127 q 474 1246 595 1246 l 454 1246 l 454 754 m 577 -325 q 607 -236 607 -276 q 566 -207 583 -228 q 550 -161 550 -187 q 572 -106 550 -129 q 625 -83 595 -83 q 682 -111 659 -83 q 704 -173 704 -139 q 684 -252 704 -216 q 633 -308 663 -288 q 577 -325 603 -327 z "},"S":{"ha":1044,"x_min":109,"x_max":944,"o":"m 550 -32 q 440 -22 480 -32 q 369 1 401 -12 q 321 20 337 14 q 278 30 296 30 q 222 -20 232 30 l 109 -20 l 109 399 l 228 399 q 284 184 228 260 q 460 91 339 107 l 484 89 q 588 114 538 89 q 672 186 639 139 q 704 296 704 232 q 651 466 704 391 q 466 665 597 542 q 377 746 407 720 q 246 872 288 827 q 182 969 204 917 q 159 1093 159 1022 q 212 1283 159 1208 q 342 1391 266 1357 q 488 1425 419 1425 q 574 1416 540 1425 q 655 1389 609 1407 l 694 1375 q 720 1371 702 1371 q 755 1380 740 1371 q 776 1405 770 1389 l 855 1405 l 855 1069 l 762 1069 q 711 1242 762 1169 q 534 1315 661 1315 q 425 1269 468 1315 q 381 1159 381 1222 q 385 1119 381 1133 q 411 1060 393 1087 q 476 984 429 1032 q 631 835 524 937 l 710 766 q 838 643 794 692 q 914 526 883 593 q 944 369 944 458 q 938 294 944 335 q 872 135 929 210 q 730 14 815 60 q 550 -32 645 -32 z "},"Ś":{"ha":1044,"x_min":109,"x_max":944,"o":"m 550 -32 q 440 -22 480 -32 q 369 1 401 -12 q 321 20 337 14 q 278 30 296 30 q 222 -20 232 30 l 109 -20 l 109 399 l 228 399 q 284 184 228 260 q 460 91 339 107 l 484 89 q 588 114 538 89 q 672 186 639 139 q 704 296 704 232 q 651 466 704 391 q 466 665 597 542 q 377 746 407 720 q 246 872 288 827 q 182 969 204 917 q 159 1093 159 1022 q 212 1283 159 1208 q 342 1391 266 1357 q 488 1425 419 1425 q 574 1416 540 1425 q 655 1389 609 1407 l 694 1375 q 720 1371 702 1371 q 755 1380 740 1371 q 776 1405 770 1389 l 855 1405 l 855 1069 l 762 1069 q 711 1242 762 1169 q 534 1315 661 1315 q 425 1269 468 1315 q 381 1159 381 1222 q 385 1119 381 1133 q 411 1060 393 1087 q 476 984 429 1032 q 631 835 524 937 l 710 766 q 838 643 794 692 q 914 526 883 593 q 944 369 944 458 q 938 294 944 335 q 872 135 929 210 q 730 14 815 60 q 550 -32 645 -32 m 367 1546 l 623 1750 l 698 1647 l 413 1480 l 367 1546 z "},"Š":{"ha":1044,"x_min":109,"x_max":944,"o":"m 550 -32 q 440 -22 480 -32 q 369 1 401 -12 q 321 20 337 14 q 278 30 296 30 q 222 -20 232 30 l 109 -20 l 109 399 l 228 399 q 284 184 228 260 q 460 91 339 107 l 484 89 q 588 114 538 89 q 672 186 639 139 q 704 296 704 232 q 651 466 704 391 q 466 665 597 542 q 377 746 407 720 q 246 872 288 827 q 182 969 204 917 q 159 1093 159 1022 q 212 1283 159 1208 q 342 1391 266 1357 q 488 1425 419 1425 q 574 1416 540 1425 q 655 1389 609 1407 l 694 1375 q 720 1371 702 1371 q 755 1380 740 1371 q 776 1405 770 1389 l 855 1405 l 855 1069 l 762 1069 q 711 1242 762 1169 q 534 1315 661 1315 q 425 1269 468 1315 q 381 1159 381 1222 q 385 1119 381 1133 q 411 1060 393 1087 q 476 984 429 1032 q 631 835 524 937 l 710 766 q 838 643 794 692 q 914 526 883 593 q 944 369 944 458 q 938 294 944 335 q 872 135 929 210 q 730 14 815 60 q 550 -32 645 -32 m 532 1617 l 754 1688 l 754 1611 l 532 1478 l 312 1611 l 312 1688 l 532 1617 z "},"Ş":{"ha":1044,"x_min":109,"x_max":944,"o":"m 710 766 q 838 643 794 692 q 914 526 883 593 q 944 369 944 458 q 938 294 944 335 q 876 140 929 212 q 744 22 823 67 q 573 -30 665 -24 l 560 -58 q 615 -103 589 -71 q 641 -183 641 -135 q 598 -282 641 -244 q 496 -319 556 -319 q 428 -303 460 -319 q 375 -252 395 -286 l 417 -202 q 482 -226 448 -226 q 519 -212 504 -226 q 534 -179 534 -198 q 506 -132 534 -149 q 425 -115 478 -115 l 466 -24 q 373 -1 413 -18 q 321 20 333 16 q 278 30 296 30 q 222 -20 232 30 l 109 -20 l 109 399 l 228 399 q 284 184 228 260 q 460 91 339 107 l 484 89 q 588 114 538 89 q 672 186 639 139 q 704 296 704 232 q 651 466 704 391 q 466 665 597 542 q 377 746 407 720 q 246 872 288 827 q 182 969 204 917 q 159 1093 159 1022 q 212 1283 159 1208 q 342 1391 266 1357 q 488 1425 419 1425 q 574 1416 540 1425 q 655 1389 609 1407 l 694 1375 q 720 1371 702 1371 q 755 1380 740 1371 q 776 1405 770 1389 l 855 1405 l 855 1069 l 762 1069 q 711 1242 762 1169 q 534 1315 661 1315 q 425 1269 468 1315 q 381 1159 381 1222 q 385 1119 381 1133 q 411 1060 393 1087 q 476 984 429 1032 q 631 835 524 937 l 710 766 z "},"Ș":{"ha":1044,"x_min":109,"x_max":944,"o":"m 550 -32 q 440 -22 480 -32 q 369 1 401 -12 q 321 20 337 14 q 278 30 296 30 q 222 -20 232 30 l 109 -20 l 109 399 l 228 399 q 284 184 228 260 q 460 91 339 107 l 484 89 q 588 114 538 89 q 672 186 639 139 q 704 296 704 232 q 651 466 704 391 q 466 665 597 542 q 377 746 407 720 q 246 872 288 827 q 182 969 204 917 q 159 1093 159 1022 q 212 1283 159 1208 q 342 1391 266 1357 q 488 1425 419 1425 q 574 1416 540 1425 q 655 1389 609 1407 l 694 1375 q 720 1371 702 1371 q 755 1380 740 1371 q 776 1405 770 1389 l 855 1405 l 855 1069 l 762 1069 q 711 1242 762 1169 q 534 1315 661 1315 q 425 1269 468 1315 q 381 1159 381 1222 q 385 1119 381 1133 q 411 1060 393 1087 q 476 984 429 1032 q 631 835 524 937 l 710 766 q 838 643 794 692 q 914 526 883 593 q 944 369 944 458 q 938 294 944 335 q 872 135 929 210 q 730 14 815 60 q 550 -32 645 -32 m 474 -353 q 504 -264 504 -304 q 463 -235 480 -256 q 446 -188 446 -214 q 469 -134 446 -157 q 522 -111 492 -111 q 578 -139 556 -111 q 601 -200 601 -167 q 580 -280 601 -244 q 530 -335 560 -315 q 474 -353 500 -355 z "},"T":{"ha":1230,"x_min":89,"x_max":1141,"o":"m 1141 1389 l 1141 1069 l 1032 1069 l 1032 1175 q 1016 1238 1032 1212 q 948 1264 1000 1264 l 736 1264 l 736 153 q 751 115 736 131 q 788 99 766 99 l 829 99 l 829 0 l 401 0 l 401 99 l 442 99 q 480 115 464 99 q 496 153 496 131 l 496 1264 l 280 1264 q 213 1238 228 1264 q 198 1175 198 1212 l 198 1069 l 89 1069 l 89 1389 l 1141 1389 z "},"Ŧ":{"ha":1230,"x_min":89,"x_max":1141,"o":"m 1141 1389 l 1141 1069 l 1032 1069 l 1032 1175 q 1016 1238 1032 1212 q 948 1264 1000 1264 l 736 1264 l 736 802 l 907 802 l 907 649 l 736 649 l 736 153 q 751 115 736 131 q 788 99 766 99 l 829 99 l 829 0 l 401 0 l 401 99 l 442 99 q 480 115 464 99 q 496 153 496 131 l 496 649 l 331 649 l 331 802 l 496 802 l 496 1264 l 280 1264 q 213 1238 228 1264 q 198 1175 198 1212 l 198 1069 l 89 1069 l 89 1389 l 1141 1389 z "},"Ť":{"ha":1230,"x_min":89,"x_max":1141,"o":"m 1141 1389 l 1141 1069 l 1032 1069 l 1032 1175 q 1016 1238 1032 1212 q 948 1264 1000 1264 l 736 1264 l 736 153 q 751 115 736 131 q 788 99 766 99 l 829 99 l 829 0 l 401 0 l 401 99 l 442 99 q 480 115 464 99 q 496 153 496 131 l 496 1264 l 280 1264 q 213 1238 228 1264 q 198 1175 198 1212 l 198 1069 l 89 1069 l 89 1389 l 1141 1389 m 617 1593 l 839 1665 l 839 1587 l 617 1454 l 397 1587 l 397 1665 l 617 1593 z "},"Ţ":{"ha":1230,"x_min":89,"x_max":1141,"o":"m 1141 1389 l 1141 1069 l 1032 1069 l 1032 1175 q 1016 1238 1032 1212 q 948 1264 1000 1264 l 736 1264 l 736 153 q 751 115 736 131 q 788 99 766 99 l 829 99 l 829 0 l 671 0 l 655 -30 q 710 -75 685 -44 q 736 -155 736 -107 q 693 -254 736 -216 q 591 -292 651 -292 q 523 -275 556 -292 q 470 -224 490 -258 l 512 -175 q 577 -198 546 -198 q 614 -185 599 -198 q 629 -151 629 -171 q 601 -104 629 -121 q 520 -87 573 -87 l 560 0 l 401 0 l 401 99 l 442 99 q 480 115 464 99 q 496 153 496 131 l 496 1264 l 280 1264 q 213 1238 228 1264 q 198 1175 198 1212 l 198 1069 l 89 1069 l 89 1389 l 1141 1389 z "},"Ț":{"ha":1230,"x_min":89,"x_max":1141,"o":"m 1141 1389 l 1141 1069 l 1032 1069 l 1032 1175 q 1016 1238 1032 1212 q 948 1264 1000 1264 l 736 1264 l 736 153 q 751 115 736 131 q 788 99 766 99 l 829 99 l 829 0 l 401 0 l 401 99 l 442 99 q 480 115 464 99 q 496 153 496 131 l 496 1264 l 280 1264 q 213 1238 228 1264 q 198 1175 198 1212 l 198 1069 l 89 1069 l 89 1389 l 1141 1389 m 569 -325 q 599 -236 599 -276 q 559 -207 575 -228 q 542 -161 542 -187 q 564 -106 542 -129 q 617 -83 587 -83 q 674 -111 651 -83 q 696 -173 696 -139 q 676 -252 696 -216 q 625 -308 655 -288 q 569 -325 595 -327 z "},"U":{"ha":1385,"x_min":99,"x_max":1286,"o":"m 706 -36 q 466 18 577 -36 q 288 178 355 71 q 220 431 220 284 l 220 1238 q 205 1275 220 1260 q 169 1290 190 1290 l 99 1290 l 99 1389 l 558 1389 l 558 1290 l 500 1290 q 464 1275 480 1290 q 448 1238 448 1260 l 448 454 q 531 191 448 284 q 754 99 613 99 q 894 133 825 99 q 1008 240 962 167 q 1054 429 1054 313 l 1054 1238 q 1039 1275 1054 1260 q 1002 1290 1024 1290 l 968 1290 l 968 1389 l 1286 1389 l 1286 1290 l 1244 1290 q 1207 1275 1222 1290 q 1192 1238 1192 1260 l 1192 399 q 1131 175 1192 274 q 966 20 1069 75 q 740 -36 863 -36 l 706 -36 z "},"Ú":{"ha":1385,"x_min":99,"x_max":1286,"o":"m 706 -36 q 466 18 577 -36 q 288 178 355 71 q 220 431 220 284 l 220 1238 q 205 1275 220 1260 q 169 1290 190 1290 l 99 1290 l 99 1389 l 558 1389 l 558 1290 l 500 1290 q 464 1275 480 1290 q 448 1238 448 1260 l 448 454 q 531 191 448 284 q 754 99 613 99 q 894 133 825 99 q 1008 240 962 167 q 1054 429 1054 313 l 1054 1238 q 1039 1275 1054 1260 q 1002 1290 1024 1290 l 968 1290 l 968 1389 l 1286 1389 l 1286 1290 l 1244 1290 q 1207 1275 1222 1290 q 1192 1238 1192 1260 l 1192 399 q 1131 175 1192 274 q 966 20 1069 75 q 740 -36 863 -36 l 706 -36 m 595 1522 l 851 1726 l 927 1623 l 641 1456 l 595 1522 z "},"Ǔ":{"ha":1385,"x_min":99,"x_max":1286,"o":"m 706 -36 q 466 18 577 -36 q 288 178 355 71 q 220 431 220 284 l 220 1238 q 205 1275 220 1260 q 169 1290 190 1290 l 99 1290 l 99 1389 l 558 1389 l 558 1290 l 500 1290 q 464 1275 480 1290 q 448 1238 448 1260 l 448 454 q 531 191 448 284 q 754 99 613 99 q 894 133 825 99 q 1008 240 962 167 q 1054 429 1054 313 l 1054 1238 q 1039 1275 1054 1260 q 1002 1290 1024 1290 l 968 1290 l 968 1389 l 1286 1389 l 1286 1290 l 1244 1290 q 1207 1275 1222 1290 q 1192 1238 1192 1260 l 1192 399 q 1131 175 1192 274 q 966 20 1069 75 q 740 -36 863 -36 l 706 -36 m 760 1593 l 982 1665 l 982 1587 l 760 1454 l 540 1587 l 540 1665 l 760 1593 z "},"Û":{"ha":1385,"x_min":99,"x_max":1286,"o":"m 706 -36 q 466 18 577 -36 q 288 178 355 71 q 220 431 220 284 l 220 1238 q 205 1275 220 1260 q 169 1290 190 1290 l 99 1290 l 99 1389 l 558 1389 l 558 1290 l 500 1290 q 464 1275 480 1290 q 448 1238 448 1260 l 448 454 q 531 191 448 284 q 754 99 613 99 q 894 133 825 99 q 1008 240 962 167 q 1054 429 1054 313 l 1054 1238 q 1039 1275 1054 1260 q 1002 1290 1024 1290 l 968 1290 l 968 1389 l 1286 1389 l 1286 1290 l 1244 1290 q 1207 1275 1222 1290 q 1192 1238 1192 1260 l 1192 399 q 1131 175 1192 274 q 966 20 1069 75 q 740 -36 863 -36 l 706 -36 m 540 1544 l 760 1677 l 982 1544 l 982 1466 l 760 1538 l 540 1466 l 540 1544 z "},"Ü":{"ha":1385,"x_min":99,"x_max":1286,"o":"m 706 -36 q 466 18 577 -36 q 288 178 355 71 q 220 431 220 284 l 220 1238 q 205 1275 220 1260 q 169 1290 190 1290 l 99 1290 l 99 1389 l 558 1389 l 558 1290 l 500 1290 q 464 1275 480 1290 q 448 1238 448 1260 l 448 454 q 531 191 448 284 q 754 99 613 99 q 894 133 825 99 q 1008 240 962 167 q 1054 429 1054 313 l 1054 1238 q 1039 1275 1054 1260 q 1002 1290 1024 1290 l 968 1290 l 968 1389 l 1286 1389 l 1286 1290 l 1244 1290 q 1207 1275 1222 1290 q 1192 1238 1192 1260 l 1192 399 q 1131 175 1192 274 q 966 20 1069 75 q 740 -36 863 -36 l 706 -36 m 603 1470 q 546 1495 569 1470 q 522 1554 522 1520 q 546 1611 522 1587 q 603 1635 569 1635 q 660 1611 635 1635 q 685 1554 685 1587 q 661 1495 685 1520 q 603 1470 637 1470 m 921 1470 q 863 1495 887 1470 q 839 1554 839 1520 q 863 1611 839 1587 q 921 1635 887 1635 q 977 1611 952 1635 q 1002 1554 1002 1587 q 978 1495 1002 1520 q 921 1470 954 1470 z "},"Ǘ":{"ha":1385,"x_min":99,"x_max":1286,"o":"m 706 -36 q 466 18 577 -36 q 288 178 355 71 q 220 431 220 284 l 220 1238 q 205 1275 220 1260 q 169 1290 190 1290 l 99 1290 l 99 1389 l 558 1389 l 558 1290 l 500 1290 q 464 1275 480 1290 q 448 1238 448 1260 l 448 454 q 531 191 448 284 q 754 99 613 99 q 894 133 825 99 q 1008 240 962 167 q 1054 429 1054 313 l 1054 1238 q 1039 1275 1054 1260 q 1002 1290 1024 1290 l 968 1290 l 968 1389 l 1286 1389 l 1286 1290 l 1244 1290 q 1207 1275 1222 1290 q 1192 1238 1192 1260 l 1192 399 q 1131 175 1192 274 q 966 20 1069 75 q 740 -36 863 -36 l 706 -36 z "},"Ǚ":{"ha":1385,"x_min":99,"x_max":1286,"o":"m 706 -36 q 466 18 577 -36 q 288 178 355 71 q 220 431 220 284 l 220 1238 q 205 1275 220 1260 q 169 1290 190 1290 l 99 1290 l 99 1389 l 558 1389 l 558 1290 l 500 1290 q 464 1275 480 1290 q 448 1238 448 1260 l 448 454 q 531 191 448 284 q 754 99 613 99 q 894 133 825 99 q 1008 240 962 167 q 1054 429 1054 313 l 1054 1238 q 1039 1275 1054 1260 q 1002 1290 1024 1290 l 968 1290 l 968 1389 l 1286 1389 l 1286 1290 l 1244 1290 q 1207 1275 1222 1290 q 1192 1238 1192 1260 l 1192 399 q 1131 175 1192 274 q 966 20 1069 75 q 740 -36 863 -36 l 706 -36 z "},"Ǜ":{"ha":1385,"x_min":99,"x_max":1286,"o":"m 706 -36 q 466 18 577 -36 q 288 178 355 71 q 220 431 220 284 l 220 1238 q 205 1275 220 1260 q 169 1290 190 1290 l 99 1290 l 99 1389 l 558 1389 l 558 1290 l 500 1290 q 464 1275 480 1290 q 448 1238 448 1260 l 448 454 q 531 191 448 284 q 754 99 613 99 q 894 133 825 99 q 1008 240 962 167 q 1054 429 1054 313 l 1054 1238 q 1039 1275 1054 1260 q 1002 1290 1024 1290 l 968 1290 l 968 1389 l 1286 1389 l 1286 1290 l 1244 1290 q 1207 1275 1222 1290 q 1192 1238 1192 1260 l 1192 399 q 1131 175 1192 274 q 966 20 1069 75 q 740 -36 863 -36 l 706 -36 z "},"Ǖ":{"ha":1385,"x_min":99,"x_max":1286,"o":"m 706 -36 q 466 18 577 -36 q 288 178 355 71 q 220 431 220 284 l 220 1238 q 205 1275 220 1260 q 169 1290 190 1290 l 99 1290 l 99 1389 l 558 1389 l 558 1290 l 500 1290 q 464 1275 480 1290 q 448 1238 448 1260 l 448 454 q 531 191 448 284 q 754 99 613 99 q 894 133 825 99 q 1008 240 962 167 q 1054 429 1054 313 l 1054 1238 q 1039 1275 1054 1260 q 1002 1290 1024 1290 l 968 1290 l 968 1389 l 1286 1389 l 1286 1290 l 1244 1290 q 1207 1275 1222 1290 q 1192 1238 1192 1260 l 1192 399 q 1131 175 1192 274 q 966 20 1069 75 q 740 -36 863 -36 l 706 -36 z "},"Ụ":{"ha":1385,"x_min":99,"x_max":1286,"o":"m 706 -36 q 466 18 577 -36 q 288 178 355 71 q 220 431 220 284 l 220 1238 q 205 1275 220 1260 q 169 1290 190 1290 l 99 1290 l 99 1389 l 558 1389 l 558 1290 l 500 1290 q 464 1275 480 1290 q 448 1238 448 1260 l 448 454 q 531 191 448 284 q 754 99 613 99 q 894 133 825 99 q 1008 240 962 167 q 1054 429 1054 313 l 1054 1238 q 1039 1275 1054 1260 q 1002 1290 1024 1290 l 968 1290 l 968 1389 l 1286 1389 l 1286 1290 l 1244 1290 q 1207 1275 1222 1290 q 1192 1238 1192 1260 l 1192 399 q 1131 175 1192 274 q 966 20 1069 75 q 740 -36 863 -36 l 706 -36 m 758 -270 q 700 -245 724 -270 q 677 -187 677 -220 q 700 -130 677 -155 q 758 -105 724 -105 q 814 -130 790 -105 q 839 -187 839 -155 q 815 -245 839 -220 q 758 -270 792 -270 z "},"Ù":{"ha":1385,"x_min":99,"x_max":1286,"o":"m 706 -36 q 466 18 577 -36 q 288 178 355 71 q 220 431 220 284 l 220 1238 q 205 1275 220 1260 q 169 1290 190 1290 l 99 1290 l 99 1389 l 558 1389 l 558 1290 l 500 1290 q 464 1275 480 1290 q 448 1238 448 1260 l 448 454 q 531 191 448 284 q 754 99 613 99 q 894 133 825 99 q 1008 240 962 167 q 1054 429 1054 313 l 1054 1238 q 1039 1275 1054 1260 q 1002 1290 1024 1290 l 968 1290 l 968 1389 l 1286 1389 l 1286 1290 l 1244 1290 q 1207 1275 1222 1290 q 1192 1238 1192 1260 l 1192 399 q 1131 175 1192 274 q 966 20 1069 75 q 740 -36 863 -36 l 706 -36 m 595 1623 l 671 1726 l 927 1522 l 881 1456 l 595 1623 z "},"Ủ":{"ha":1385,"x_min":99,"x_max":1286,"o":"m 706 -36 q 466 18 577 -36 q 288 178 355 71 q 220 431 220 284 l 220 1238 q 205 1275 220 1260 q 169 1290 190 1290 l 99 1290 l 99 1389 l 558 1389 l 558 1290 l 500 1290 q 464 1275 480 1290 q 448 1238 448 1260 l 448 454 q 531 191 448 284 q 754 99 613 99 q 894 133 825 99 q 1008 240 962 167 q 1054 429 1054 313 l 1054 1238 q 1039 1275 1054 1260 q 1002 1290 1024 1290 l 968 1290 l 968 1389 l 1286 1389 l 1286 1290 l 1244 1290 q 1207 1275 1222 1290 q 1192 1238 1192 1260 l 1192 399 q 1131 175 1192 274 q 966 20 1069 75 q 740 -36 863 -36 l 706 -36 m 714 1468 q 774 1577 714 1528 q 804 1629 804 1603 q 789 1666 804 1653 q 752 1679 774 1679 q 690 1645 712 1679 l 647 1708 q 700 1761 667 1742 q 772 1780 734 1780 q 871 1740 831 1780 q 911 1643 911 1700 q 891 1572 911 1605 q 831 1520 871 1540 q 806 1498 817 1512 q 794 1468 794 1484 l 714 1468 z "},"Ư":{"ha":1385,"x_min":99,"x_max":1389,"o":"m 1373 1440 q 1389 1395 1389 1423 q 1351 1321 1389 1349 q 1250 1286 1308 1286 q 1226 1288 1234 1286 q 1201 1268 1210 1282 q 1192 1238 1192 1254 l 1192 399 q 1131 175 1192 274 q 966 20 1069 75 q 740 -36 863 -36 l 706 -36 q 466 18 577 -36 q 288 178 355 71 q 220 431 220 284 l 220 1238 q 205 1275 220 1260 q 169 1290 190 1290 l 99 1290 l 99 1389 l 558 1389 l 558 1290 l 500 1290 q 464 1275 480 1290 q 448 1238 448 1260 l 448 454 q 531 191 448 284 q 754 99 613 99 q 894 133 825 99 q 1008 240 962 167 q 1054 429 1054 313 l 1054 1238 q 1039 1275 1054 1260 q 1002 1290 1024 1290 l 968 1290 l 968 1389 l 1238 1389 q 1264 1450 1238 1427 q 1313 1468 1286 1468 q 1373 1440 1351 1468 z "},"Ứ":{"ha":1385,"x_min":99,"x_max":1389,"o":"m 1373 1440 q 1389 1395 1389 1423 q 1351 1321 1389 1349 q 1250 1286 1308 1286 q 1226 1288 1234 1286 q 1201 1268 1210 1282 q 1192 1238 1192 1254 l 1192 399 q 1131 175 1192 274 q 966 20 1069 75 q 740 -36 863 -36 l 706 -36 q 466 18 577 -36 q 288 178 355 71 q 220 431 220 284 l 220 1238 q 205 1275 220 1260 q 169 1290 190 1290 l 99 1290 l 99 1389 l 558 1389 l 558 1290 l 500 1290 q 464 1275 480 1290 q 448 1238 448 1260 l 448 454 q 531 191 448 284 q 754 99 613 99 q 894 133 825 99 q 1008 240 962 167 q 1054 429 1054 313 l 1054 1238 q 1039 1275 1054 1260 q 1002 1290 1024 1290 l 968 1290 l 968 1389 l 1238 1389 q 1264 1450 1238 1427 q 1313 1468 1286 1468 q 1373 1440 1351 1468 m 595 1522 l 851 1726 l 927 1623 l 641 1456 l 595 1522 z "},"Ự":{"ha":1385,"x_min":99,"x_max":1389,"o":"m 1373 1440 q 1389 1395 1389 1423 q 1351 1321 1389 1349 q 1250 1286 1308 1286 q 1226 1288 1234 1286 q 1201 1268 1210 1282 q 1192 1238 1192 1254 l 1192 399 q 1131 175 1192 274 q 966 20 1069 75 q 740 -36 863 -36 l 706 -36 q 466 18 577 -36 q 288 178 355 71 q 220 431 220 284 l 220 1238 q 205 1275 220 1260 q 169 1290 190 1290 l 99 1290 l 99 1389 l 558 1389 l 558 1290 l 500 1290 q 464 1275 480 1290 q 448 1238 448 1260 l 448 454 q 531 191 448 284 q 754 99 613 99 q 894 133 825 99 q 1008 240 962 167 q 1054 429 1054 313 l 1054 1238 q 1039 1275 1054 1260 q 1002 1290 1024 1290 l 968 1290 l 968 1389 l 1238 1389 q 1264 1450 1238 1427 q 1313 1468 1286 1468 q 1373 1440 1351 1468 m 758 -270 q 700 -245 724 -270 q 677 -187 677 -220 q 700 -130 677 -155 q 758 -105 724 -105 q 814 -130 790 -105 q 839 -187 839 -155 q 815 -245 839 -220 q 758 -270 792 -270 z "},"Ừ":{"ha":1385,"x_min":99,"x_max":1389,"o":"m 1373 1440 q 1389 1395 1389 1423 q 1351 1321 1389 1349 q 1250 1286 1308 1286 q 1226 1288 1234 1286 q 1201 1268 1210 1282 q 1192 1238 1192 1254 l 1192 399 q 1131 175 1192 274 q 966 20 1069 75 q 740 -36 863 -36 l 706 -36 q 466 18 577 -36 q 288 178 355 71 q 220 431 220 284 l 220 1238 q 205 1275 220 1260 q 169 1290 190 1290 l 99 1290 l 99 1389 l 558 1389 l 558 1290 l 500 1290 q 464 1275 480 1290 q 448 1238 448 1260 l 448 454 q 531 191 448 284 q 754 99 613 99 q 894 133 825 99 q 1008 240 962 167 q 1054 429 1054 313 l 1054 1238 q 1039 1275 1054 1260 q 1002 1290 1024 1290 l 968 1290 l 968 1389 l 1238 1389 q 1264 1450 1238 1427 q 1313 1468 1286 1468 q 1373 1440 1351 1468 m 595 1623 l 671 1726 l 927 1522 l 881 1456 l 595 1623 z "},"Ử":{"ha":1385,"x_min":99,"x_max":1389,"o":"m 1373 1440 q 1389 1395 1389 1423 q 1351 1321 1389 1349 q 1250 1286 1308 1286 q 1226 1288 1234 1286 q 1201 1268 1210 1282 q 1192 1238 1192 1254 l 1192 399 q 1131 175 1192 274 q 966 20 1069 75 q 740 -36 863 -36 l 706 -36 q 466 18 577 -36 q 288 178 355 71 q 220 431 220 284 l 220 1238 q 205 1275 220 1260 q 169 1290 190 1290 l 99 1290 l 99 1389 l 558 1389 l 558 1290 l 500 1290 q 464 1275 480 1290 q 448 1238 448 1260 l 448 454 q 531 191 448 284 q 754 99 613 99 q 894 133 825 99 q 1008 240 962 167 q 1054 429 1054 313 l 1054 1238 q 1039 1275 1054 1260 q 1002 1290 1024 1290 l 968 1290 l 968 1389 l 1238 1389 q 1264 1450 1238 1427 q 1313 1468 1286 1468 q 1373 1440 1351 1468 m 714 1468 q 774 1577 714 1528 q 804 1629 804 1603 q 789 1666 804 1653 q 752 1679 774 1679 q 690 1645 712 1679 l 647 1708 q 700 1761 667 1742 q 772 1780 734 1780 q 871 1740 831 1780 q 911 1643 911 1700 q 891 1572 911 1605 q 831 1520 871 1540 q 806 1498 817 1512 q 794 1468 794 1484 l 714 1468 z "},"Ữ":{"ha":1385,"x_min":99,"x_max":1389,"o":"m 1373 1440 q 1389 1395 1389 1423 q 1351 1321 1389 1349 q 1250 1286 1308 1286 q 1226 1288 1234 1286 q 1201 1268 1210 1282 q 1192 1238 1192 1254 l 1192 399 q 1131 175 1192 274 q 966 20 1069 75 q 740 -36 863 -36 l 706 -36 q 466 18 577 -36 q 288 178 355 71 q 220 431 220 284 l 220 1238 q 205 1275 220 1260 q 169 1290 190 1290 l 99 1290 l 99 1389 l 558 1389 l 558 1290 l 500 1290 q 464 1275 480 1290 q 448 1238 448 1260 l 448 454 q 531 191 448 284 q 754 99 613 99 q 894 133 825 99 q 1008 240 962 167 q 1054 429 1054 313 l 1054 1238 q 1039 1275 1054 1260 q 1002 1290 1024 1290 l 968 1290 l 968 1389 l 1238 1389 q 1264 1450 1238 1427 q 1313 1468 1286 1468 q 1373 1440 1351 1468 m 536 1552 q 585 1605 550 1587 q 669 1623 621 1623 q 778 1603 718 1623 q 889 1579 845 1579 q 976 1617 946 1579 l 988 1540 q 931 1486 970 1504 q 841 1468 891 1468 q 742 1488 788 1468 q 635 1514 688 1514 q 546 1478 575 1514 l 536 1552 z "},"Ű":{"ha":1385,"x_min":99,"x_max":1286,"o":"m 706 -36 q 466 18 577 -36 q 288 178 355 71 q 220 431 220 284 l 220 1238 q 205 1275 220 1260 q 169 1290 190 1290 l 99 1290 l 99 1389 l 558 1389 l 558 1290 l 500 1290 q 464 1275 480 1290 q 448 1238 448 1260 l 448 454 q 531 191 448 284 q 754 99 613 99 q 894 133 825 99 q 1008 240 962 167 q 1054 429 1054 313 l 1054 1238 q 1039 1275 1054 1260 q 1002 1290 1024 1290 l 968 1290 l 968 1389 l 1286 1389 l 1286 1290 l 1244 1290 q 1207 1275 1222 1290 q 1192 1238 1192 1260 l 1192 399 q 1131 175 1192 274 q 966 20 1069 75 q 740 -36 863 -36 l 706 -36 z "},"Ū":{"ha":1385,"x_min":99,"x_max":1286,"o":"m 706 -36 q 466 18 577 -36 q 288 178 355 71 q 220 431 220 284 l 220 1238 q 205 1275 220 1260 q 169 1290 190 1290 l 99 1290 l 99 1389 l 558 1389 l 558 1290 l 500 1290 q 464 1275 480 1290 q 448 1238 448 1260 l 448 454 q 531 191 448 284 q 754 99 613 99 q 894 133 825 99 q 1008 240 962 167 q 1054 429 1054 313 l 1054 1238 q 1039 1275 1054 1260 q 1002 1290 1024 1290 l 968 1290 l 968 1389 l 1286 1389 l 1286 1290 l 1244 1290 q 1207 1275 1222 1290 q 1192 1238 1192 1260 l 1192 399 q 1131 175 1192 274 q 966 20 1069 75 q 740 -36 863 -36 l 706 -36 m 538 1605 l 988 1605 l 988 1486 l 538 1486 l 538 1605 z "},"Ų":{"ha":1385,"x_min":99,"x_max":1286,"o":"m 1286 1389 l 1286 1290 l 1244 1290 q 1207 1275 1222 1290 q 1192 1238 1192 1260 l 1192 399 q 1142 193 1192 286 q 1004 43 1091 101 q 810 -32 917 -16 q 748 -77 772 -48 q 724 -137 724 -107 q 730 -163 724 -151 q 782 -198 748 -198 q 843 -175 812 -198 l 883 -228 q 825 -282 859 -264 q 754 -300 792 -300 q 655 -263 696 -300 q 613 -165 613 -226 q 673 -36 613 -83 q 446 28 550 -28 q 282 187 343 83 q 220 431 220 290 l 220 1238 q 205 1275 220 1260 q 169 1290 190 1290 l 99 1290 l 99 1389 l 558 1389 l 558 1290 l 500 1290 q 464 1275 480 1290 q 448 1238 448 1260 l 448 454 q 531 191 448 284 q 754 99 613 99 q 894 133 825 99 q 1008 240 962 167 q 1054 429 1054 313 l 1054 1238 q 1039 1275 1054 1260 q 1002 1290 1024 1290 l 968 1290 l 968 1389 l 1286 1389 z "},"Ů":{"ha":1385,"x_min":99,"x_max":1286,"o":"m 706 -36 q 466 18 577 -36 q 288 178 355 71 q 220 431 220 284 l 220 1238 q 205 1275 220 1260 q 169 1290 190 1290 l 99 1290 l 99 1389 l 558 1389 l 558 1290 l 500 1290 q 464 1275 480 1290 q 448 1238 448 1260 l 448 454 q 531 191 448 284 q 754 99 613 99 q 894 133 825 99 q 1008 240 962 167 q 1054 429 1054 313 l 1054 1238 q 1039 1275 1054 1260 q 1002 1290 1024 1290 l 968 1290 l 968 1389 l 1286 1389 l 1286 1290 l 1244 1290 q 1207 1275 1222 1290 q 1192 1238 1192 1260 l 1192 399 q 1131 175 1192 274 q 966 20 1069 75 q 740 -36 863 -36 l 706 -36 m 762 1389 q 635 1442 688 1389 q 581 1569 581 1496 q 635 1695 581 1643 q 762 1748 688 1748 q 887 1694 833 1748 q 940 1569 940 1641 q 887 1441 940 1494 q 762 1389 833 1389 m 762 1480 q 824 1506 800 1480 q 849 1569 849 1532 q 824 1632 849 1607 q 762 1657 800 1657 q 698 1632 724 1657 q 673 1569 673 1607 q 697 1506 673 1532 q 762 1480 722 1480 z "},"Ũ":{"ha":1385,"x_min":99,"x_max":1286,"o":"m 706 -36 q 466 18 577 -36 q 288 178 355 71 q 220 431 220 284 l 220 1238 q 205 1275 220 1260 q 169 1290 190 1290 l 99 1290 l 99 1389 l 558 1389 l 558 1290 l 500 1290 q 464 1275 480 1290 q 448 1238 448 1260 l 448 454 q 531 191 448 284 q 754 99 613 99 q 894 133 825 99 q 1008 240 962 167 q 1054 429 1054 313 l 1054 1238 q 1039 1275 1054 1260 q 1002 1290 1024 1290 l 968 1290 l 968 1389 l 1286 1389 l 1286 1290 l 1244 1290 q 1207 1275 1222 1290 q 1192 1238 1192 1260 l 1192 399 q 1131 175 1192 274 q 966 20 1069 75 q 740 -36 863 -36 l 706 -36 m 536 1552 q 585 1605 550 1587 q 669 1623 621 1623 q 778 1603 718 1623 q 889 1579 845 1579 q 976 1617 946 1579 l 988 1540 q 931 1486 970 1504 q 841 1468 891 1468 q 742 1488 788 1468 q 635 1514 688 1514 q 546 1478 575 1514 l 536 1552 z "},"V":{"ha":1381,"x_min":69,"x_max":1312,"o":"m 185 1204 q 148 1269 165 1252 q 101 1286 131 1286 l 69 1286 l 69 1389 l 502 1389 l 502 1286 l 466 1286 q 425 1258 425 1286 q 435 1224 425 1244 l 768 421 l 1067 1222 q 1075 1256 1075 1238 q 1042 1286 1075 1286 l 972 1286 l 972 1389 l 1312 1389 l 1312 1286 l 1286 1286 q 1202 1230 1222 1286 l 714 -83 l 708 -83 l 185 1204 z "},"W":{"ha":1663,"x_min":75,"x_max":1593,"o":"m 202 1202 q 169 1267 188 1248 q 115 1286 149 1286 l 75 1286 l 75 1389 l 516 1389 l 516 1286 l 478 1286 q 444 1275 456 1286 q 433 1246 433 1264 q 437 1224 433 1240 l 627 558 l 897 1442 l 903 1442 l 1133 589 l 1337 1228 q 1341 1252 1341 1244 q 1286 1286 1341 1286 l 1240 1286 l 1240 1389 l 1593 1389 l 1593 1286 l 1556 1286 q 1498 1270 1520 1286 q 1464 1216 1476 1254 l 1069 -67 l 1063 -67 l 833 796 l 579 -83 l 573 -83 l 202 1202 z "},"Ẃ":{"ha":1663,"x_min":75,"x_max":1593,"o":"m 202 1202 q 169 1267 188 1248 q 115 1286 149 1286 l 75 1286 l 75 1389 l 516 1389 l 516 1286 l 478 1286 q 444 1275 456 1286 q 433 1246 433 1264 q 437 1224 433 1240 l 627 558 l 897 1442 l 903 1442 l 1133 589 l 1337 1228 q 1341 1252 1341 1244 q 1286 1286 1341 1286 l 1240 1286 l 1240 1389 l 1593 1389 l 1593 1286 l 1556 1286 q 1498 1270 1520 1286 q 1464 1216 1476 1254 l 1069 -67 l 1063 -67 l 833 796 l 579 -83 l 573 -83 l 202 1202 m 734 1530 l 990 1734 l 1065 1631 l 780 1464 l 734 1530 z "},"Ŵ":{"ha":1663,"x_min":75,"x_max":1593,"o":"m 202 1202 q 169 1267 188 1248 q 115 1286 149 1286 l 75 1286 l 75 1389 l 516 1389 l 516 1286 l 478 1286 q 444 1275 456 1286 q 433 1246 433 1264 q 437 1224 433 1240 l 627 558 l 897 1442 l 903 1442 l 1133 589 l 1337 1228 q 1341 1252 1341 1244 q 1286 1286 1341 1286 l 1240 1286 l 1240 1389 l 1593 1389 l 1593 1286 l 1556 1286 q 1498 1270 1520 1286 q 1464 1216 1476 1254 l 1069 -67 l 1063 -67 l 833 796 l 579 -83 l 573 -83 l 202 1202 m 679 1552 l 899 1685 l 1121 1552 l 1121 1474 l 899 1546 l 679 1474 l 679 1552 z "},"Ẅ":{"ha":1663,"x_min":75,"x_max":1593,"o":"m 202 1202 q 169 1267 188 1248 q 115 1286 149 1286 l 75 1286 l 75 1389 l 516 1389 l 516 1286 l 478 1286 q 444 1275 456 1286 q 433 1246 433 1264 q 437 1224 433 1240 l 627 558 l 897 1442 l 903 1442 l 1133 589 l 1337 1228 q 1341 1252 1341 1244 q 1286 1286 1341 1286 l 1240 1286 l 1240 1389 l 1593 1389 l 1593 1286 l 1556 1286 q 1498 1270 1520 1286 q 1464 1216 1476 1254 l 1069 -67 l 1063 -67 l 833 796 l 579 -83 l 573 -83 l 202 1202 m 742 1478 q 685 1503 708 1478 q 661 1562 661 1528 q 685 1619 661 1595 q 742 1643 708 1643 q 799 1619 774 1643 q 823 1562 823 1595 q 800 1503 823 1528 q 742 1478 776 1478 m 1060 1478 q 1002 1503 1026 1478 q 978 1562 978 1528 q 1002 1619 978 1595 q 1060 1643 1026 1643 q 1116 1619 1091 1643 q 1141 1562 1141 1595 q 1117 1503 1141 1528 q 1060 1478 1093 1478 z "},"Ẁ":{"ha":1663,"x_min":75,"x_max":1593,"o":"m 202 1202 q 169 1267 188 1248 q 115 1286 149 1286 l 75 1286 l 75 1389 l 516 1389 l 516 1286 l 478 1286 q 444 1275 456 1286 q 433 1246 433 1264 q 437 1224 433 1240 l 627 558 l 897 1442 l 903 1442 l 1133 589 l 1337 1228 q 1341 1252 1341 1244 q 1286 1286 1341 1286 l 1240 1286 l 1240 1389 l 1593 1389 l 1593 1286 l 1556 1286 q 1498 1270 1520 1286 q 1464 1216 1476 1254 l 1069 -67 l 1063 -67 l 833 796 l 579 -83 l 573 -83 l 202 1202 m 734 1631 l 810 1734 l 1065 1530 l 1020 1464 l 734 1631 z "},"X":{"ha":1312,"x_min":91,"x_max":1220,"o":"m 1220 99 l 1220 0 l 762 0 l 762 99 l 782 99 q 814 107 802 99 q 827 129 827 115 q 821 151 827 139 l 623 552 l 381 147 q 373 123 373 133 q 413 99 373 99 l 442 99 l 442 0 l 91 0 l 91 99 l 145 99 q 228 155 194 99 l 556 687 l 290 1220 q 248 1275 270 1260 q 192 1290 226 1290 l 159 1290 l 159 1389 l 605 1389 l 605 1290 l 571 1290 q 542 1282 552 1290 q 532 1260 532 1274 q 538 1238 532 1250 l 696 915 l 897 1240 q 905 1264 905 1254 q 865 1290 905 1290 l 829 1290 l 829 1389 l 1157 1389 l 1157 1290 l 1127 1290 q 1071 1274 1097 1290 q 1030 1232 1046 1258 l 762 784 l 1069 161 q 1187 99 1099 99 l 1220 99 z "},"Y":{"ha":1315,"x_min":69,"x_max":1246,"o":"m 1246 1389 l 1246 1290 l 1206 1290 q 1115 1242 1141 1290 l 780 615 l 780 153 q 795 115 780 131 q 831 99 810 99 l 873 99 l 873 0 l 444 0 l 444 99 l 486 99 q 524 115 508 99 q 540 153 540 131 l 540 552 l 188 1210 q 143 1271 165 1252 q 91 1290 121 1290 l 69 1290 l 69 1389 l 496 1389 l 496 1290 l 472 1290 q 429 1262 429 1290 q 438 1232 429 1252 l 704 744 l 970 1236 q 980 1266 980 1256 q 940 1290 980 1290 l 913 1290 l 913 1389 l 1246 1389 z "},"Ý":{"ha":1315,"x_min":69,"x_max":1246,"o":"m 1246 1389 l 1246 1290 l 1206 1290 q 1115 1242 1141 1290 l 780 615 l 780 153 q 795 115 780 131 q 831 99 810 99 l 873 99 l 873 0 l 444 0 l 444 99 l 486 99 q 524 115 508 99 q 540 153 540 131 l 540 552 l 188 1210 q 143 1271 165 1252 q 91 1290 121 1290 l 69 1290 l 69 1389 l 496 1389 l 496 1290 l 472 1290 q 429 1262 429 1290 q 438 1232 429 1252 l 704 744 l 970 1236 q 980 1266 980 1256 q 940 1290 980 1290 l 913 1290 l 913 1389 l 1246 1389 m 538 1522 l 794 1726 l 869 1623 l 583 1456 l 538 1522 z "},"Ŷ":{"ha":1315,"x_min":69,"x_max":1246,"o":"m 1246 1389 l 1246 1290 l 1206 1290 q 1115 1242 1141 1290 l 780 615 l 780 153 q 795 115 780 131 q 831 99 810 99 l 873 99 l 873 0 l 444 0 l 444 99 l 486 99 q 524 115 508 99 q 540 153 540 131 l 540 552 l 188 1210 q 143 1271 165 1252 q 91 1290 121 1290 l 69 1290 l 69 1389 l 496 1389 l 496 1290 l 472 1290 q 429 1262 429 1290 q 438 1232 429 1252 l 704 744 l 970 1236 q 980 1266 980 1256 q 940 1290 980 1290 l 913 1290 l 913 1389 l 1246 1389 m 482 1544 l 702 1677 l 925 1544 l 925 1466 l 702 1538 l 482 1466 l 482 1544 z "},"Ÿ":{"ha":1315,"x_min":69,"x_max":1246,"o":"m 1246 1389 l 1246 1290 l 1206 1290 q 1115 1242 1141 1290 l 780 615 l 780 153 q 795 115 780 131 q 831 99 810 99 l 873 99 l 873 0 l 444 0 l 444 99 l 486 99 q 524 115 508 99 q 540 153 540 131 l 540 552 l 188 1210 q 143 1271 165 1252 q 91 1290 121 1290 l 69 1290 l 69 1389 l 496 1389 l 496 1290 l 472 1290 q 429 1262 429 1290 q 438 1232 429 1252 l 704 744 l 970 1236 q 980 1266 980 1256 q 940 1290 980 1290 l 913 1290 l 913 1389 l 1246 1389 m 546 1470 q 488 1495 512 1470 q 464 1554 464 1520 q 488 1611 464 1587 q 546 1635 512 1635 q 602 1611 577 1635 q 627 1554 627 1587 q 603 1495 627 1520 q 546 1470 579 1470 m 863 1470 q 806 1495 829 1470 q 782 1554 782 1520 q 806 1611 782 1587 q 863 1635 829 1635 q 920 1611 895 1635 q 944 1554 944 1587 q 921 1495 944 1520 q 863 1470 897 1470 z "},"Ỵ":{"ha":1315,"x_min":69,"x_max":1246,"o":"m 1246 1389 l 1246 1290 l 1206 1290 q 1115 1242 1141 1290 l 780 615 l 780 153 q 795 115 780 131 q 831 99 810 99 l 873 99 l 873 0 l 444 0 l 444 99 l 486 99 q 524 115 508 99 q 540 153 540 131 l 540 552 l 188 1210 q 143 1271 165 1252 q 91 1290 121 1290 l 69 1290 l 69 1389 l 496 1389 l 496 1290 l 472 1290 q 429 1262 429 1290 q 438 1232 429 1252 l 704 744 l 970 1236 q 980 1266 980 1256 q 940 1290 980 1290 l 913 1290 l 913 1389 l 1246 1389 m 659 -248 q 601 -223 625 -248 q 577 -165 577 -198 q 601 -108 577 -133 q 659 -83 625 -83 q 715 -108 690 -83 q 740 -165 740 -133 q 716 -223 740 -198 q 659 -248 692 -248 z "},"Ỳ":{"ha":1315,"x_min":69,"x_max":1246,"o":"m 1246 1389 l 1246 1290 l 1206 1290 q 1115 1242 1141 1290 l 780 615 l 780 153 q 795 115 780 131 q 831 99 810 99 l 873 99 l 873 0 l 444 0 l 444 99 l 486 99 q 524 115 508 99 q 540 153 540 131 l 540 552 l 188 1210 q 143 1271 165 1252 q 91 1290 121 1290 l 69 1290 l 69 1389 l 496 1389 l 496 1290 l 472 1290 q 429 1262 429 1290 q 438 1232 429 1252 l 704 744 l 970 1236 q 980 1266 980 1256 q 940 1290 980 1290 l 913 1290 l 913 1389 l 1246 1389 m 538 1623 l 613 1726 l 869 1522 l 823 1456 l 538 1623 z "},"Ỷ":{"ha":1315,"x_min":69,"x_max":1246,"o":"m 1246 1389 l 1246 1290 l 1206 1290 q 1115 1242 1141 1290 l 780 615 l 780 153 q 795 115 780 131 q 831 99 810 99 l 873 99 l 873 0 l 444 0 l 444 99 l 486 99 q 524 115 508 99 q 540 153 540 131 l 540 552 l 188 1210 q 143 1271 165 1252 q 91 1290 121 1290 l 69 1290 l 69 1389 l 496 1389 l 496 1290 l 472 1290 q 429 1262 429 1290 q 438 1232 429 1252 l 704 744 l 970 1236 q 980 1266 980 1256 q 940 1290 980 1290 l 913 1290 l 913 1389 l 1246 1389 m 657 1442 q 716 1552 657 1502 q 746 1603 746 1577 q 731 1640 746 1627 q 694 1653 716 1653 q 633 1619 655 1653 l 589 1683 q 643 1735 609 1716 q 714 1754 677 1754 q 813 1714 774 1754 q 853 1617 853 1675 q 833 1547 853 1579 q 774 1494 813 1514 q 748 1472 760 1486 q 736 1442 736 1458 l 657 1442 z "},"Ỹ":{"ha":1315,"x_min":69,"x_max":1246,"o":"m 1246 1389 l 1246 1290 l 1206 1290 q 1115 1242 1141 1290 l 780 615 l 780 153 q 795 115 780 131 q 831 99 810 99 l 873 99 l 873 0 l 444 0 l 444 99 l 486 99 q 524 115 508 99 q 540 153 540 131 l 540 552 l 188 1210 q 143 1271 165 1252 q 91 1290 121 1290 l 69 1290 l 69 1389 l 496 1389 l 496 1290 l 472 1290 q 429 1262 429 1290 q 438 1232 429 1252 l 704 744 l 970 1236 q 980 1266 980 1256 q 940 1290 980 1290 l 913 1290 l 913 1389 l 1246 1389 m 478 1552 q 528 1605 492 1587 q 611 1623 563 1623 q 720 1603 661 1623 q 831 1579 788 1579 q 919 1617 889 1579 l 931 1540 q 873 1486 913 1504 q 784 1468 833 1468 q 685 1488 730 1468 q 577 1514 631 1514 q 488 1478 518 1514 l 478 1552 z "},"Z":{"ha":1165,"x_min":83,"x_max":1056,"o":"m 1056 339 l 1056 0 l 83 0 l 83 12 l 677 1252 l 317 1252 q 285 1239 298 1252 q 272 1208 272 1226 l 272 1052 l 181 1052 l 181 1389 l 1020 1389 l 1020 1377 l 421 137 l 929 137 q 948 147 938 137 q 958 171 958 157 l 958 339 l 1056 339 z "},"Ź":{"ha":1165,"x_min":83,"x_max":1056,"o":"m 1056 339 l 1056 0 l 83 0 l 83 12 l 677 1252 l 317 1252 q 285 1239 298 1252 q 272 1208 272 1226 l 272 1052 l 181 1052 l 181 1389 l 1020 1389 l 1020 1377 l 421 137 l 929 137 q 948 147 938 137 q 958 171 958 157 l 958 339 l 1056 339 m 437 1522 l 692 1726 l 768 1623 l 482 1456 l 437 1522 z "},"Ž":{"ha":1165,"x_min":83,"x_max":1056,"o":"m 1056 339 l 1056 0 l 83 0 l 83 12 l 677 1252 l 317 1252 q 285 1239 298 1252 q 272 1208 272 1226 l 272 1052 l 181 1052 l 181 1389 l 1020 1389 l 1020 1377 l 421 137 l 929 137 q 948 147 938 137 q 958 171 958 157 l 958 339 l 1056 339 m 601 1593 l 823 1665 l 823 1587 l 601 1454 l 381 1587 l 381 1665 l 601 1593 z "},"Ż":{"ha":1165,"x_min":83,"x_max":1056,"o":"m 1056 339 l 1056 0 l 83 0 l 83 12 l 677 1252 l 317 1252 q 285 1239 298 1252 q 272 1208 272 1226 l 272 1052 l 181 1052 l 181 1389 l 1020 1389 l 1020 1377 l 421 137 l 929 137 q 948 147 938 137 q 958 171 958 157 l 958 339 l 1056 339 m 603 1470 q 546 1495 569 1470 q 522 1554 522 1520 q 546 1611 522 1587 q 603 1635 569 1635 q 660 1611 635 1635 q 685 1554 685 1587 q 661 1495 685 1520 q 603 1470 637 1470 z "},"a":{"ha":1188,"x_min":58,"x_max":1131,"o":"m 1131 83 l 1131 0 l 772 0 l 772 83 l 804 83 q 827 96 819 83 q 829 123 835 109 l 762 290 l 327 290 l 260 123 q 258 111 258 119 q 267 92 258 101 q 288 83 276 83 l 331 83 l 331 0 l 58 0 l 58 83 l 97 83 q 124 91 111 83 q 143 113 137 99 l 591 1192 l 597 1192 l 1046 113 q 1064 91 1052 99 q 1093 83 1077 83 l 1131 83 m 720 391 l 544 821 l 369 391 l 720 391 z "},"á":{"ha":1188,"x_min":58,"x_max":1131,"o":"m 1131 83 l 1131 0 l 772 0 l 772 83 l 804 83 q 827 96 819 83 q 829 123 835 109 l 762 290 l 327 290 l 260 123 q 258 111 258 119 q 267 92 258 101 q 288 83 276 83 l 331 83 l 331 0 l 58 0 l 58 83 l 97 83 q 124 91 111 83 q 143 113 137 99 l 591 1192 l 597 1192 l 1046 113 q 1064 91 1052 99 q 1093 83 1077 83 l 1131 83 m 720 391 l 544 821 l 369 391 l 720 391 m 427 1331 l 683 1536 l 758 1433 l 472 1266 l 427 1331 z "},"ă":{"ha":1188,"x_min":58,"x_max":1131,"o":"m 1131 83 l 1131 0 l 772 0 l 772 83 l 804 83 q 827 96 819 83 q 829 123 835 109 l 762 290 l 327 290 l 260 123 q 258 111 258 119 q 267 92 258 101 q 288 83 276 83 l 331 83 l 331 0 l 58 0 l 58 83 l 97 83 q 124 91 111 83 q 143 113 137 99 l 591 1192 l 597 1192 l 1046 113 q 1064 91 1052 99 q 1093 83 1077 83 l 1131 83 m 720 391 l 544 821 l 369 391 l 720 391 m 591 1274 q 445 1318 516 1274 q 357 1425 375 1363 l 411 1474 q 591 1397 476 1397 q 772 1474 706 1397 l 827 1425 q 734 1317 804 1361 q 591 1274 665 1274 z "},"ắ":{"ha":1188,"x_min":58,"x_max":1131,"o":"m 1131 83 l 1131 0 l 772 0 l 772 83 l 804 83 q 827 96 819 83 q 829 123 835 109 l 762 290 l 327 290 l 260 123 q 258 111 258 119 q 267 92 258 101 q 288 83 276 83 l 331 83 l 331 0 l 58 0 l 58 83 l 97 83 q 124 91 111 83 q 143 113 137 99 l 591 1192 l 597 1192 l 1046 113 q 1064 91 1052 99 q 1093 83 1077 83 l 1131 83 m 720 391 l 544 821 l 369 391 l 720 391 z "},"ặ":{"ha":1188,"x_min":58,"x_max":1131,"o":"m 1131 83 l 1131 0 l 772 0 l 772 83 l 804 83 q 827 96 819 83 q 829 123 835 109 l 762 290 l 327 290 l 260 123 q 258 111 258 119 q 267 92 258 101 q 288 83 276 83 l 331 83 l 331 0 l 58 0 l 58 83 l 97 83 q 124 91 111 83 q 143 113 137 99 l 591 1192 l 597 1192 l 1046 113 q 1064 91 1052 99 q 1093 83 1077 83 l 1131 83 m 720 391 l 544 821 l 369 391 l 720 391 m 562 -248 q 504 -223 528 -248 q 480 -165 480 -198 q 504 -108 480 -133 q 562 -83 528 -83 q 618 -108 593 -83 q 643 -165 643 -133 q 619 -223 643 -198 q 562 -248 595 -248 m 591 1274 q 445 1318 516 1274 q 357 1425 375 1363 l 411 1474 q 591 1397 476 1397 q 772 1474 706 1397 l 827 1425 q 734 1317 804 1361 q 591 1274 665 1274 z "},"ằ":{"ha":1188,"x_min":58,"x_max":1131,"o":"m 1131 83 l 1131 0 l 772 0 l 772 83 l 804 83 q 827 96 819 83 q 829 123 835 109 l 762 290 l 327 290 l 260 123 q 258 111 258 119 q 267 92 258 101 q 288 83 276 83 l 331 83 l 331 0 l 58 0 l 58 83 l 97 83 q 124 91 111 83 q 143 113 137 99 l 591 1192 l 597 1192 l 1046 113 q 1064 91 1052 99 q 1093 83 1077 83 l 1131 83 m 720 391 l 544 821 l 369 391 l 720 391 z "},"ẳ":{"ha":1188,"x_min":58,"x_max":1131,"o":"m 1131 83 l 1131 0 l 772 0 l 772 83 l 804 83 q 827 96 819 83 q 829 123 835 109 l 762 290 l 327 290 l 260 123 q 258 111 258 119 q 267 92 258 101 q 288 83 276 83 l 331 83 l 331 0 l 58 0 l 58 83 l 97 83 q 124 91 111 83 q 143 113 137 99 l 591 1192 l 597 1192 l 1046 113 q 1064 91 1052 99 q 1093 83 1077 83 l 1131 83 m 720 391 l 544 821 l 369 391 l 720 391 z "},"ẵ":{"ha":1188,"x_min":58,"x_max":1131,"o":"m 1131 83 l 1131 0 l 772 0 l 772 83 l 804 83 q 827 96 819 83 q 829 123 835 109 l 762 290 l 327 290 l 260 123 q 258 111 258 119 q 267 92 258 101 q 288 83 276 83 l 331 83 l 331 0 l 58 0 l 58 83 l 97 83 q 124 91 111 83 q 143 113 137 99 l 591 1192 l 597 1192 l 1046 113 q 1064 91 1052 99 q 1093 83 1077 83 l 1131 83 m 720 391 l 544 821 l 369 391 l 720 391 z "},"ǎ":{"ha":1188,"x_min":58,"x_max":1131,"o":"m 1131 83 l 1131 0 l 772 0 l 772 83 l 804 83 q 827 96 819 83 q 829 123 835 109 l 762 290 l 327 290 l 260 123 q 258 111 258 119 q 267 92 258 101 q 288 83 276 83 l 331 83 l 331 0 l 58 0 l 58 83 l 97 83 q 124 91 111 83 q 143 113 137 99 l 591 1192 l 597 1192 l 1046 113 q 1064 91 1052 99 q 1093 83 1077 83 l 1131 83 m 720 391 l 544 821 l 369 391 l 720 391 m 591 1403 l 813 1474 l 813 1397 l 591 1264 l 371 1397 l 371 1474 l 591 1403 z "},"â":{"ha":1188,"x_min":58,"x_max":1131,"o":"m 1131 83 l 1131 0 l 772 0 l 772 83 l 804 83 q 827 96 819 83 q 829 123 835 109 l 762 290 l 327 290 l 260 123 q 258 111 258 119 q 267 92 258 101 q 288 83 276 83 l 331 83 l 331 0 l 58 0 l 58 83 l 97 83 q 124 91 111 83 q 143 113 137 99 l 591 1192 l 597 1192 l 1046 113 q 1064 91 1052 99 q 1093 83 1077 83 l 1131 83 m 720 391 l 544 821 l 369 391 l 720 391 m 371 1329 l 591 1462 l 813 1329 l 813 1252 l 591 1323 l 371 1252 l 371 1329 z "},"ấ":{"ha":1188,"x_min":58,"x_max":1131,"o":"m 1131 83 l 1131 0 l 772 0 l 772 83 l 804 83 q 827 96 819 83 q 829 123 835 109 l 762 290 l 327 290 l 260 123 q 258 111 258 119 q 267 92 258 101 q 288 83 276 83 l 331 83 l 331 0 l 58 0 l 58 83 l 97 83 q 124 91 111 83 q 143 113 137 99 l 591 1192 l 597 1192 l 1046 113 q 1064 91 1052 99 q 1093 83 1077 83 l 1131 83 m 720 391 l 544 821 l 369 391 l 720 391 z "},"ậ":{"ha":1188,"x_min":58,"x_max":1131,"o":"m 1131 83 l 1131 0 l 772 0 l 772 83 l 804 83 q 827 96 819 83 q 829 123 835 109 l 762 290 l 327 290 l 260 123 q 258 111 258 119 q 267 92 258 101 q 288 83 276 83 l 331 83 l 331 0 l 58 0 l 58 83 l 97 83 q 124 91 111 83 q 143 113 137 99 l 591 1192 l 597 1192 l 1046 113 q 1064 91 1052 99 q 1093 83 1077 83 l 1131 83 m 720 391 l 544 821 l 369 391 l 720 391 m 562 -248 q 504 -223 528 -248 q 480 -165 480 -198 q 504 -108 480 -133 q 562 -83 528 -83 q 618 -108 593 -83 q 643 -165 643 -133 q 619 -223 643 -198 q 562 -248 595 -248 m 371 1329 l 591 1462 l 813 1329 l 813 1252 l 591 1323 l 371 1252 l 371 1329 z "},"ầ":{"ha":1188,"x_min":58,"x_max":1131,"o":"m 1131 83 l 1131 0 l 772 0 l 772 83 l 804 83 q 827 96 819 83 q 829 123 835 109 l 762 290 l 327 290 l 260 123 q 258 111 258 119 q 267 92 258 101 q 288 83 276 83 l 331 83 l 331 0 l 58 0 l 58 83 l 97 83 q 124 91 111 83 q 143 113 137 99 l 591 1192 l 597 1192 l 1046 113 q 1064 91 1052 99 q 1093 83 1077 83 l 1131 83 m 720 391 l 544 821 l 369 391 l 720 391 m 587 1575 l 671 1673 l 911 1450 l 861 1389 l 587 1575 m 371 1329 l 591 1462 l 813 1329 l 813 1252 l 591 1323 l 371 1252 l 371 1329 z "},"ẩ":{"ha":1188,"x_min":58,"x_max":1131,"o":"m 1131 83 l 1131 0 l 772 0 l 772 83 l 804 83 q 827 96 819 83 q 829 123 835 109 l 762 290 l 327 290 l 260 123 q 258 111 258 119 q 267 92 258 101 q 288 83 276 83 l 331 83 l 331 0 l 58 0 l 58 83 l 97 83 q 124 91 111 83 q 143 113 137 99 l 591 1192 l 597 1192 l 1046 113 q 1064 91 1052 99 q 1093 83 1077 83 l 1131 83 m 720 391 l 544 821 l 369 391 l 720 391 z "},"ẫ":{"ha":1188,"x_min":58,"x_max":1131,"o":"m 1131 83 l 1131 0 l 772 0 l 772 83 l 804 83 q 827 96 819 83 q 829 123 835 109 l 762 290 l 327 290 l 260 123 q 258 111 258 119 q 267 92 258 101 q 288 83 276 83 l 331 83 l 331 0 l 58 0 l 58 83 l 97 83 q 124 91 111 83 q 143 113 137 99 l 591 1192 l 597 1192 l 1046 113 q 1064 91 1052 99 q 1093 83 1077 83 l 1131 83 m 720 391 l 544 821 l 369 391 l 720 391 z "},"ä":{"ha":1188,"x_min":58,"x_max":1131,"o":"m 1131 83 l 1131 0 l 772 0 l 772 83 l 804 83 q 827 96 819 83 q 829 123 835 109 l 762 290 l 327 290 l 260 123 q 258 111 258 119 q 267 92 258 101 q 288 83 276 83 l 331 83 l 331 0 l 58 0 l 58 83 l 97 83 q 124 91 111 83 q 143 113 137 99 l 591 1192 l 597 1192 l 1046 113 q 1064 91 1052 99 q 1093 83 1077 83 l 1131 83 m 720 391 l 544 821 l 369 391 l 720 391 m 435 1280 q 377 1305 401 1280 q 353 1363 353 1329 q 377 1421 353 1397 q 435 1444 401 1444 q 491 1421 466 1444 q 516 1363 516 1397 q 492 1305 516 1329 q 435 1280 468 1280 m 752 1280 q 694 1305 718 1280 q 671 1363 671 1329 q 694 1421 671 1397 q 752 1444 718 1444 q 809 1421 784 1444 q 833 1363 833 1397 q 810 1305 833 1329 q 752 1280 786 1280 z "},"ạ":{"ha":1188,"x_min":58,"x_max":1131,"o":"m 1131 83 l 1131 0 l 772 0 l 772 83 l 804 83 q 827 96 819 83 q 829 123 835 109 l 762 290 l 327 290 l 260 123 q 258 111 258 119 q 267 92 258 101 q 288 83 276 83 l 331 83 l 331 0 l 58 0 l 58 83 l 97 83 q 124 91 111 83 q 143 113 137 99 l 591 1192 l 597 1192 l 1046 113 q 1064 91 1052 99 q 1093 83 1077 83 l 1131 83 m 720 391 l 544 821 l 369 391 l 720 391 m 562 -248 q 504 -223 528 -248 q 480 -165 480 -198 q 504 -108 480 -133 q 562 -83 528 -83 q 618 -108 593 -83 q 643 -165 643 -133 q 619 -223 643 -198 q 562 -248 595 -248 z "},"à":{"ha":1188,"x_min":58,"x_max":1131,"o":"m 1131 83 l 1131 0 l 772 0 l 772 83 l 804 83 q 827 96 819 83 q 829 123 835 109 l 762 290 l 327 290 l 260 123 q 258 111 258 119 q 267 92 258 101 q 288 83 276 83 l 331 83 l 331 0 l 58 0 l 58 83 l 97 83 q 124 91 111 83 q 143 113 137 99 l 591 1192 l 597 1192 l 1046 113 q 1064 91 1052 99 q 1093 83 1077 83 l 1131 83 m 720 391 l 544 821 l 369 391 l 720 391 m 427 1433 l 502 1536 l 758 1331 l 712 1266 l 427 1433 z "},"ả":{"ha":1188,"x_min":58,"x_max":1131,"o":"m 1131 83 l 1131 0 l 772 0 l 772 83 l 804 83 q 827 96 819 83 q 829 123 835 109 l 762 290 l 327 290 l 260 123 q 258 111 258 119 q 267 92 258 101 q 288 83 276 83 l 331 83 l 331 0 l 58 0 l 58 83 l 97 83 q 124 91 111 83 q 143 113 137 99 l 591 1192 l 597 1192 l 1046 113 q 1064 91 1052 99 q 1093 83 1077 83 l 1131 83 m 720 391 l 544 821 l 369 391 l 720 391 m 546 1278 q 605 1387 546 1337 q 635 1438 635 1413 q 620 1475 635 1462 q 583 1488 605 1488 q 522 1454 544 1488 l 478 1518 q 532 1570 498 1552 q 603 1589 565 1589 q 702 1550 663 1589 q 742 1452 742 1510 q 722 1382 742 1415 q 663 1329 702 1349 q 637 1308 649 1321 q 625 1278 625 1294 l 546 1278 z "},"ā":{"ha":1188,"x_min":58,"x_max":1131,"o":"m 1131 83 l 1131 0 l 772 0 l 772 83 l 804 83 q 827 96 819 83 q 829 123 835 109 l 762 290 l 327 290 l 260 123 q 258 111 258 119 q 267 92 258 101 q 288 83 276 83 l 331 83 l 331 0 l 58 0 l 58 83 l 97 83 q 124 91 111 83 q 143 113 137 99 l 591 1192 l 597 1192 l 1046 113 q 1064 91 1052 99 q 1093 83 1077 83 l 1131 83 m 720 391 l 544 821 l 369 391 l 720 391 m 369 1415 l 819 1415 l 819 1296 l 369 1296 l 369 1415 z "},"ą":{"ha":1188,"x_min":58,"x_max":1131,"o":"m 982 0 q 900 -45 933 -10 q 867 -117 867 -79 q 873 -141 867 -129 q 925 -177 891 -177 q 986 -153 952 -177 l 1026 -206 q 968 -260 1002 -242 q 897 -278 935 -278 q 798 -241 839 -278 q 756 -143 756 -204 q 833 0 756 -50 l 772 0 l 772 83 l 804 83 q 827 96 819 83 q 829 123 835 109 l 762 290 l 327 290 l 260 123 q 258 111 258 119 q 267 92 258 101 q 288 83 276 83 l 331 83 l 331 0 l 58 0 l 58 83 l 97 83 q 124 91 111 83 q 143 113 137 99 l 591 1192 l 597 1192 l 1046 113 q 1064 91 1052 99 q 1093 83 1077 83 l 1131 83 l 1131 0 l 982 0 m 720 391 l 544 821 l 369 391 l 720 391 z "},"å":{"ha":1188,"x_min":58,"x_max":1131,"o":"m 1131 83 l 1131 0 l 772 0 l 772 83 l 804 83 q 827 96 819 83 q 829 123 835 109 l 762 290 l 327 290 l 260 123 q 258 111 258 119 q 267 92 258 101 q 288 83 276 83 l 331 83 l 331 0 l 58 0 l 58 83 l 97 83 q 124 91 111 83 q 143 113 137 99 l 563 1127 q 466 1186 506 1139 q 427 1292 427 1232 q 476 1408 427 1359 q 593 1456 526 1456 q 708 1407 659 1456 q 758 1292 758 1357 q 719 1186 758 1232 q 623 1129 681 1139 l 1046 113 q 1064 91 1052 99 q 1093 83 1077 83 l 1131 83 m 512 1292 q 535 1232 512 1256 q 593 1208 558 1208 q 651 1232 627 1208 q 675 1292 675 1256 q 651 1348 675 1325 q 593 1371 627 1371 q 535 1348 558 1371 q 512 1292 512 1325 m 720 391 l 544 821 l 369 391 l 720 391 z "},"ã":{"ha":1188,"x_min":58,"x_max":1131,"o":"m 1131 83 l 1131 0 l 772 0 l 772 83 l 804 83 q 827 96 819 83 q 829 123 835 109 l 762 290 l 327 290 l 260 123 q 258 111 258 119 q 267 92 258 101 q 288 83 276 83 l 331 83 l 331 0 l 58 0 l 58 83 l 97 83 q 124 91 111 83 q 143 113 137 99 l 591 1192 l 597 1192 l 1046 113 q 1064 91 1052 99 q 1093 83 1077 83 l 1131 83 m 720 391 l 544 821 l 369 391 l 720 391 m 367 1361 q 417 1415 381 1397 q 500 1433 452 1433 q 609 1413 550 1433 q 720 1389 677 1389 q 808 1427 778 1389 l 819 1349 q 762 1296 802 1313 q 673 1278 722 1278 q 573 1298 619 1278 q 466 1323 520 1323 q 377 1288 407 1323 l 367 1361 z "},"æ":{"ha":1579,"x_min":56,"x_max":1498,"o":"m 1498 248 l 1415 0 l 704 0 l 704 83 l 730 83 q 763 96 750 83 q 776 127 776 109 l 776 290 l 383 290 l 288 143 q 280 119 280 127 q 290 95 280 105 q 315 85 300 85 l 335 85 l 335 0 l 56 0 l 56 85 l 79 85 q 177 159 127 85 l 710 986 q 734 1044 734 1020 q 714 1073 734 1065 l 704 1073 l 704 1155 l 1397 1155 l 1397 938 l 1306 938 l 1306 976 q 1230 1054 1306 1054 l 972 1054 l 972 661 l 1167 661 q 1191 672 1181 661 q 1202 696 1202 683 l 1202 756 l 1290 756 l 1290 462 l 1202 462 l 1202 526 q 1192 550 1202 540 q 1167 560 1183 560 l 972 560 l 972 157 q 1194 105 1044 105 q 1329 139 1270 105 q 1421 268 1389 173 l 1498 248 m 776 391 l 776 895 l 448 391 l 776 391 z "},"b":{"ha":962,"x_min":99,"x_max":885,"o":"m 694 619 q 834 495 784 579 q 885 315 885 411 q 841 154 885 226 q 718 41 798 81 q 540 0 639 0 l 99 0 l 99 83 l 133 83 q 166 96 153 83 q 179 127 179 109 l 179 1032 q 166 1061 179 1048 q 133 1073 153 1073 l 99 1073 l 99 1157 l 510 1157 q 732 1079 641 1157 q 823 865 823 1002 q 789 721 823 786 q 694 619 754 657 m 379 651 l 431 651 q 577 707 522 651 q 633 859 633 764 q 569 1001 633 950 q 407 1052 506 1052 l 379 1052 l 379 651 m 470 119 q 629 181 575 119 q 683 331 683 242 q 612 482 683 429 q 444 536 542 536 l 379 536 l 379 165 q 470 119 379 119 z "},"c":{"ha":998,"x_min":58,"x_max":919,"o":"m 540 -36 q 286 37 395 -36 q 117 246 177 109 q 58 571 58 383 q 196 1046 58 903 q 540 1188 335 1188 q 609 1182 579 1188 q 664 1165 639 1175 q 700 1151 688 1155 q 736 1143 728 1143 q 788 1171 768 1143 l 885 1171 l 885 798 l 778 798 q 720 998 778 915 q 538 1081 663 1081 q 401 1026 466 1081 q 293 854 335 970 q 250 569 250 738 q 334 195 250 317 q 563 73 419 73 q 753 153 685 73 q 819 401 821 232 l 917 399 q 919 343 919 379 q 813 53 919 141 q 540 -36 706 -36 z "},"ć":{"ha":998,"x_min":58,"x_max":919,"o":"m 540 -36 q 286 37 395 -36 q 117 246 177 109 q 58 571 58 383 q 196 1046 58 903 q 540 1188 335 1188 q 609 1182 579 1188 q 664 1165 639 1175 q 700 1151 688 1155 q 736 1143 728 1143 q 788 1171 768 1143 l 885 1171 l 885 798 l 778 798 q 720 998 778 915 q 538 1081 663 1081 q 401 1026 466 1081 q 293 854 335 970 q 250 569 250 738 q 334 195 250 317 q 563 73 419 73 q 753 153 685 73 q 819 401 821 232 l 917 399 q 919 343 919 379 q 813 53 919 141 q 540 -36 706 -36 m 373 1312 l 629 1516 l 704 1413 l 419 1246 l 373 1312 z "},"č":{"ha":998,"x_min":58,"x_max":919,"o":"m 540 -36 q 286 37 395 -36 q 117 246 177 109 q 58 571 58 383 q 196 1046 58 903 q 540 1188 335 1188 q 609 1182 579 1188 q 664 1165 639 1175 q 700 1151 688 1155 q 736 1143 728 1143 q 788 1171 768 1143 l 885 1171 l 885 798 l 778 798 q 720 998 778 915 q 538 1081 663 1081 q 401 1026 466 1081 q 293 854 335 970 q 250 569 250 738 q 334 195 250 317 q 563 73 419 73 q 753 153 685 73 q 819 401 821 232 l 917 399 q 919 343 919 379 q 813 53 919 141 q 540 -36 706 -36 m 538 1383 l 760 1454 l 760 1377 l 538 1244 l 317 1377 l 317 1454 l 538 1383 z "},"ç":{"ha":998,"x_min":58,"x_max":919,"o":"m 917 399 q 919 345 919 379 q 826 67 919 157 q 585 -34 734 -22 l 575 -54 q 631 -99 605 -67 q 657 -179 657 -131 q 614 -278 657 -240 q 512 -315 571 -315 q 443 -299 476 -315 q 391 -248 411 -282 l 433 -198 q 498 -222 466 -222 q 535 -208 520 -222 q 550 -175 550 -194 q 522 -128 550 -145 q 440 -111 494 -111 l 476 -32 q 171 150 284 -10 q 58 571 58 310 q 196 1046 58 903 q 540 1188 335 1188 q 609 1182 579 1188 q 664 1165 639 1175 q 700 1151 688 1155 q 736 1143 728 1143 q 788 1171 768 1143 l 885 1171 l 885 798 l 778 798 q 720 998 778 915 q 538 1081 663 1081 q 401 1026 466 1081 q 293 854 335 970 q 250 569 250 738 q 334 195 250 317 q 563 73 419 73 q 753 153 685 73 q 819 401 821 232 l 917 399 z "},"ċ":{"ha":998,"x_min":58,"x_max":919,"o":"m 540 -36 q 286 37 395 -36 q 117 246 177 109 q 58 571 58 383 q 196 1046 58 903 q 540 1188 335 1188 q 609 1182 579 1188 q 664 1165 639 1175 q 700 1151 688 1155 q 736 1143 728 1143 q 788 1171 768 1143 l 885 1171 l 885 798 l 778 798 q 720 998 778 915 q 538 1081 663 1081 q 401 1026 466 1081 q 293 854 335 970 q 250 569 250 738 q 334 195 250 317 q 563 73 419 73 q 753 153 685 73 q 819 401 821 232 l 917 399 q 919 343 919 379 q 813 53 919 141 q 540 -36 706 -36 m 540 1260 q 482 1285 506 1260 q 458 1343 458 1310 q 482 1401 458 1377 q 540 1425 506 1425 q 596 1401 571 1425 q 621 1343 621 1377 q 597 1285 621 1310 q 540 1260 573 1260 z "},"d":{"ha":1113,"x_min":99,"x_max":1048,"o":"m 875 1063 q 1000 892 952 1006 q 1048 569 1048 778 q 1017 313 1048 413 q 942 163 986 214 q 837 67 899 111 q 532 0 738 0 l 99 0 l 99 83 l 143 83 q 174 96 161 83 q 187 125 187 109 l 187 1030 q 174 1061 187 1048 q 143 1073 161 1073 l 99 1073 l 99 1157 l 510 1157 q 732 1135 657 1157 q 875 1063 808 1113 m 520 113 q 778 250 710 113 q 845 599 845 387 q 772 899 845 756 q 478 1042 698 1042 l 383 1042 l 383 155 q 520 113 435 113 z "},"ð":{"ha":1113,"x_min":99,"x_max":1048,"o":"m 875 1063 q 1000 892 952 1006 q 1048 569 1048 778 q 1017 313 1048 413 q 942 163 986 214 q 837 67 899 111 q 532 0 738 0 l 99 0 l 99 83 l 143 83 q 174 96 161 83 q 187 125 187 109 l 187 550 l 105 550 l 105 677 l 187 677 l 187 1030 q 174 1061 187 1048 q 143 1073 161 1073 l 99 1073 l 99 1157 l 510 1157 q 732 1135 657 1157 q 875 1063 808 1113 m 520 113 q 778 250 710 113 q 845 599 845 387 q 772 899 845 756 q 478 1042 698 1042 l 383 1042 l 383 677 l 583 677 l 583 550 l 383 550 l 383 155 q 520 113 435 113 z "},"ď":{"ha":1252,"x_min":99,"x_max":1228,"o":"m 875 1063 q 1000 892 952 1006 q 1048 569 1048 778 q 1017 313 1048 413 q 942 163 986 214 q 837 67 899 111 q 532 0 738 0 l 99 0 l 99 83 l 143 83 q 174 96 161 83 q 187 125 187 109 l 187 1030 q 174 1061 187 1048 q 143 1073 161 1073 l 99 1073 l 99 1157 l 510 1157 q 732 1135 657 1157 q 875 1063 808 1113 m 520 113 q 778 250 710 113 q 845 599 845 387 q 772 899 845 756 q 478 1042 698 1042 l 383 1042 l 383 155 q 520 113 435 113 m 1101 929 q 1131 1018 1131 978 q 1090 1047 1107 1026 q 1073 1093 1073 1067 q 1096 1148 1073 1125 q 1149 1171 1119 1171 q 1205 1143 1183 1171 q 1228 1081 1228 1115 q 1207 1002 1228 1038 q 1157 946 1187 966 q 1101 929 1127 927 z "},"đ":{"ha":1113,"x_min":99,"x_max":1048,"o":"m 875 1063 q 1000 892 952 1006 q 1048 569 1048 778 q 1017 313 1048 413 q 942 163 986 214 q 837 67 899 111 q 532 0 738 0 l 99 0 l 99 83 l 143 83 q 174 96 161 83 q 187 125 187 109 l 187 550 l 105 550 l 105 677 l 187 677 l 187 1030 q 174 1061 187 1048 q 143 1073 161 1073 l 99 1073 l 99 1157 l 510 1157 q 732 1135 657 1157 q 875 1063 808 1113 m 520 113 q 778 250 710 113 q 845 599 845 387 q 772 899 845 756 q 478 1042 698 1042 l 383 1042 l 383 677 l 583 677 l 583 550 l 383 550 l 383 155 q 520 113 435 113 z "},"e":{"ha":974,"x_min":99,"x_max":893,"o":"m 893 248 l 810 0 l 99 0 l 99 83 l 125 83 q 158 96 145 83 q 171 127 171 109 l 171 1028 q 158 1061 171 1048 q 125 1073 145 1073 l 99 1073 l 99 1155 l 792 1155 l 792 938 l 700 938 l 700 976 q 625 1054 700 1054 l 367 1054 l 367 661 l 562 661 q 586 672 575 661 q 597 696 597 683 l 597 756 l 685 756 l 685 462 l 597 462 l 597 526 q 587 550 597 540 q 562 560 577 560 l 367 560 l 367 157 q 589 105 440 105 q 725 138 667 105 q 817 268 784 171 l 893 248 z "},"é":{"ha":974,"x_min":99,"x_max":893,"o":"m 893 248 l 810 0 l 99 0 l 99 83 l 125 83 q 158 96 145 83 q 171 127 171 109 l 171 1028 q 158 1061 171 1048 q 125 1073 145 1073 l 99 1073 l 99 1155 l 792 1155 l 792 938 l 700 938 l 700 976 q 625 1054 700 1054 l 367 1054 l 367 661 l 562 661 q 586 672 575 661 q 597 696 597 683 l 597 756 l 685 756 l 685 462 l 597 462 l 597 526 q 587 550 597 540 q 562 560 577 560 l 367 560 l 367 157 q 589 105 440 105 q 725 138 667 105 q 817 268 784 171 l 893 248 m 325 1290 l 581 1494 l 657 1391 l 371 1224 l 325 1290 z "},"ě":{"ha":974,"x_min":99,"x_max":893,"o":"m 893 248 l 810 0 l 99 0 l 99 83 l 125 83 q 158 96 145 83 q 171 127 171 109 l 171 1028 q 158 1061 171 1048 q 125 1073 145 1073 l 99 1073 l 99 1155 l 792 1155 l 792 938 l 700 938 l 700 976 q 625 1054 700 1054 l 367 1054 l 367 661 l 562 661 q 586 672 575 661 q 597 696 597 683 l 597 756 l 685 756 l 685 462 l 597 462 l 597 526 q 587 550 597 540 q 562 560 577 560 l 367 560 l 367 157 q 589 105 440 105 q 725 138 667 105 q 817 268 784 171 l 893 248 m 490 1361 l 712 1433 l 712 1355 l 490 1222 l 270 1355 l 270 1433 l 490 1361 z "},"ê":{"ha":974,"x_min":99,"x_max":893,"o":"m 893 248 l 810 0 l 99 0 l 99 83 l 125 83 q 158 96 145 83 q 171 127 171 109 l 171 1028 q 158 1061 171 1048 q 125 1073 145 1073 l 99 1073 l 99 1155 l 792 1155 l 792 938 l 700 938 l 700 976 q 625 1054 700 1054 l 367 1054 l 367 661 l 562 661 q 586 672 575 661 q 597 696 597 683 l 597 756 l 685 756 l 685 462 l 597 462 l 597 526 q 587 550 597 540 q 562 560 577 560 l 367 560 l 367 157 q 589 105 440 105 q 725 138 667 105 q 817 268 784 171 l 893 248 m 270 1312 l 490 1444 l 712 1312 l 712 1234 l 490 1306 l 270 1234 l 270 1312 z "},"ế":{"ha":974,"x_min":99,"x_max":954,"o":"m 893 248 l 810 0 l 99 0 l 99 83 l 125 83 q 158 96 145 83 q 171 127 171 109 l 171 1028 q 158 1061 171 1048 q 125 1073 145 1073 l 99 1073 l 99 1155 l 792 1155 l 792 938 l 700 938 l 700 976 q 625 1054 700 1054 l 367 1054 l 367 661 l 562 661 q 586 672 575 661 q 597 696 597 683 l 597 756 l 685 756 l 685 462 l 597 462 l 597 526 q 587 550 597 540 q 562 560 577 560 l 367 560 l 367 157 q 589 105 440 105 q 725 138 667 105 q 817 268 784 171 l 893 248 z "},"ệ":{"ha":974,"x_min":99,"x_max":893,"o":"m 893 248 l 810 0 l 99 0 l 99 83 l 125 83 q 158 96 145 83 q 171 127 171 109 l 171 1028 q 158 1061 171 1048 q 125 1073 145 1073 l 99 1073 l 99 1155 l 792 1155 l 792 938 l 700 938 l 700 976 q 625 1054 700 1054 l 367 1054 l 367 661 l 562 661 q 586 672 575 661 q 597 696 597 683 l 597 756 l 685 756 l 685 462 l 597 462 l 597 526 q 587 550 597 540 q 562 560 577 560 l 367 560 l 367 157 q 589 105 440 105 q 725 138 667 105 q 817 268 784 171 l 893 248 m 496 -248 q 438 -223 462 -248 q 415 -165 415 -198 q 438 -108 415 -133 q 496 -83 462 -83 q 553 -108 528 -83 q 577 -165 577 -133 q 554 -223 577 -198 q 496 -248 530 -248 m 270 1312 l 490 1444 l 712 1312 l 712 1234 l 490 1306 l 270 1234 l 270 1312 z "},"ề":{"ha":974,"x_min":99,"x_max":893,"o":"m 893 248 l 810 0 l 99 0 l 99 83 l 125 83 q 158 96 145 83 q 171 127 171 109 l 171 1028 q 158 1061 171 1048 q 125 1073 145 1073 l 99 1073 l 99 1155 l 792 1155 l 792 938 l 700 938 l 700 976 q 625 1054 700 1054 l 367 1054 l 367 661 l 562 661 q 586 672 575 661 q 597 696 597 683 l 597 756 l 685 756 l 685 462 l 597 462 l 597 526 q 587 550 597 540 q 562 560 577 560 l 367 560 l 367 157 q 589 105 440 105 q 725 138 667 105 q 817 268 784 171 l 893 248 m 486 1558 l 569 1655 l 810 1433 l 760 1371 l 486 1558 m 270 1312 l 490 1444 l 712 1312 l 712 1234 l 490 1306 l 270 1234 l 270 1312 z "},"ể":{"ha":974,"x_min":99,"x_max":893,"o":"m 893 248 l 810 0 l 99 0 l 99 83 l 125 83 q 158 96 145 83 q 171 127 171 109 l 171 1028 q 158 1061 171 1048 q 125 1073 145 1073 l 99 1073 l 99 1155 l 792 1155 l 792 938 l 700 938 l 700 976 q 625 1054 700 1054 l 367 1054 l 367 661 l 562 661 q 586 672 575 661 q 597 696 597 683 l 597 756 l 685 756 l 685 462 l 597 462 l 597 526 q 587 550 597 540 q 562 560 577 560 l 367 560 l 367 157 q 589 105 440 105 q 725 138 667 105 q 817 268 784 171 l 893 248 z "},"ễ":{"ha":974,"x_min":99,"x_max":893,"o":"m 893 248 l 810 0 l 99 0 l 99 83 l 125 83 q 158 96 145 83 q 171 127 171 109 l 171 1028 q 158 1061 171 1048 q 125 1073 145 1073 l 99 1073 l 99 1155 l 792 1155 l 792 938 l 700 938 l 700 976 q 625 1054 700 1054 l 367 1054 l 367 661 l 562 661 q 586 672 575 661 q 597 696 597 683 l 597 756 l 685 756 l 685 462 l 597 462 l 597 526 q 587 550 597 540 q 562 560 577 560 l 367 560 l 367 157 q 589 105 440 105 q 725 138 667 105 q 817 268 784 171 l 893 248 z "},"ë":{"ha":974,"x_min":99,"x_max":893,"o":"m 893 248 l 810 0 l 99 0 l 99 83 l 125 83 q 158 96 145 83 q 171 127 171 109 l 171 1028 q 158 1061 171 1048 q 125 1073 145 1073 l 99 1073 l 99 1155 l 792 1155 l 792 938 l 700 938 l 700 976 q 625 1054 700 1054 l 367 1054 l 367 661 l 562 661 q 586 672 575 661 q 597 696 597 683 l 597 756 l 685 756 l 685 462 l 597 462 l 597 526 q 587 550 597 540 q 562 560 577 560 l 367 560 l 367 157 q 589 105 440 105 q 725 138 667 105 q 817 268 784 171 l 893 248 m 333 1238 q 276 1263 300 1238 q 252 1321 252 1288 q 276 1379 252 1355 q 333 1403 300 1403 q 390 1379 365 1403 q 415 1321 415 1355 q 391 1263 415 1288 q 333 1238 367 1238 m 651 1238 q 593 1263 617 1238 q 569 1321 569 1288 q 593 1379 569 1355 q 651 1403 617 1403 q 707 1379 683 1403 q 732 1321 732 1355 q 708 1263 732 1288 q 651 1238 685 1238 z "},"ė":{"ha":974,"x_min":99,"x_max":893,"o":"m 893 248 l 810 0 l 99 0 l 99 83 l 125 83 q 158 96 145 83 q 171 127 171 109 l 171 1028 q 158 1061 171 1048 q 125 1073 145 1073 l 99 1073 l 99 1155 l 792 1155 l 792 938 l 700 938 l 700 976 q 625 1054 700 1054 l 367 1054 l 367 661 l 562 661 q 586 672 575 661 q 597 696 597 683 l 597 756 l 685 756 l 685 462 l 597 462 l 597 526 q 587 550 597 540 q 562 560 577 560 l 367 560 l 367 157 q 589 105 440 105 q 725 138 667 105 q 817 268 784 171 l 893 248 m 492 1238 q 435 1263 458 1238 q 411 1321 411 1288 q 435 1379 411 1355 q 492 1403 458 1403 q 549 1379 524 1403 q 573 1321 573 1355 q 550 1263 573 1288 q 492 1238 526 1238 z "},"ẹ":{"ha":974,"x_min":99,"x_max":893,"o":"m 893 248 l 810 0 l 99 0 l 99 83 l 125 83 q 158 96 145 83 q 171 127 171 109 l 171 1028 q 158 1061 171 1048 q 125 1073 145 1073 l 99 1073 l 99 1155 l 792 1155 l 792 938 l 700 938 l 700 976 q 625 1054 700 1054 l 367 1054 l 367 661 l 562 661 q 586 672 575 661 q 597 696 597 683 l 597 756 l 685 756 l 685 462 l 597 462 l 597 526 q 587 550 597 540 q 562 560 577 560 l 367 560 l 367 157 q 589 105 440 105 q 725 138 667 105 q 817 268 784 171 l 893 248 m 496 -248 q 438 -223 462 -248 q 415 -165 415 -198 q 438 -108 415 -133 q 496 -83 462 -83 q 553 -108 528 -83 q 577 -165 577 -133 q 554 -223 577 -198 q 496 -248 530 -248 z "},"è":{"ha":974,"x_min":99,"x_max":893,"o":"m 893 248 l 810 0 l 99 0 l 99 83 l 125 83 q 158 96 145 83 q 171 127 171 109 l 171 1028 q 158 1061 171 1048 q 125 1073 145 1073 l 99 1073 l 99 1155 l 792 1155 l 792 938 l 700 938 l 700 976 q 625 1054 700 1054 l 367 1054 l 367 661 l 562 661 q 586 672 575 661 q 597 696 597 683 l 597 756 l 685 756 l 685 462 l 597 462 l 597 526 q 587 550 597 540 q 562 560 577 560 l 367 560 l 367 157 q 589 105 440 105 q 725 138 667 105 q 817 268 784 171 l 893 248 m 325 1391 l 401 1494 l 657 1290 l 611 1224 l 325 1391 z "},"ẻ":{"ha":974,"x_min":99,"x_max":893,"o":"m 893 248 l 810 0 l 99 0 l 99 83 l 125 83 q 158 96 145 83 q 171 127 171 109 l 171 1028 q 158 1061 171 1048 q 125 1073 145 1073 l 99 1073 l 99 1155 l 792 1155 l 792 938 l 700 938 l 700 976 q 625 1054 700 1054 l 367 1054 l 367 661 l 562 661 q 586 672 575 661 q 597 696 597 683 l 597 756 l 685 756 l 685 462 l 597 462 l 597 526 q 587 550 597 540 q 562 560 577 560 l 367 560 l 367 157 q 589 105 440 105 q 725 138 667 105 q 817 268 784 171 l 893 248 m 444 1236 q 504 1345 444 1296 q 534 1397 534 1371 q 519 1434 534 1421 q 482 1446 504 1446 q 421 1413 442 1446 l 377 1476 q 431 1529 397 1510 q 502 1548 464 1548 q 601 1508 562 1548 q 641 1411 641 1468 q 621 1340 641 1373 q 562 1288 601 1308 q 536 1266 548 1280 q 524 1236 524 1252 l 444 1236 z "},"ē":{"ha":974,"x_min":99,"x_max":893,"o":"m 893 248 l 810 0 l 99 0 l 99 83 l 125 83 q 158 96 145 83 q 171 127 171 109 l 171 1028 q 158 1061 171 1048 q 125 1073 145 1073 l 99 1073 l 99 1155 l 792 1155 l 792 938 l 700 938 l 700 976 q 625 1054 700 1054 l 367 1054 l 367 661 l 562 661 q 586 672 575 661 q 597 696 597 683 l 597 756 l 685 756 l 685 462 l 597 462 l 597 526 q 587 550 597 540 q 562 560 577 560 l 367 560 l 367 157 q 589 105 440 105 q 725 138 667 105 q 817 268 784 171 l 893 248 m 268 1373 l 718 1373 l 718 1254 l 268 1254 l 268 1373 z "},"ę":{"ha":974,"x_min":99,"x_max":893,"o":"m 577 0 q 495 -45 528 -10 q 462 -117 462 -79 q 468 -141 462 -129 q 520 -177 486 -177 q 581 -153 550 -177 l 621 -206 q 563 -260 597 -242 q 492 -278 530 -278 q 393 -241 435 -278 q 351 -143 351 -204 q 429 0 351 -50 l 99 0 l 99 83 l 125 83 q 158 96 145 83 q 171 127 171 109 l 171 1028 q 158 1061 171 1048 q 125 1073 145 1073 l 99 1073 l 99 1155 l 792 1155 l 792 938 l 700 938 l 700 976 q 625 1054 700 1054 l 367 1054 l 367 661 l 562 661 q 586 672 575 661 q 597 696 597 683 l 597 756 l 685 756 l 685 462 l 597 462 l 597 526 q 587 550 597 540 q 562 560 577 560 l 367 560 l 367 157 q 589 105 440 105 q 725 138 667 105 q 817 268 784 171 l 893 248 l 810 0 l 577 0 z "},"ẽ":{"ha":974,"x_min":99,"x_max":893,"o":"m 893 248 l 810 0 l 99 0 l 99 83 l 125 83 q 158 96 145 83 q 171 127 171 109 l 171 1028 q 158 1061 171 1048 q 125 1073 145 1073 l 99 1073 l 99 1155 l 792 1155 l 792 938 l 700 938 l 700 976 q 625 1054 700 1054 l 367 1054 l 367 661 l 562 661 q 586 672 575 661 q 597 696 597 683 l 597 756 l 685 756 l 685 462 l 597 462 l 597 526 q 587 550 597 540 q 562 560 577 560 l 367 560 l 367 157 q 589 105 440 105 q 725 138 667 105 q 817 268 784 171 l 893 248 m 266 1319 q 315 1373 280 1355 q 399 1391 351 1391 q 508 1371 448 1391 q 619 1347 575 1347 q 706 1385 677 1347 l 718 1308 q 661 1254 700 1272 q 571 1236 621 1236 q 472 1256 518 1236 q 365 1282 419 1282 q 276 1246 306 1282 l 266 1319 z "},"f":{"ha":855,"x_min":99,"x_max":782,"o":"m 782 931 l 690 931 l 690 978 q 676 1040 690 1026 q 615 1054 661 1054 l 381 1054 l 381 669 l 550 669 q 578 681 565 669 q 591 710 591 692 l 591 750 l 679 750 l 679 470 l 591 470 l 591 518 q 578 548 591 536 q 550 560 565 560 l 381 560 l 381 127 q 393 96 381 109 q 421 83 405 83 l 460 83 l 460 0 l 99 0 l 99 83 l 139 83 q 170 96 157 83 q 183 127 183 109 l 183 1026 q 170 1059 183 1046 q 139 1071 157 1071 l 99 1071 l 99 1157 l 782 1157 l 782 931 z "},"g":{"ha":1097,"x_min":58,"x_max":1040,"o":"m 544 -38 q 188 112 319 -38 q 58 556 58 262 q 189 1032 58 877 q 540 1187 321 1187 q 610 1181 579 1187 q 669 1166 641 1175 q 710 1153 696 1157 q 744 1149 734 1149 q 787 1159 770 1149 q 804 1183 804 1169 l 881 1183 l 881 808 l 794 808 q 729 996 794 919 q 542 1073 665 1073 q 400 1011 464 1073 q 298 833 335 948 q 260 565 260 718 q 303 289 260 401 q 410 123 345 177 q 542 69 474 69 q 688 107 627 69 q 770 206 748 145 l 770 347 q 757 378 770 365 q 726 391 744 391 l 677 391 l 677 480 l 1040 480 l 1040 391 l 1004 391 q 971 378 984 391 q 958 347 958 365 l 958 -4 l 867 -4 q 857 31 865 18 q 821 44 849 44 q 736 14 792 44 q 544 -38 649 -38 z "},"ğ":{"ha":1097,"x_min":58,"x_max":1040,"o":"m 544 -38 q 188 112 319 -38 q 58 556 58 262 q 189 1032 58 877 q 540 1187 321 1187 q 610 1181 579 1187 q 669 1166 641 1175 q 710 1153 696 1157 q 744 1149 734 1149 q 787 1159 770 1149 q 804 1183 804 1169 l 881 1183 l 881 808 l 794 808 q 729 996 794 919 q 542 1073 665 1073 q 400 1011 464 1073 q 298 833 335 948 q 260 565 260 718 q 303 289 260 401 q 410 123 345 177 q 542 69 474 69 q 688 107 627 69 q 770 206 748 145 l 770 347 q 757 378 770 365 q 726 391 744 391 l 677 391 l 677 480 l 1040 480 l 1040 391 l 1004 391 q 971 378 984 391 q 958 347 958 365 l 958 -4 l 867 -4 q 857 31 865 18 q 821 44 849 44 q 736 14 792 44 q 544 -38 649 -38 m 528 1258 q 382 1303 452 1258 q 294 1409 312 1347 l 347 1458 q 528 1381 413 1381 q 708 1458 643 1381 l 764 1409 q 671 1302 740 1345 q 528 1258 601 1258 z "},"ģ":{"ha":1097,"x_min":58,"x_max":1040,"o":"m 544 -38 q 188 112 319 -38 q 58 556 58 262 q 189 1032 58 877 q 540 1187 321 1187 q 610 1181 579 1187 q 669 1166 641 1175 q 710 1153 696 1157 q 744 1149 734 1149 q 787 1159 770 1149 q 804 1183 804 1169 l 881 1183 l 881 808 l 794 808 q 729 996 794 919 q 542 1073 665 1073 q 400 1011 464 1073 q 298 833 335 948 q 260 565 260 718 q 303 289 260 401 q 410 123 345 177 q 542 69 474 69 q 688 107 627 69 q 770 206 748 145 l 770 347 q 757 378 770 365 q 726 391 744 391 l 677 391 l 677 480 l 1040 480 l 1040 391 l 1004 391 q 971 378 984 391 q 958 347 958 365 l 958 -4 l 867 -4 q 857 31 865 18 q 821 44 849 44 q 736 14 792 44 q 544 -38 649 -38 m 579 1520 q 550 1431 550 1470 q 592 1402 575 1423 q 609 1355 609 1381 q 586 1301 609 1323 q 532 1278 563 1278 q 475 1306 498 1278 q 452 1367 452 1333 q 473 1446 452 1411 q 524 1502 494 1482 q 579 1520 554 1522 z "},"ġ":{"ha":1097,"x_min":58,"x_max":1040,"o":"m 544 -38 q 188 112 319 -38 q 58 556 58 262 q 189 1032 58 877 q 540 1187 321 1187 q 610 1181 579 1187 q 669 1166 641 1175 q 710 1153 696 1157 q 744 1149 734 1149 q 787 1159 770 1149 q 804 1183 804 1169 l 881 1183 l 881 808 l 794 808 q 729 996 794 919 q 542 1073 665 1073 q 400 1011 464 1073 q 298 833 335 948 q 260 565 260 718 q 303 289 260 401 q 410 123 345 177 q 542 69 474 69 q 688 107 627 69 q 770 206 748 145 l 770 347 q 757 378 770 365 q 726 391 744 391 l 677 391 l 677 480 l 1040 480 l 1040 391 l 1004 391 q 971 378 984 391 q 958 347 958 365 l 958 -4 l 867 -4 q 857 31 865 18 q 821 44 849 44 q 736 14 792 44 q 544 -38 649 -38 m 530 1264 q 472 1289 496 1264 q 448 1347 448 1313 q 472 1405 448 1381 q 530 1429 496 1429 q 586 1405 562 1429 q 611 1347 611 1381 q 587 1289 611 1313 q 530 1264 563 1264 z "},"h":{"ha":1183,"x_min":99,"x_max":1083,"o":"m 1048 1073 q 1017 1061 1030 1073 q 1004 1030 1004 1048 l 1004 127 q 1017 96 1004 109 q 1048 83 1030 83 l 1083 83 l 1083 0 l 726 0 l 726 83 l 760 83 q 791 96 778 83 q 804 127 804 109 l 804 562 l 377 562 l 377 127 q 390 96 377 109 q 421 83 403 83 l 456 83 l 456 0 l 99 0 l 99 83 l 133 83 q 166 96 153 83 q 179 127 179 109 l 179 1030 q 166 1061 179 1048 q 133 1073 153 1073 l 99 1073 l 99 1157 l 456 1157 l 456 1073 l 421 1073 q 390 1061 403 1073 q 377 1030 377 1048 l 377 665 l 804 665 l 804 1030 q 791 1061 804 1048 q 760 1073 778 1073 l 726 1073 l 726 1157 l 1083 1157 l 1083 1073 l 1048 1073 z "},"ħ":{"ha":1183,"x_min":99,"x_max":1083,"o":"m 1048 1073 q 1017 1061 1030 1073 q 1004 1030 1004 1048 l 1004 950 l 1075 950 l 1075 798 l 1004 798 l 1004 127 q 1017 96 1004 109 q 1048 83 1030 83 l 1083 83 l 1083 0 l 726 0 l 726 83 l 760 83 q 791 96 778 83 q 804 127 804 109 l 804 562 l 377 562 l 377 127 q 390 96 377 109 q 421 83 403 83 l 456 83 l 456 0 l 99 0 l 99 83 l 133 83 q 166 96 153 83 q 179 127 179 109 l 179 798 l 103 798 l 103 950 l 179 950 l 179 1030 q 166 1061 179 1048 q 133 1073 153 1073 l 99 1073 l 99 1157 l 456 1157 l 456 1073 l 421 1073 q 390 1061 403 1073 q 377 1030 377 1048 l 377 950 l 804 950 l 804 1030 q 791 1061 804 1048 q 760 1073 778 1073 l 726 1073 l 726 1157 l 1083 1157 l 1083 1073 l 1048 1073 m 804 798 l 377 798 l 377 665 l 804 665 l 804 798 z "},"i":{"ha":605,"x_min":123,"x_max":480,"o":"m 123 83 l 159 83 q 189 96 177 83 q 202 127 202 109 l 202 1030 q 189 1061 202 1048 q 159 1073 177 1073 l 123 1073 l 123 1157 l 480 1157 l 480 1073 l 446 1073 q 414 1061 427 1073 q 401 1030 401 1048 l 401 127 q 414 96 401 109 q 446 83 427 83 l 480 83 l 480 0 l 123 0 l 123 83 z "},"ı":{"ha":605,"x_min":123,"x_max":480,"o":"m 123 83 l 159 83 q 189 96 177 83 q 202 127 202 109 l 202 1030 q 189 1061 202 1048 q 159 1073 177 1073 l 123 1073 l 123 1157 l 480 1157 l 480 1073 l 446 1073 q 414 1061 427 1073 q 401 1030 401 1048 l 401 127 q 414 96 401 109 q 446 83 427 83 l 480 83 l 480 0 l 123 0 l 123 83 z "},"í":{"ha":605,"x_min":123,"x_max":480,"o":"m 123 83 l 159 83 q 189 96 177 83 q 202 127 202 109 l 202 1030 q 189 1061 202 1048 q 159 1073 177 1073 l 123 1073 l 123 1157 l 480 1157 l 480 1073 l 446 1073 q 414 1061 427 1073 q 401 1030 401 1048 l 401 127 q 414 96 401 109 q 446 83 427 83 l 480 83 l 480 0 l 123 0 l 123 83 m 135 1290 l 391 1494 l 466 1391 l 181 1224 l 135 1290 z "},"ǐ":{"ha":605,"x_min":79,"x_max":522,"o":"m 123 83 l 159 83 q 189 96 177 83 q 202 127 202 109 l 202 1030 q 189 1061 202 1048 q 159 1073 177 1073 l 123 1073 l 123 1157 l 480 1157 l 480 1073 l 446 1073 q 414 1061 427 1073 q 401 1030 401 1048 l 401 127 q 414 96 401 109 q 446 83 427 83 l 480 83 l 480 0 l 123 0 l 123 83 m 300 1361 l 522 1433 l 522 1355 l 300 1222 l 79 1355 l 79 1433 l 300 1361 z "},"î":{"ha":605,"x_min":79,"x_max":522,"o":"m 123 83 l 159 83 q 189 96 177 83 q 202 127 202 109 l 202 1030 q 189 1061 202 1048 q 159 1073 177 1073 l 123 1073 l 123 1157 l 480 1157 l 480 1073 l 446 1073 q 414 1061 427 1073 q 401 1030 401 1048 l 401 127 q 414 96 401 109 q 446 83 427 83 l 480 83 l 480 0 l 123 0 l 123 83 m 79 1312 l 300 1444 l 522 1312 l 522 1234 l 300 1306 l 79 1234 l 79 1312 z "},"ï":{"ha":605,"x_min":62,"x_max":542,"o":"m 123 83 l 159 83 q 189 96 177 83 q 202 127 202 109 l 202 1030 q 189 1061 202 1048 q 159 1073 177 1073 l 123 1073 l 123 1157 l 480 1157 l 480 1073 l 446 1073 q 414 1061 427 1073 q 401 1030 401 1048 l 401 127 q 414 96 401 109 q 446 83 427 83 l 480 83 l 480 0 l 123 0 l 123 83 m 143 1238 q 85 1263 109 1238 q 62 1321 62 1288 q 85 1379 62 1355 q 143 1403 109 1403 q 199 1379 175 1403 q 224 1321 224 1355 q 200 1263 224 1288 q 143 1238 177 1238 m 460 1238 q 403 1263 427 1238 q 379 1321 379 1288 q 403 1379 379 1355 q 460 1403 427 1403 q 517 1379 492 1403 q 542 1321 542 1355 q 518 1263 542 1288 q 460 1238 494 1238 z "},"ị":{"ha":605,"x_min":123,"x_max":480,"o":"m 123 83 l 159 83 q 189 96 177 83 q 202 127 202 109 l 202 1030 q 189 1061 202 1048 q 159 1073 177 1073 l 123 1073 l 123 1157 l 480 1157 l 480 1073 l 446 1073 q 414 1061 427 1073 q 401 1030 401 1048 l 401 127 q 414 96 401 109 q 446 83 427 83 l 480 83 l 480 0 l 123 0 l 123 83 m 302 -248 q 244 -223 268 -248 q 220 -165 220 -198 q 244 -108 220 -133 q 302 -83 268 -83 q 358 -108 333 -83 q 383 -165 383 -133 q 359 -223 383 -198 q 302 -248 335 -248 z "},"ì":{"ha":605,"x_min":123,"x_max":480,"o":"m 123 83 l 159 83 q 189 96 177 83 q 202 127 202 109 l 202 1030 q 189 1061 202 1048 q 159 1073 177 1073 l 123 1073 l 123 1157 l 480 1157 l 480 1073 l 446 1073 q 414 1061 427 1073 q 401 1030 401 1048 l 401 127 q 414 96 401 109 q 446 83 427 83 l 480 83 l 480 0 l 123 0 l 123 83 m 135 1391 l 210 1494 l 466 1290 l 421 1224 l 135 1391 z "},"ỉ":{"ha":605,"x_min":123,"x_max":480,"o":"m 123 83 l 159 83 q 189 96 177 83 q 202 127 202 109 l 202 1030 q 189 1061 202 1048 q 159 1073 177 1073 l 123 1073 l 123 1157 l 480 1157 l 480 1073 l 446 1073 q 414 1061 427 1073 q 401 1030 401 1048 l 401 127 q 414 96 401 109 q 446 83 427 83 l 480 83 l 480 0 l 123 0 l 123 83 m 254 1236 q 313 1345 254 1296 q 343 1397 343 1371 q 328 1434 343 1421 q 292 1446 313 1446 q 230 1413 252 1446 l 187 1476 q 240 1529 206 1510 q 312 1548 274 1548 q 411 1508 371 1548 q 450 1411 450 1468 q 431 1340 450 1373 q 371 1288 411 1308 q 345 1266 357 1280 q 333 1236 333 1252 l 254 1236 z "},"ī":{"ha":605,"x_min":77,"x_max":528,"o":"m 123 83 l 159 83 q 189 96 177 83 q 202 127 202 109 l 202 1030 q 189 1061 202 1048 q 159 1073 177 1073 l 123 1073 l 123 1157 l 480 1157 l 480 1073 l 446 1073 q 414 1061 427 1073 q 401 1030 401 1048 l 401 127 q 414 96 401 109 q 446 83 427 83 l 480 83 l 480 0 l 123 0 l 123 83 m 77 1373 l 528 1373 l 528 1254 l 77 1254 l 77 1373 z "},"į":{"ha":605,"x_min":123,"x_max":480,"o":"m 302 1238 q 244 1263 268 1238 q 220 1321 220 1288 q 245 1379 220 1355 q 302 1403 270 1403 q 359 1379 335 1403 q 383 1321 383 1355 q 359 1263 383 1288 q 302 1238 335 1238 m 446 1073 q 414 1061 427 1073 q 401 1030 401 1048 l 401 127 q 414 96 401 109 q 446 83 427 83 l 480 83 l 480 0 l 383 0 q 301 -45 333 -10 q 268 -117 268 -79 q 274 -141 268 -129 q 325 -177 292 -177 q 387 -153 355 -177 l 427 -206 q 369 -260 403 -242 q 298 -278 335 -278 q 198 -241 240 -278 q 157 -143 157 -204 q 234 0 157 -50 l 123 0 l 123 83 l 159 83 q 189 96 177 83 q 202 127 202 109 l 202 1030 q 189 1061 202 1048 q 159 1073 177 1073 l 123 1073 l 123 1157 l 480 1157 l 480 1073 l 446 1073 z "},"ĩ":{"ha":605,"x_min":75,"x_max":528,"o":"m 123 83 l 159 83 q 189 96 177 83 q 202 127 202 109 l 202 1030 q 189 1061 202 1048 q 159 1073 177 1073 l 123 1073 l 123 1157 l 480 1157 l 480 1073 l 446 1073 q 414 1061 427 1073 q 401 1030 401 1048 l 401 127 q 414 96 401 109 q 446 83 427 83 l 480 83 l 480 0 l 123 0 l 123 83 m 75 1319 q 125 1373 89 1355 q 208 1391 161 1391 q 317 1371 258 1391 q 429 1347 385 1347 q 516 1385 486 1347 l 528 1308 q 470 1254 510 1272 q 381 1236 431 1236 q 282 1256 327 1236 q 175 1282 228 1282 q 85 1246 115 1282 l 75 1319 z "},"j":{"ha":905,"x_min":58,"x_max":823,"o":"m 58 321 l 145 321 q 199 131 145 202 q 355 60 254 60 q 497 130 446 60 q 548 308 548 200 l 548 1030 q 534 1061 548 1048 q 500 1073 520 1073 l 460 1073 l 460 1157 l 823 1157 l 823 1073 l 780 1073 q 749 1061 762 1073 q 736 1030 736 1048 l 738 306 q 599 18 738 117 q 389 -42 516 -42 q 214 -4 319 -42 q 188 0 202 0 q 143 -42 151 0 l 58 -42 l 58 321 z "},"k":{"ha":1075,"x_min":99,"x_max":1018,"o":"m 1018 83 l 1018 0 l 657 0 l 657 83 l 669 83 q 688 92 679 83 q 698 117 698 101 q 690 147 698 131 l 468 542 l 377 417 l 377 127 q 390 96 377 109 q 421 83 403 83 l 456 83 l 456 0 l 99 0 l 99 83 l 133 83 q 164 96 151 83 q 177 127 177 109 l 177 1032 q 164 1061 177 1048 q 133 1073 151 1073 l 99 1073 l 99 1157 l 456 1157 l 456 1073 l 421 1073 q 390 1061 403 1073 q 377 1032 377 1048 l 377 603 l 679 1014 q 698 1056 698 1040 q 673 1073 698 1073 l 649 1073 l 649 1157 l 929 1157 l 929 1073 l 901 1073 q 796 986 851 1073 l 597 716 l 921 127 q 947 92 933 101 q 994 83 962 83 l 1018 83 z "},"ķ":{"ha":1075,"x_min":99,"x_max":1018,"o":"m 1018 83 l 1018 0 l 657 0 l 657 83 l 669 83 q 688 92 679 83 q 698 117 698 101 q 690 147 698 131 l 468 542 l 377 417 l 377 127 q 390 96 377 109 q 421 83 403 83 l 456 83 l 456 0 l 99 0 l 99 83 l 133 83 q 164 96 151 83 q 177 127 177 109 l 177 1032 q 164 1061 177 1048 q 133 1073 151 1073 l 99 1073 l 99 1157 l 456 1157 l 456 1073 l 421 1073 q 390 1061 403 1073 q 377 1032 377 1048 l 377 603 l 679 1014 q 698 1056 698 1040 q 673 1073 698 1073 l 649 1073 l 649 1157 l 929 1157 l 929 1073 l 901 1073 q 796 986 851 1073 l 597 716 l 921 127 q 947 92 933 101 q 994 83 962 83 l 1018 83 m 500 -325 q 530 -236 530 -276 q 489 -207 506 -228 q 472 -161 472 -187 q 495 -106 472 -129 q 548 -83 518 -83 q 604 -111 581 -83 q 627 -173 627 -139 q 606 -252 627 -216 q 556 -308 585 -288 q 500 -325 526 -327 z "},"l":{"ha":944,"x_min":99,"x_max":885,"o":"m 885 212 l 812 0 l 99 0 l 99 83 l 133 83 q 166 96 153 83 q 179 127 179 109 l 179 1030 q 166 1061 179 1048 q 133 1073 153 1073 l 99 1073 l 99 1157 l 456 1157 l 456 1073 l 421 1073 q 390 1061 403 1073 q 377 1030 377 1048 l 377 173 q 536 99 423 101 l 599 97 q 718 127 667 97 q 798 242 770 157 l 885 212 z "},"ĺ":{"ha":944,"x_min":99,"x_max":885,"o":"m 885 212 l 812 0 l 99 0 l 99 83 l 133 83 q 166 96 153 83 q 179 127 179 109 l 179 1030 q 166 1061 179 1048 q 133 1073 153 1073 l 99 1073 l 99 1157 l 456 1157 l 456 1073 l 421 1073 q 390 1061 403 1073 q 377 1030 377 1048 l 377 173 q 536 99 423 101 l 599 97 q 718 127 667 97 q 798 242 770 157 l 885 212 m 335 1290 l 591 1494 l 667 1391 l 381 1224 l 335 1290 z "},"ľ":{"ha":944,"x_min":99,"x_max":885,"o":"m 885 212 l 812 0 l 99 0 l 99 83 l 133 83 q 166 96 153 83 q 179 127 179 109 l 179 1030 q 166 1061 179 1048 q 133 1073 153 1073 l 99 1073 l 99 1157 l 456 1157 l 456 1073 l 421 1073 q 390 1061 403 1073 q 377 1030 377 1048 l 377 173 q 536 99 423 101 l 599 97 q 718 127 667 97 q 798 242 770 157 l 885 212 m 659 935 q 688 1024 688 984 q 648 1053 665 1032 q 631 1099 631 1073 q 654 1154 631 1131 q 706 1177 677 1177 q 763 1149 740 1177 q 786 1087 786 1121 q 765 1008 786 1044 q 714 952 744 972 q 659 935 685 933 z "},"ļ":{"ha":944,"x_min":99,"x_max":885,"o":"m 885 212 l 812 0 l 99 0 l 99 83 l 133 83 q 166 96 153 83 q 179 127 179 109 l 179 1030 q 166 1061 179 1048 q 133 1073 153 1073 l 99 1073 l 99 1157 l 456 1157 l 456 1073 l 421 1073 q 390 1061 403 1073 q 377 1030 377 1048 l 377 173 q 536 99 423 101 l 599 97 q 718 127 667 97 q 798 242 770 157 l 885 212 m 413 -325 q 442 -236 442 -276 q 402 -207 419 -228 q 385 -161 385 -187 q 408 -106 385 -129 q 460 -83 431 -83 q 517 -111 494 -83 q 540 -173 540 -139 q 519 -252 540 -216 q 468 -308 498 -288 q 413 -325 438 -327 z "},"ł":{"ha":952,"x_min":99,"x_max":895,"o":"m 895 212 l 819 0 l 107 0 l 107 83 l 143 83 q 174 96 161 83 q 187 127 187 109 l 187 528 l 99 488 l 99 621 l 187 661 l 187 1030 q 174 1061 187 1048 q 143 1073 161 1073 l 107 1073 l 107 1157 l 464 1157 l 464 1073 l 431 1073 q 398 1061 411 1073 q 385 1030 385 1048 l 385 748 l 474 788 l 474 655 l 385 615 l 385 173 q 544 99 431 101 l 607 97 q 726 127 675 97 q 808 242 778 157 l 895 212 z "},"m":{"ha":1302,"x_min":99,"x_max":1202,"o":"m 1165 1071 q 1134 1060 1147 1071 q 1121 1028 1121 1048 l 1121 127 q 1134 96 1121 109 q 1165 83 1147 83 l 1200 83 l 1200 0 l 843 0 l 843 83 l 877 83 q 910 96 897 83 q 923 127 923 109 l 923 710 l 619 -40 l 613 -40 l 288 722 l 288 121 q 301 93 288 103 q 331 83 313 83 l 367 83 l 367 0 l 99 0 l 99 83 l 133 83 q 165 93 153 83 q 177 121 177 103 l 177 1028 q 165 1064 177 1058 q 115 1071 153 1071 l 115 1153 l 317 1153 l 665 359 l 992 1153 l 1202 1153 l 1202 1071 l 1165 1071 z "},"n":{"ha":1133,"x_min":99,"x_max":1042,"o":"m 1042 1157 l 1042 1073 l 1024 1073 q 991 1061 1004 1073 q 978 1030 978 1048 l 978 -79 l 974 -79 l 288 833 l 288 123 q 301 96 288 107 q 331 85 313 85 l 367 85 l 367 4 l 99 4 l 99 85 l 133 85 q 165 96 153 85 q 177 123 177 107 l 177 1030 q 162 1066 177 1060 q 107 1073 147 1073 l 107 1157 l 302 1157 l 875 405 l 875 1030 q 862 1061 875 1048 q 831 1073 849 1073 l 798 1073 l 798 1157 l 1042 1157 z "},"ń":{"ha":1133,"x_min":99,"x_max":1042,"o":"m 1042 1157 l 1042 1073 l 1024 1073 q 991 1061 1004 1073 q 978 1030 978 1048 l 978 -79 l 974 -79 l 288 833 l 288 123 q 301 96 288 107 q 331 85 313 85 l 367 85 l 367 4 l 99 4 l 99 85 l 133 85 q 165 96 153 85 q 177 123 177 107 l 177 1030 q 162 1066 177 1060 q 107 1073 147 1073 l 107 1157 l 302 1157 l 875 405 l 875 1030 q 862 1061 875 1048 q 831 1073 849 1073 l 798 1073 l 798 1157 l 1042 1157 m 403 1290 l 659 1494 l 734 1391 l 448 1224 l 403 1290 z "},"ň":{"ha":1133,"x_min":99,"x_max":1042,"o":"m 1042 1157 l 1042 1073 l 1024 1073 q 991 1061 1004 1073 q 978 1030 978 1048 l 978 -79 l 974 -79 l 288 833 l 288 123 q 301 96 288 107 q 331 85 313 85 l 367 85 l 367 4 l 99 4 l 99 85 l 133 85 q 165 96 153 85 q 177 123 177 107 l 177 1030 q 162 1066 177 1060 q 107 1073 147 1073 l 107 1157 l 302 1157 l 875 405 l 875 1030 q 862 1061 875 1048 q 831 1073 849 1073 l 798 1073 l 798 1157 l 1042 1157 m 567 1361 l 790 1433 l 790 1355 l 567 1222 l 347 1355 l 347 1433 l 567 1361 z "},"ņ":{"ha":1133,"x_min":99,"x_max":1042,"o":"m 1042 1157 l 1042 1073 l 1024 1073 q 991 1061 1004 1073 q 978 1030 978 1048 l 978 -79 l 974 -79 l 288 833 l 288 123 q 301 96 288 107 q 331 85 313 85 l 367 85 l 367 4 l 99 4 l 99 85 l 133 85 q 165 96 153 85 q 177 123 177 107 l 177 1030 q 162 1066 177 1060 q 107 1073 147 1073 l 107 1157 l 302 1157 l 875 405 l 875 1030 q 862 1061 875 1048 q 831 1073 849 1073 l 798 1073 l 798 1157 l 1042 1157 m 550 -325 q 579 -236 579 -276 q 539 -207 556 -228 q 522 -161 522 -187 q 545 -106 522 -129 q 597 -83 567 -83 q 654 -111 631 -83 q 677 -173 677 -139 q 656 -252 677 -216 q 605 -308 635 -288 q 550 -325 575 -327 z "},"ñ":{"ha":1133,"x_min":99,"x_max":1042,"o":"m 1042 1157 l 1042 1073 l 1024 1073 q 991 1061 1004 1073 q 978 1030 978 1048 l 978 -79 l 974 -79 l 288 833 l 288 123 q 301 96 288 107 q 331 85 313 85 l 367 85 l 367 4 l 99 4 l 99 85 l 133 85 q 165 96 153 85 q 177 123 177 107 l 177 1030 q 162 1066 177 1060 q 107 1073 147 1073 l 107 1157 l 302 1157 l 875 405 l 875 1030 q 862 1061 875 1048 q 831 1073 849 1073 l 798 1073 l 798 1157 l 1042 1157 m 343 1319 q 393 1373 357 1355 q 476 1391 429 1391 q 585 1371 526 1391 q 696 1347 653 1347 q 784 1385 754 1347 l 796 1308 q 738 1254 778 1272 q 649 1236 698 1236 q 550 1256 595 1236 q 442 1282 496 1282 q 353 1246 383 1282 l 343 1319 z "},"o":{"ha":1063,"x_min":58,"x_max":1004,"o":"m 532 -30 q 290 36 397 -30 q 120 238 183 101 q 58 579 58 375 q 120 919 58 782 q 290 1121 183 1056 q 532 1187 397 1187 q 774 1121 667 1187 q 942 919 881 1056 q 1004 579 1004 782 q 942 238 1004 375 q 774 36 881 101 q 532 -30 667 -30 m 532 79 q 737 205 657 79 q 817 579 817 331 q 737 952 817 827 q 532 1077 657 1077 q 325 952 405 1077 q 246 579 246 827 q 325 204 246 329 q 532 79 405 79 z "},"ó":{"ha":1063,"x_min":58,"x_max":1004,"o":"m 532 -30 q 290 36 397 -30 q 120 238 183 101 q 58 579 58 375 q 120 919 58 782 q 290 1121 183 1056 q 532 1187 397 1187 q 774 1121 667 1187 q 942 919 881 1056 q 1004 579 1004 782 q 942 238 1004 375 q 774 36 881 101 q 532 -30 667 -30 m 532 79 q 737 205 657 79 q 817 579 817 331 q 737 952 817 827 q 532 1077 657 1077 q 325 952 405 1077 q 246 579 246 827 q 325 204 246 329 q 532 79 405 79 m 365 1312 l 621 1516 l 696 1413 l 411 1246 l 365 1312 z "},"ǒ":{"ha":1063,"x_min":58,"x_max":1004,"o":"m 532 -30 q 290 36 397 -30 q 120 238 183 101 q 58 579 58 375 q 120 919 58 782 q 290 1121 183 1056 q 532 1187 397 1187 q 774 1121 667 1187 q 942 919 881 1056 q 1004 579 1004 782 q 942 238 1004 375 q 774 36 881 101 q 532 -30 667 -30 m 532 79 q 737 205 657 79 q 817 579 817 331 q 737 952 817 827 q 532 1077 657 1077 q 325 952 405 1077 q 246 579 246 827 q 325 204 246 329 q 532 79 405 79 m 530 1383 l 752 1454 l 752 1377 l 530 1244 l 310 1377 l 310 1454 l 530 1383 z "},"ô":{"ha":1063,"x_min":58,"x_max":1004,"o":"m 532 -30 q 290 36 397 -30 q 120 238 183 101 q 58 579 58 375 q 120 919 58 782 q 290 1121 183 1056 q 532 1187 397 1187 q 774 1121 667 1187 q 942 919 881 1056 q 1004 579 1004 782 q 942 238 1004 375 q 774 36 881 101 q 532 -30 667 -30 m 532 79 q 737 205 657 79 q 817 579 817 331 q 737 952 817 827 q 532 1077 657 1077 q 325 952 405 1077 q 246 579 246 827 q 325 204 246 329 q 532 79 405 79 m 310 1333 l 530 1466 l 752 1333 l 752 1256 l 530 1327 l 310 1256 l 310 1333 z "},"ố":{"ha":1063,"x_min":58,"x_max":1004,"o":"m 532 -30 q 290 36 397 -30 q 120 238 183 101 q 58 579 58 375 q 120 919 58 782 q 290 1121 183 1056 q 532 1187 397 1187 q 774 1121 667 1187 q 942 919 881 1056 q 1004 579 1004 782 q 942 238 1004 375 q 774 36 881 101 q 532 -30 667 -30 m 532 79 q 737 205 657 79 q 817 579 817 331 q 737 952 817 827 q 532 1077 657 1077 q 325 952 405 1077 q 246 579 246 827 q 325 204 246 329 q 532 79 405 79 z "},"ộ":{"ha":1063,"x_min":58,"x_max":1004,"o":"m 532 -30 q 290 36 397 -30 q 120 238 183 101 q 58 579 58 375 q 120 919 58 782 q 290 1121 183 1056 q 532 1187 397 1187 q 774 1121 667 1187 q 942 919 881 1056 q 1004 579 1004 782 q 942 238 1004 375 q 774 36 881 101 q 532 -30 667 -30 m 532 79 q 737 205 657 79 q 817 579 817 331 q 737 952 817 827 q 532 1077 657 1077 q 325 952 405 1077 q 246 579 246 827 q 325 204 246 329 q 532 79 405 79 m 532 -270 q 474 -245 498 -270 q 450 -187 450 -220 q 474 -130 450 -155 q 532 -105 498 -105 q 588 -130 563 -105 q 613 -187 613 -155 q 589 -245 613 -220 q 532 -270 565 -270 m 310 1333 l 530 1466 l 752 1333 l 752 1256 l 530 1327 l 310 1256 l 310 1333 z "},"ồ":{"ha":1063,"x_min":58,"x_max":1004,"o":"m 532 -30 q 290 36 397 -30 q 120 238 183 101 q 58 579 58 375 q 120 919 58 782 q 290 1121 183 1056 q 532 1187 397 1187 q 774 1121 667 1187 q 942 919 881 1056 q 1004 579 1004 782 q 942 238 1004 375 q 774 36 881 101 q 532 -30 667 -30 m 532 79 q 737 205 657 79 q 817 579 817 331 q 737 952 817 827 q 532 1077 657 1077 q 325 952 405 1077 q 246 579 246 827 q 325 204 246 329 q 532 79 405 79 m 526 1579 l 609 1677 l 849 1454 l 800 1393 l 526 1579 m 310 1333 l 530 1466 l 752 1333 l 752 1256 l 530 1327 l 310 1256 l 310 1333 z "},"ổ":{"ha":1063,"x_min":58,"x_max":1004,"o":"m 532 -30 q 290 36 397 -30 q 120 238 183 101 q 58 579 58 375 q 120 919 58 782 q 290 1121 183 1056 q 532 1187 397 1187 q 774 1121 667 1187 q 942 919 881 1056 q 1004 579 1004 782 q 942 238 1004 375 q 774 36 881 101 q 532 -30 667 -30 m 532 79 q 737 205 657 79 q 817 579 817 331 q 737 952 817 827 q 532 1077 657 1077 q 325 952 405 1077 q 246 579 246 827 q 325 204 246 329 q 532 79 405 79 z "},"ỗ":{"ha":1063,"x_min":58,"x_max":1004,"o":"m 532 -30 q 290 36 397 -30 q 120 238 183 101 q 58 579 58 375 q 120 919 58 782 q 290 1121 183 1056 q 532 1187 397 1187 q 774 1121 667 1187 q 942 919 881 1056 q 1004 579 1004 782 q 942 238 1004 375 q 774 36 881 101 q 532 -30 667 -30 m 532 79 q 737 205 657 79 q 817 579 817 331 q 737 952 817 827 q 532 1077 657 1077 q 325 952 405 1077 q 246 579 246 827 q 325 204 246 329 q 532 79 405 79 z "},"ö":{"ha":1063,"x_min":58,"x_max":1004,"o":"m 532 -30 q 290 36 397 -30 q 120 238 183 101 q 58 579 58 375 q 120 919 58 782 q 290 1121 183 1056 q 532 1187 397 1187 q 774 1121 667 1187 q 942 919 881 1056 q 1004 579 1004 782 q 942 238 1004 375 q 774 36 881 101 q 532 -30 667 -30 m 532 79 q 737 205 657 79 q 817 579 817 331 q 737 952 817 827 q 532 1077 657 1077 q 325 952 405 1077 q 246 579 246 827 q 325 204 246 329 q 532 79 405 79 m 373 1260 q 315 1285 339 1260 q 292 1343 292 1310 q 315 1401 292 1377 q 373 1425 339 1425 q 430 1401 405 1425 q 454 1343 454 1377 q 431 1285 454 1310 q 373 1260 407 1260 m 690 1260 q 633 1285 657 1260 q 609 1343 609 1310 q 633 1401 609 1377 q 690 1425 657 1425 q 747 1401 722 1425 q 772 1343 772 1377 q 748 1285 772 1310 q 690 1260 724 1260 z "},"ọ":{"ha":1063,"x_min":58,"x_max":1004,"o":"m 532 -30 q 290 36 397 -30 q 120 238 183 101 q 58 579 58 375 q 120 919 58 782 q 290 1121 183 1056 q 532 1187 397 1187 q 774 1121 667 1187 q 942 919 881 1056 q 1004 579 1004 782 q 942 238 1004 375 q 774 36 881 101 q 532 -30 667 -30 m 532 79 q 737 205 657 79 q 817 579 817 331 q 737 952 817 827 q 532 1077 657 1077 q 325 952 405 1077 q 246 579 246 827 q 325 204 246 329 q 532 79 405 79 m 532 -270 q 474 -245 498 -270 q 450 -187 450 -220 q 474 -130 450 -155 q 532 -105 498 -105 q 588 -130 563 -105 q 613 -187 613 -155 q 589 -245 613 -220 q 532 -270 565 -270 z "},"ò":{"ha":1063,"x_min":58,"x_max":1004,"o":"m 532 -30 q 290 36 397 -30 q 120 238 183 101 q 58 579 58 375 q 120 919 58 782 q 290 1121 183 1056 q 532 1187 397 1187 q 774 1121 667 1187 q 942 919 881 1056 q 1004 579 1004 782 q 942 238 1004 375 q 774 36 881 101 q 532 -30 667 -30 m 532 79 q 737 205 657 79 q 817 579 817 331 q 737 952 817 827 q 532 1077 657 1077 q 325 952 405 1077 q 246 579 246 827 q 325 204 246 329 q 532 79 405 79 m 365 1413 l 440 1516 l 696 1312 l 651 1246 l 365 1413 z "},"ỏ":{"ha":1063,"x_min":58,"x_max":1004,"o":"m 532 -30 q 290 36 397 -30 q 120 238 183 101 q 58 579 58 375 q 120 919 58 782 q 290 1121 183 1056 q 532 1187 397 1187 q 774 1121 667 1187 q 942 919 881 1056 q 1004 579 1004 782 q 942 238 1004 375 q 774 36 881 101 q 532 -30 667 -30 m 532 79 q 737 205 657 79 q 817 579 817 331 q 737 952 817 827 q 532 1077 657 1077 q 325 952 405 1077 q 246 579 246 827 q 325 204 246 329 q 532 79 405 79 m 484 1258 q 544 1367 484 1317 q 573 1419 573 1393 q 559 1455 573 1442 q 522 1468 544 1468 q 460 1435 482 1468 l 417 1498 q 470 1551 437 1532 q 542 1569 504 1569 q 641 1530 601 1569 q 681 1433 681 1490 q 661 1362 681 1395 q 601 1310 641 1329 q 575 1288 587 1302 q 563 1258 563 1274 l 484 1258 z "},"ơ":{"ha":1063,"x_min":58,"x_max":1010,"o":"m 974 1052 q 883 1018 937 1022 q 1004 579 1004 859 q 942 238 1004 375 q 774 36 881 101 q 532 -30 667 -30 q 290 36 397 -30 q 120 238 183 101 q 58 579 58 375 q 120 919 58 782 q 290 1121 183 1056 q 532 1187 397 1187 q 700 1157 621 1187 q 839 1069 780 1127 q 871 1087 855 1075 q 863 1121 863 1107 q 889 1177 863 1155 q 937 1194 911 1194 q 994 1167 972 1194 q 1010 1123 1010 1151 q 1000 1084 1010 1103 q 974 1052 990 1065 m 532 79 q 737 205 657 79 q 817 579 817 331 q 737 952 817 827 q 532 1077 657 1077 q 325 952 405 1077 q 246 579 246 827 q 325 204 246 329 q 532 79 405 79 z "},"ớ":{"ha":1063,"x_min":58,"x_max":1010,"o":"m 974 1052 q 883 1018 937 1022 q 1004 579 1004 859 q 942 238 1004 375 q 774 36 881 101 q 532 -30 667 -30 q 290 36 397 -30 q 120 238 183 101 q 58 579 58 375 q 120 919 58 782 q 290 1121 183 1056 q 532 1187 397 1187 q 700 1157 621 1187 q 839 1069 780 1127 q 871 1087 855 1075 q 863 1121 863 1107 q 889 1177 863 1155 q 937 1194 911 1194 q 994 1167 972 1194 q 1010 1123 1010 1151 q 1000 1084 1010 1103 q 974 1052 990 1065 m 532 79 q 737 205 657 79 q 817 579 817 331 q 737 952 817 827 q 532 1077 657 1077 q 325 952 405 1077 q 246 579 246 827 q 325 204 246 329 q 532 79 405 79 m 365 1312 l 621 1516 l 696 1413 l 411 1246 l 365 1312 z "},"ợ":{"ha":1063,"x_min":58,"x_max":1010,"o":"m 974 1052 q 883 1018 937 1022 q 1004 579 1004 859 q 942 238 1004 375 q 774 36 881 101 q 532 -30 667 -30 q 290 36 397 -30 q 120 238 183 101 q 58 579 58 375 q 120 919 58 782 q 290 1121 183 1056 q 532 1187 397 1187 q 700 1157 621 1187 q 839 1069 780 1127 q 871 1087 855 1075 q 863 1121 863 1107 q 889 1177 863 1155 q 937 1194 911 1194 q 994 1167 972 1194 q 1010 1123 1010 1151 q 1000 1084 1010 1103 q 974 1052 990 1065 m 532 79 q 737 205 657 79 q 817 579 817 331 q 737 952 817 827 q 532 1077 657 1077 q 325 952 405 1077 q 246 579 246 827 q 325 204 246 329 q 532 79 405 79 m 532 -270 q 474 -245 498 -270 q 450 -187 450 -220 q 474 -130 450 -155 q 532 -105 498 -105 q 588 -130 563 -105 q 613 -187 613 -155 q 589 -245 613 -220 q 532 -270 565 -270 z "},"ờ":{"ha":1063,"x_min":58,"x_max":1010,"o":"m 974 1052 q 883 1018 937 1022 q 1004 579 1004 859 q 942 238 1004 375 q 774 36 881 101 q 532 -30 667 -30 q 290 36 397 -30 q 120 238 183 101 q 58 579 58 375 q 120 919 58 782 q 290 1121 183 1056 q 532 1187 397 1187 q 700 1157 621 1187 q 839 1069 780 1127 q 871 1087 855 1075 q 863 1121 863 1107 q 889 1177 863 1155 q 937 1194 911 1194 q 994 1167 972 1194 q 1010 1123 1010 1151 q 1000 1084 1010 1103 q 974 1052 990 1065 m 532 79 q 737 205 657 79 q 817 579 817 331 q 737 952 817 827 q 532 1077 657 1077 q 325 952 405 1077 q 246 579 246 827 q 325 204 246 329 q 532 79 405 79 m 365 1413 l 440 1516 l 696 1312 l 651 1246 l 365 1413 z "},"ở":{"ha":1063,"x_min":58,"x_max":1010,"o":"m 974 1052 q 883 1018 937 1022 q 1004 579 1004 859 q 942 238 1004 375 q 774 36 881 101 q 532 -30 667 -30 q 290 36 397 -30 q 120 238 183 101 q 58 579 58 375 q 120 919 58 782 q 290 1121 183 1056 q 532 1187 397 1187 q 700 1157 621 1187 q 839 1069 780 1127 q 871 1087 855 1075 q 863 1121 863 1107 q 889 1177 863 1155 q 937 1194 911 1194 q 994 1167 972 1194 q 1010 1123 1010 1151 q 1000 1084 1010 1103 q 974 1052 990 1065 m 532 79 q 737 205 657 79 q 817 579 817 331 q 737 952 817 827 q 532 1077 657 1077 q 325 952 405 1077 q 246 579 246 827 q 325 204 246 329 q 532 79 405 79 m 484 1258 q 544 1367 484 1317 q 573 1419 573 1393 q 559 1455 573 1442 q 522 1468 544 1468 q 460 1435 482 1468 l 417 1498 q 470 1551 437 1532 q 542 1569 504 1569 q 641 1530 601 1569 q 681 1433 681 1490 q 661 1362 681 1395 q 601 1310 641 1329 q 575 1288 587 1302 q 563 1258 563 1274 l 484 1258 z "},"ỡ":{"ha":1063,"x_min":58,"x_max":1010,"o":"m 514 1278 q 417 1304 462 1304 q 337 1268 363 1304 l 329 1341 q 374 1395 341 1377 q 448 1413 407 1413 q 546 1393 492 1413 q 647 1369 611 1369 q 724 1407 698 1369 l 736 1329 q 685 1276 720 1294 q 603 1258 649 1258 q 514 1278 558 1258 m 974 1052 q 883 1018 937 1022 q 1004 579 1004 859 q 942 238 1004 375 q 774 36 881 101 q 532 -30 667 -30 q 290 36 397 -30 q 120 238 183 101 q 58 579 58 375 q 120 919 58 782 q 290 1121 183 1056 q 532 1187 397 1187 q 700 1157 621 1187 q 839 1069 780 1127 q 871 1087 855 1075 q 863 1121 863 1107 q 889 1177 863 1155 q 937 1194 911 1194 q 994 1167 972 1194 q 1010 1123 1010 1151 q 1000 1084 1010 1103 q 974 1052 990 1065 m 532 79 q 737 205 657 79 q 817 579 817 331 q 737 952 817 827 q 532 1077 657 1077 q 325 952 405 1077 q 246 579 246 827 q 325 204 246 329 q 532 79 405 79 z "},"ő":{"ha":1063,"x_min":58,"x_max":1004,"o":"m 532 -30 q 290 36 397 -30 q 120 238 183 101 q 58 579 58 375 q 120 919 58 782 q 290 1121 183 1056 q 532 1187 397 1187 q 774 1121 667 1187 q 942 919 881 1056 q 1004 579 1004 782 q 942 238 1004 375 q 774 36 881 101 q 532 -30 667 -30 m 532 79 q 737 205 657 79 q 817 579 817 331 q 737 952 817 827 q 532 1077 657 1077 q 325 952 405 1077 q 246 579 246 827 q 325 204 246 329 q 532 79 405 79 z "},"ō":{"ha":1063,"x_min":58,"x_max":1004,"o":"m 532 -30 q 290 36 397 -30 q 120 238 183 101 q 58 579 58 375 q 120 919 58 782 q 290 1121 183 1056 q 532 1187 397 1187 q 774 1121 667 1187 q 942 919 881 1056 q 1004 579 1004 782 q 942 238 1004 375 q 774 36 881 101 q 532 -30 667 -30 m 532 79 q 737 205 657 79 q 817 579 817 331 q 737 952 817 827 q 532 1077 657 1077 q 325 952 405 1077 q 246 579 246 827 q 325 204 246 329 q 532 79 405 79 m 308 1395 l 758 1395 l 758 1276 l 308 1276 l 308 1395 z "},"ø":{"ha":1063,"x_min":58,"x_max":1004,"o":"m 827 1081 q 957 880 911 1006 q 1004 579 1004 754 q 942 238 1004 375 q 774 36 881 101 q 532 -30 667 -30 q 351 4 437 -30 l 333 -34 l 187 -34 l 236 77 q 104 277 151 151 q 58 579 58 403 q 120 919 58 782 q 290 1121 183 1056 q 532 1187 397 1187 q 714 1151 631 1187 l 730 1188 l 875 1188 l 827 1081 m 246 579 q 308 238 246 371 l 663 1036 q 532 1077 603 1077 q 325 952 405 1077 q 246 579 246 827 m 532 79 q 737 205 657 79 q 817 579 817 331 q 756 919 817 790 l 401 121 q 532 79 460 79 z "},"õ":{"ha":1063,"x_min":58,"x_max":1004,"o":"m 532 -30 q 290 36 397 -30 q 120 238 183 101 q 58 579 58 375 q 120 919 58 782 q 290 1121 183 1056 q 532 1187 397 1187 q 774 1121 667 1187 q 942 919 881 1056 q 1004 579 1004 782 q 942 238 1004 375 q 774 36 881 101 q 532 -30 667 -30 m 532 79 q 737 205 657 79 q 817 579 817 331 q 737 952 817 827 q 532 1077 657 1077 q 325 952 405 1077 q 246 579 246 827 q 325 204 246 329 q 532 79 405 79 m 306 1341 q 355 1395 319 1377 q 438 1413 391 1413 q 548 1393 488 1413 q 659 1369 615 1369 q 746 1407 716 1369 l 758 1329 q 700 1276 740 1294 q 611 1258 661 1258 q 512 1278 558 1258 q 405 1304 458 1304 q 315 1268 345 1304 l 306 1341 z "},"œ":{"ha":1649,"x_min":58,"x_max":1567,"o":"m 1567 248 l 1484 0 l 845 0 l 845 93 q 532 -30 722 -30 q 290 36 397 -30 q 120 238 183 101 q 58 579 58 375 q 120 919 58 782 q 290 1121 183 1056 q 532 1187 397 1187 q 845 1063 722 1187 l 845 1155 l 1466 1155 l 1466 938 l 1375 938 l 1375 976 q 1300 1054 1375 1054 l 1042 1054 l 1042 661 l 1236 661 q 1261 672 1250 661 q 1272 696 1272 683 l 1272 756 l 1359 756 l 1359 462 l 1272 462 l 1272 526 q 1262 550 1272 540 q 1236 560 1252 560 l 1042 560 l 1042 157 q 1264 105 1113 105 q 1399 139 1339 105 q 1490 268 1458 173 l 1567 248 m 532 79 q 737 205 657 79 q 817 579 817 331 q 737 952 817 827 q 532 1077 657 1077 q 325 952 405 1077 q 246 579 246 827 q 325 204 246 329 q 532 79 405 79 z "},"p":{"ha":903,"x_min":99,"x_max":835,"o":"m 835 833 q 794 661 835 740 q 678 535 752 581 q 512 488 603 488 q 379 520 448 488 l 379 127 q 392 96 379 109 q 423 83 405 83 l 458 83 l 458 0 l 99 0 l 99 83 l 133 83 q 166 96 153 83 q 179 127 179 109 l 179 1030 q 166 1061 179 1048 q 133 1073 153 1073 l 99 1073 l 99 1157 l 536 1157 q 686 1116 617 1157 q 795 1002 754 1075 q 835 833 835 929 m 379 623 q 470 599 425 599 q 601 658 548 599 q 655 810 655 716 q 653 849 655 835 q 584 995 639 958 q 442 1032 530 1032 l 379 1032 l 379 623 z "},"q":{"ha":1095,"x_min":58,"x_max":1040,"o":"m 1040 58 q 973 -34 1020 4 q 855 -71 927 -71 q 716 -8 770 -71 q 548 -32 637 -32 q 193 110 329 -32 q 58 577 58 252 q 192 1043 58 901 q 548 1185 327 1185 q 901 1043 766 1185 q 1036 577 1036 901 q 867 77 1036 230 q 921 56 895 56 q 980 95 950 56 l 1040 58 m 244 577 q 286 298 244 411 q 396 131 327 185 q 548 77 464 77 q 643 97 597 77 q 542 151 591 151 q 518 147 534 151 q 542 209 512 179 q 619 240 571 240 q 750 187 681 240 q 849 577 849 321 q 808 856 849 744 q 697 1022 766 968 q 548 1075 629 1075 q 396 1022 464 1075 q 286 856 327 968 q 244 577 244 744 z "},"r":{"ha":1028,"x_min":99,"x_max":978,"o":"m 978 60 q 937 -2 966 24 q 859 -28 907 -28 q 730 20 782 -28 q 639 147 679 67 q 510 427 599 222 q 486 480 494 456 q 379 494 429 480 l 379 125 q 392 96 379 109 q 423 83 405 83 l 458 83 l 458 0 l 99 0 l 99 83 l 135 83 q 166 96 153 83 q 179 125 179 109 l 179 1030 q 166 1061 179 1048 q 135 1073 153 1073 l 99 1073 l 99 1157 l 520 1157 q 674 1115 603 1157 q 787 997 744 1073 q 829 821 829 921 q 788 662 829 736 q 677 538 746 587 l 700 448 q 752 272 726 353 q 799 156 780 192 q 845 97 817 119 q 889 85 861 85 q 940 99 921 85 l 978 60 m 379 627 q 458 609 421 609 q 587 672 536 609 q 639 833 639 734 q 565 989 637 940 q 395 1038 494 1038 l 379 1038 l 379 627 z "},"ŕ":{"ha":1028,"x_min":99,"x_max":978,"o":"m 978 60 q 937 -2 966 24 q 859 -28 907 -28 q 730 20 782 -28 q 639 147 679 67 q 510 427 599 222 q 486 480 494 456 q 379 494 429 480 l 379 125 q 392 96 379 109 q 423 83 405 83 l 458 83 l 458 0 l 99 0 l 99 83 l 135 83 q 166 96 153 83 q 179 125 179 109 l 179 1030 q 166 1061 179 1048 q 135 1073 153 1073 l 99 1073 l 99 1157 l 520 1157 q 674 1115 603 1157 q 787 997 744 1073 q 829 821 829 921 q 788 662 829 736 q 677 538 746 587 l 700 448 q 752 272 726 353 q 799 156 780 192 q 845 97 817 119 q 889 85 861 85 q 940 99 921 85 l 978 60 m 379 627 q 458 609 421 609 q 587 672 536 609 q 639 833 639 734 q 565 989 637 940 q 395 1038 494 1038 l 379 1038 l 379 627 m 343 1290 l 599 1494 l 675 1391 l 389 1224 l 343 1290 z "},"ř":{"ha":1028,"x_min":99,"x_max":978,"o":"m 978 60 q 937 -2 966 24 q 859 -28 907 -28 q 730 20 782 -28 q 639 147 679 67 q 510 427 599 222 q 486 480 494 456 q 379 494 429 480 l 379 125 q 392 96 379 109 q 423 83 405 83 l 458 83 l 458 0 l 99 0 l 99 83 l 135 83 q 166 96 153 83 q 179 125 179 109 l 179 1030 q 166 1061 179 1048 q 135 1073 153 1073 l 99 1073 l 99 1157 l 520 1157 q 674 1115 603 1157 q 787 997 744 1073 q 829 821 829 921 q 788 662 829 736 q 677 538 746 587 l 700 448 q 752 272 726 353 q 799 156 780 192 q 845 97 817 119 q 889 85 861 85 q 940 99 921 85 l 978 60 m 379 627 q 458 609 421 609 q 587 672 536 609 q 639 833 639 734 q 565 989 637 940 q 395 1038 494 1038 l 379 1038 l 379 627 m 508 1361 l 730 1433 l 730 1355 l 508 1222 l 288 1355 l 288 1433 l 508 1361 z "},"ŗ":{"ha":1028,"x_min":99,"x_max":978,"o":"m 978 60 q 937 -2 966 24 q 859 -28 907 -28 q 730 20 782 -28 q 639 147 679 67 q 510 427 599 222 q 486 480 494 456 q 379 494 429 480 l 379 125 q 392 96 379 109 q 423 83 405 83 l 458 83 l 458 0 l 99 0 l 99 83 l 135 83 q 166 96 153 83 q 179 125 179 109 l 179 1030 q 166 1061 179 1048 q 135 1073 153 1073 l 99 1073 l 99 1157 l 520 1157 q 674 1115 603 1157 q 787 997 744 1073 q 829 821 829 921 q 788 662 829 736 q 677 538 746 587 l 700 448 q 752 272 726 353 q 799 156 780 192 q 845 97 817 119 q 889 85 861 85 q 940 99 921 85 l 978 60 m 379 627 q 458 609 421 609 q 587 672 536 609 q 639 833 639 734 q 565 989 637 940 q 395 1038 494 1038 l 379 1038 l 379 627 m 472 -325 q 502 -236 502 -276 q 461 -207 478 -228 q 444 -161 444 -187 q 467 -106 444 -129 q 520 -83 490 -83 q 576 -111 554 -83 q 599 -173 599 -139 q 578 -252 599 -216 q 528 -308 558 -288 q 472 -325 498 -327 z "},"s":{"ha":869,"x_min":91,"x_max":786,"o":"m 431 -24 q 354 -14 383 -22 q 302 3 325 -6 q 268 16 278 12 q 232 24 250 24 q 185 -16 194 24 l 91 -16 l 91 331 l 190 331 q 236 153 190 216 q 383 75 282 89 q 476 88 429 69 q 556 148 524 107 q 587 244 587 188 q 543 388 587 323 q 389 554 498 452 l 321 615 q 206 725 242 688 q 152 807 171 762 q 133 913 133 851 q 178 1069 133 1008 q 286 1159 222 1131 q 407 1187 349 1187 q 477 1180 448 1187 q 534 1162 506 1173 q 579 1145 562 1151 q 601 1141 595 1141 q 630 1149 617 1141 q 647 1171 643 1157 l 712 1171 l 712 891 l 635 891 q 592 1035 635 974 q 444 1095 550 1095 q 353 1057 389 1095 q 317 964 317 1018 q 321 933 317 952 q 364 855 329 895 q 526 696 399 815 l 595 635 q 699 535 663 575 q 761 438 736 494 q 786 308 786 383 q 782 244 786 266 q 727 112 774 175 q 609 12 681 50 q 458 -26 538 -26 l 431 -24 z "},"ś":{"ha":869,"x_min":91,"x_max":786,"o":"m 431 -24 q 354 -14 383 -22 q 302 3 325 -6 q 268 16 278 12 q 232 24 250 24 q 185 -16 194 24 l 91 -16 l 91 331 l 190 331 q 236 153 190 216 q 383 75 282 89 q 476 88 429 69 q 556 148 524 107 q 587 244 587 188 q 543 388 587 323 q 389 554 498 452 l 321 615 q 206 725 242 688 q 152 807 171 762 q 133 913 133 851 q 178 1069 133 1008 q 286 1159 222 1131 q 407 1187 349 1187 q 477 1180 448 1187 q 534 1162 506 1173 q 579 1145 562 1151 q 601 1141 595 1141 q 630 1149 617 1141 q 647 1171 643 1157 l 712 1171 l 712 891 l 635 891 q 592 1035 635 974 q 444 1095 550 1095 q 353 1057 389 1095 q 317 964 317 1018 q 321 933 317 952 q 364 855 329 895 q 526 696 399 815 l 595 635 q 699 535 663 575 q 761 438 736 494 q 786 308 786 383 q 782 244 786 266 q 727 112 774 175 q 609 12 681 50 q 458 -26 538 -26 l 431 -24 m 278 1310 l 534 1514 l 609 1411 l 323 1244 l 278 1310 z "},"š":{"ha":869,"x_min":91,"x_max":786,"o":"m 431 -24 q 354 -14 383 -22 q 302 3 325 -6 q 268 16 278 12 q 232 24 250 24 q 185 -16 194 24 l 91 -16 l 91 331 l 190 331 q 236 153 190 216 q 383 75 282 89 q 476 88 429 69 q 556 148 524 107 q 587 244 587 188 q 543 388 587 323 q 389 554 498 452 l 321 615 q 206 725 242 688 q 152 807 171 762 q 133 913 133 851 q 178 1069 133 1008 q 286 1159 222 1131 q 407 1187 349 1187 q 477 1180 448 1187 q 534 1162 506 1173 q 579 1145 562 1151 q 601 1141 595 1141 q 630 1149 617 1141 q 647 1171 643 1157 l 712 1171 l 712 891 l 635 891 q 592 1035 635 974 q 444 1095 550 1095 q 353 1057 389 1095 q 317 964 317 1018 q 321 933 317 952 q 364 855 329 895 q 526 696 399 815 l 595 635 q 699 535 663 575 q 761 438 736 494 q 786 308 786 383 q 782 244 786 266 q 727 112 774 175 q 609 12 681 50 q 458 -26 538 -26 l 431 -24 m 442 1381 l 665 1452 l 665 1375 l 442 1242 l 222 1375 l 222 1452 l 442 1381 z "},"ş":{"ha":869,"x_min":91,"x_max":786,"o":"m 595 635 q 699 535 663 575 q 761 438 736 494 q 786 308 786 383 q 782 244 786 266 q 684 64 768 143 q 486 -24 599 -14 l 472 -54 q 528 -99 502 -67 q 554 -179 554 -131 q 511 -278 554 -240 q 409 -315 468 -315 q 340 -299 373 -315 q 288 -248 308 -282 l 329 -198 q 395 -222 361 -222 q 432 -208 417 -222 q 446 -175 446 -194 q 419 -128 446 -145 q 337 -111 391 -111 l 381 -20 q 309 -1 339 -14 q 268 16 278 12 q 232 24 250 24 q 185 -16 194 24 l 91 -16 l 91 331 l 190 331 q 236 153 190 216 q 383 75 282 89 q 476 88 429 69 q 556 148 524 107 q 587 244 587 188 q 543 388 587 323 q 389 554 498 452 l 321 615 q 206 725 242 688 q 152 807 171 762 q 133 913 133 851 q 178 1069 133 1008 q 286 1159 222 1131 q 407 1187 349 1187 q 477 1180 448 1187 q 534 1162 506 1173 q 579 1145 562 1151 q 601 1141 595 1141 q 630 1149 617 1141 q 647 1171 643 1157 l 712 1171 l 712 891 l 635 891 q 592 1035 635 974 q 444 1095 550 1095 q 353 1057 389 1095 q 317 964 317 1018 q 321 933 317 952 q 364 855 329 895 q 526 696 399 815 l 595 635 z "},"ș":{"ha":869,"x_min":91,"x_max":786,"o":"m 431 -24 q 354 -14 383 -22 q 302 3 325 -6 q 268 16 278 12 q 232 24 250 24 q 185 -16 194 24 l 91 -16 l 91 331 l 190 331 q 236 153 190 216 q 383 75 282 89 q 476 88 429 69 q 556 148 524 107 q 587 244 587 188 q 543 388 587 323 q 389 554 498 452 l 321 615 q 206 725 242 688 q 152 807 171 762 q 133 913 133 851 q 178 1069 133 1008 q 286 1159 222 1131 q 407 1187 349 1187 q 477 1180 448 1187 q 534 1162 506 1173 q 579 1145 562 1151 q 601 1141 595 1141 q 630 1149 617 1141 q 647 1171 643 1157 l 712 1171 l 712 891 l 635 891 q 592 1035 635 974 q 444 1095 550 1095 q 353 1057 389 1095 q 317 964 317 1018 q 321 933 317 952 q 364 855 329 895 q 526 696 399 815 l 595 635 q 699 535 663 575 q 761 438 736 494 q 786 308 786 383 q 782 244 786 266 q 727 112 774 175 q 609 12 681 50 q 458 -26 538 -26 l 431 -24 m 387 -349 q 417 -260 417 -300 q 376 -231 393 -252 q 359 -185 359 -210 q 382 -130 359 -153 q 435 -107 405 -107 q 491 -135 468 -107 q 514 -196 514 -163 q 493 -276 514 -240 q 442 -331 472 -312 q 387 -349 413 -351 z "},"ß":{"ha":1746,"x_min":91,"x_max":1663,"o":"m 431 -24 q 354 -14 383 -22 q 302 3 325 -6 q 268 16 278 12 q 232 24 250 24 q 185 -16 194 24 l 91 -16 l 91 331 l 190 331 q 236 153 190 216 q 383 75 282 89 q 476 88 429 69 q 556 148 524 107 q 587 244 587 188 q 543 388 587 323 q 389 554 498 452 l 321 615 q 206 725 242 688 q 152 807 171 762 q 133 913 133 851 q 178 1069 133 1008 q 286 1159 222 1131 q 407 1187 349 1187 q 477 1180 448 1187 q 534 1162 506 1173 q 579 1145 562 1151 q 601 1141 595 1141 q 630 1149 617 1141 q 647 1171 643 1157 l 712 1171 l 712 891 l 635 891 q 592 1035 635 974 q 444 1095 550 1095 q 353 1057 389 1095 q 317 964 317 1018 q 321 933 317 952 q 364 855 329 895 q 526 696 399 815 l 595 635 q 699 535 663 575 q 761 438 736 494 q 786 308 786 383 q 782 244 786 266 q 727 112 774 175 q 609 12 681 50 q 458 -26 538 -26 l 431 -24 m 1308 -24 q 1231 -14 1260 -22 q 1179 3 1202 -6 q 1145 16 1155 12 q 1109 24 1127 24 q 1062 -16 1071 24 l 968 -16 l 968 331 l 1067 331 q 1113 153 1067 216 q 1260 75 1159 89 q 1353 88 1306 69 q 1433 148 1401 107 q 1464 244 1464 188 q 1420 388 1464 323 q 1266 554 1375 452 l 1198 615 q 1083 725 1119 688 q 1029 807 1048 762 q 1010 913 1010 851 q 1055 1069 1010 1008 q 1163 1159 1099 1131 q 1284 1187 1226 1187 q 1354 1180 1325 1187 q 1411 1162 1383 1173 q 1456 1145 1438 1151 q 1478 1141 1472 1141 q 1507 1149 1494 1141 q 1524 1171 1520 1157 l 1589 1171 l 1589 891 l 1512 891 q 1469 1035 1512 974 q 1321 1095 1427 1095 q 1230 1057 1266 1095 q 1194 964 1194 1018 q 1198 933 1194 952 q 1241 855 1206 895 q 1403 696 1276 815 l 1472 635 q 1576 535 1540 575 q 1638 438 1613 494 q 1663 308 1663 383 q 1659 244 1663 266 q 1604 112 1651 175 q 1486 12 1558 50 q 1335 -26 1415 -26 l 1308 -24 z "},"t":{"ha":1024,"x_min":73,"x_max":950,"o":"m 950 1157 l 950 891 l 859 891 l 859 978 q 846 1032 859 1010 q 790 1054 833 1054 l 613 1054 l 613 127 q 625 96 613 109 q 657 83 637 83 l 690 83 l 690 0 l 333 0 l 333 83 l 369 83 q 400 96 387 83 q 413 127 413 109 l 413 1054 l 232 1054 q 178 1032 190 1054 q 165 978 165 1010 l 165 891 l 73 891 l 73 1157 l 950 1157 z "},"ŧ":{"ha":1024,"x_min":73,"x_max":950,"o":"m 950 1157 l 950 891 l 859 891 l 859 978 q 846 1032 859 1010 q 790 1054 833 1054 l 613 1054 l 613 677 l 774 677 l 774 532 l 613 532 l 613 127 q 625 96 613 109 q 657 83 637 83 l 690 83 l 690 0 l 333 0 l 333 83 l 369 83 q 400 96 387 83 q 413 127 413 109 l 413 532 l 258 532 l 258 677 l 413 677 l 413 1054 l 232 1054 q 178 1032 190 1054 q 165 978 165 1010 l 165 891 l 73 891 l 73 1157 l 950 1157 z "},"ť":{"ha":1282,"x_min":73,"x_max":1230,"o":"m 950 1157 l 950 891 l 859 891 l 859 978 q 846 1032 859 1010 q 790 1054 833 1054 l 613 1054 l 613 127 q 625 96 613 109 q 657 83 637 83 l 690 83 l 690 0 l 333 0 l 333 83 l 369 83 q 400 96 387 83 q 413 127 413 109 l 413 1054 l 232 1054 q 178 1032 190 1054 q 165 978 165 1010 l 165 891 l 73 891 l 73 1157 l 950 1157 m 1103 929 q 1133 1018 1133 978 q 1092 1047 1109 1026 q 1075 1093 1075 1067 q 1098 1148 1075 1125 q 1151 1171 1121 1171 q 1207 1143 1185 1171 q 1230 1081 1230 1115 q 1209 1002 1230 1038 q 1159 946 1188 966 q 1103 929 1129 927 z "},"ţ":{"ha":1024,"x_min":73,"x_max":950,"o":"m 950 1157 l 950 891 l 859 891 l 859 978 q 846 1032 859 1010 q 790 1054 833 1054 l 613 1054 l 613 127 q 625 96 613 109 q 657 83 637 83 l 690 83 l 690 0 l 567 0 l 552 -30 q 607 -75 581 -44 q 633 -155 633 -107 q 590 -254 633 -216 q 488 -292 548 -292 q 420 -275 452 -292 q 367 -224 387 -258 l 409 -175 q 474 -198 442 -198 q 511 -185 496 -198 q 526 -151 526 -171 q 498 -104 526 -121 q 417 -87 470 -87 l 456 0 l 333 0 l 333 83 l 369 83 q 400 96 387 83 q 413 127 413 109 l 413 1054 l 232 1054 q 178 1032 190 1054 q 165 978 165 1010 l 165 891 l 73 891 l 73 1157 l 950 1157 z "},"ț":{"ha":1024,"x_min":73,"x_max":950,"o":"m 950 1157 l 950 891 l 859 891 l 859 978 q 846 1032 859 1010 q 790 1054 833 1054 l 613 1054 l 613 127 q 625 96 613 109 q 657 83 637 83 l 690 83 l 690 0 l 333 0 l 333 83 l 369 83 q 400 96 387 83 q 413 127 413 109 l 413 1054 l 232 1054 q 178 1032 190 1054 q 165 978 165 1010 l 165 891 l 73 891 l 73 1157 l 950 1157 m 466 -325 q 496 -236 496 -276 q 455 -207 472 -228 q 438 -161 438 -187 q 461 -106 438 -129 q 514 -83 484 -83 q 570 -111 548 -83 q 593 -173 593 -139 q 572 -252 593 -216 q 522 -308 552 -288 q 466 -325 492 -327 z "},"u":{"ha":1153,"x_min":83,"x_max":1071,"o":"m 589 -30 q 388 15 480 -30 q 239 148 296 60 q 183 359 183 236 l 183 1032 q 170 1061 183 1048 q 141 1073 157 1073 l 83 1073 l 83 1157 l 464 1157 l 464 1073 l 417 1073 q 386 1061 399 1073 q 373 1032 373 1048 l 373 379 q 441 160 373 236 q 629 83 510 83 q 802 151 726 83 q 877 357 877 218 l 877 1032 q 865 1061 877 1048 q 835 1073 853 1073 l 808 1073 l 808 1157 l 1071 1157 l 1071 1073 l 1036 1073 q 1006 1061 1018 1073 q 994 1032 994 1048 l 994 331 q 942 146 994 228 q 805 17 891 63 q 617 -30 718 -30 l 589 -30 z "},"ú":{"ha":1153,"x_min":83,"x_max":1071,"o":"m 589 -30 q 388 15 480 -30 q 239 148 296 60 q 183 359 183 236 l 183 1032 q 170 1061 183 1048 q 141 1073 157 1073 l 83 1073 l 83 1157 l 464 1157 l 464 1073 l 417 1073 q 386 1061 399 1073 q 373 1032 373 1048 l 373 379 q 441 160 373 236 q 629 83 510 83 q 802 151 726 83 q 877 357 877 218 l 877 1032 q 865 1061 877 1048 q 835 1073 853 1073 l 808 1073 l 808 1157 l 1071 1157 l 1071 1073 l 1036 1073 q 1006 1061 1018 1073 q 994 1032 994 1048 l 994 331 q 942 146 994 228 q 805 17 891 63 q 617 -30 718 -30 l 589 -30 m 468 1290 l 724 1494 l 800 1391 l 514 1224 l 468 1290 z "},"ǔ":{"ha":1153,"x_min":83,"x_max":1071,"o":"m 589 -30 q 388 15 480 -30 q 239 148 296 60 q 183 359 183 236 l 183 1032 q 170 1061 183 1048 q 141 1073 157 1073 l 83 1073 l 83 1157 l 464 1157 l 464 1073 l 417 1073 q 386 1061 399 1073 q 373 1032 373 1048 l 373 379 q 441 160 373 236 q 629 83 510 83 q 802 151 726 83 q 877 357 877 218 l 877 1032 q 865 1061 877 1048 q 835 1073 853 1073 l 808 1073 l 808 1157 l 1071 1157 l 1071 1073 l 1036 1073 q 1006 1061 1018 1073 q 994 1032 994 1048 l 994 331 q 942 146 994 228 q 805 17 891 63 q 617 -30 718 -30 l 589 -30 m 633 1361 l 855 1433 l 855 1355 l 633 1222 l 413 1355 l 413 1433 l 633 1361 z "},"û":{"ha":1153,"x_min":83,"x_max":1071,"o":"m 589 -30 q 388 15 480 -30 q 239 148 296 60 q 183 359 183 236 l 183 1032 q 170 1061 183 1048 q 141 1073 157 1073 l 83 1073 l 83 1157 l 464 1157 l 464 1073 l 417 1073 q 386 1061 399 1073 q 373 1032 373 1048 l 373 379 q 441 160 373 236 q 629 83 510 83 q 802 151 726 83 q 877 357 877 218 l 877 1032 q 865 1061 877 1048 q 835 1073 853 1073 l 808 1073 l 808 1157 l 1071 1157 l 1071 1073 l 1036 1073 q 1006 1061 1018 1073 q 994 1032 994 1048 l 994 331 q 942 146 994 228 q 805 17 891 63 q 617 -30 718 -30 l 589 -30 m 413 1312 l 633 1444 l 855 1312 l 855 1234 l 633 1306 l 413 1234 l 413 1312 z "},"ü":{"ha":1153,"x_min":83,"x_max":1071,"o":"m 589 -30 q 388 15 480 -30 q 239 148 296 60 q 183 359 183 236 l 183 1032 q 170 1061 183 1048 q 141 1073 157 1073 l 83 1073 l 83 1157 l 464 1157 l 464 1073 l 417 1073 q 386 1061 399 1073 q 373 1032 373 1048 l 373 379 q 441 160 373 236 q 629 83 510 83 q 802 151 726 83 q 877 357 877 218 l 877 1032 q 865 1061 877 1048 q 835 1073 853 1073 l 808 1073 l 808 1157 l 1071 1157 l 1071 1073 l 1036 1073 q 1006 1061 1018 1073 q 994 1032 994 1048 l 994 331 q 942 146 994 228 q 805 17 891 63 q 617 -30 718 -30 l 589 -30 m 476 1238 q 419 1263 442 1238 q 395 1321 395 1288 q 419 1379 395 1355 q 476 1403 442 1403 q 533 1379 508 1403 q 558 1321 558 1355 q 534 1263 558 1288 q 476 1238 510 1238 m 794 1238 q 736 1263 760 1238 q 712 1321 712 1288 q 736 1379 712 1355 q 794 1403 760 1403 q 850 1379 825 1403 q 875 1321 875 1355 q 851 1263 875 1288 q 794 1238 827 1238 z "},"ǘ":{"ha":1153,"x_min":83,"x_max":1071,"o":"m 589 -30 q 388 15 480 -30 q 239 148 296 60 q 183 359 183 236 l 183 1032 q 170 1061 183 1048 q 141 1073 157 1073 l 83 1073 l 83 1157 l 464 1157 l 464 1073 l 417 1073 q 386 1061 399 1073 q 373 1032 373 1048 l 373 379 q 441 160 373 236 q 629 83 510 83 q 802 151 726 83 q 877 357 877 218 l 877 1032 q 865 1061 877 1048 q 835 1073 853 1073 l 808 1073 l 808 1157 l 1071 1157 l 1071 1073 l 1036 1073 q 1006 1061 1018 1073 q 994 1032 994 1048 l 994 331 q 942 146 994 228 q 805 17 891 63 q 617 -30 718 -30 l 589 -30 z "},"ǚ":{"ha":1153,"x_min":83,"x_max":1071,"o":"m 589 -30 q 388 15 480 -30 q 239 148 296 60 q 183 359 183 236 l 183 1032 q 170 1061 183 1048 q 141 1073 157 1073 l 83 1073 l 83 1157 l 464 1157 l 464 1073 l 417 1073 q 386 1061 399 1073 q 373 1032 373 1048 l 373 379 q 441 160 373 236 q 629 83 510 83 q 802 151 726 83 q 877 357 877 218 l 877 1032 q 865 1061 877 1048 q 835 1073 853 1073 l 808 1073 l 808 1157 l 1071 1157 l 1071 1073 l 1036 1073 q 1006 1061 1018 1073 q 994 1032 994 1048 l 994 331 q 942 146 994 228 q 805 17 891 63 q 617 -30 718 -30 l 589 -30 z "},"ǜ":{"ha":1153,"x_min":83,"x_max":1071,"o":"m 589 -30 q 388 15 480 -30 q 239 148 296 60 q 183 359 183 236 l 183 1032 q 170 1061 183 1048 q 141 1073 157 1073 l 83 1073 l 83 1157 l 464 1157 l 464 1073 l 417 1073 q 386 1061 399 1073 q 373 1032 373 1048 l 373 379 q 441 160 373 236 q 629 83 510 83 q 802 151 726 83 q 877 357 877 218 l 877 1032 q 865 1061 877 1048 q 835 1073 853 1073 l 808 1073 l 808 1157 l 1071 1157 l 1071 1073 l 1036 1073 q 1006 1061 1018 1073 q 994 1032 994 1048 l 994 331 q 942 146 994 228 q 805 17 891 63 q 617 -30 718 -30 l 589 -30 z "},"ǖ":{"ha":1153,"x_min":83,"x_max":1071,"o":"m 589 -30 q 388 15 480 -30 q 239 148 296 60 q 183 359 183 236 l 183 1032 q 170 1061 183 1048 q 141 1073 157 1073 l 83 1073 l 83 1157 l 464 1157 l 464 1073 l 417 1073 q 386 1061 399 1073 q 373 1032 373 1048 l 373 379 q 441 160 373 236 q 629 83 510 83 q 802 151 726 83 q 877 357 877 218 l 877 1032 q 865 1061 877 1048 q 835 1073 853 1073 l 808 1073 l 808 1157 l 1071 1157 l 1071 1073 l 1036 1073 q 1006 1061 1018 1073 q 994 1032 994 1048 l 994 331 q 942 146 994 228 q 805 17 891 63 q 617 -30 718 -30 l 589 -30 z "},"ụ":{"ha":1153,"x_min":83,"x_max":1071,"o":"m 589 -30 q 388 15 480 -30 q 239 148 296 60 q 183 359 183 236 l 183 1032 q 170 1061 183 1048 q 141 1073 157 1073 l 83 1073 l 83 1157 l 464 1157 l 464 1073 l 417 1073 q 386 1061 399 1073 q 373 1032 373 1048 l 373 379 q 441 160 373 236 q 629 83 510 83 q 802 151 726 83 q 877 357 877 218 l 877 1032 q 865 1061 877 1048 q 835 1073 853 1073 l 808 1073 l 808 1157 l 1071 1157 l 1071 1073 l 1036 1073 q 1006 1061 1018 1073 q 994 1032 994 1048 l 994 331 q 942 146 994 228 q 805 17 891 63 q 617 -30 718 -30 l 589 -30 m 631 -266 q 573 -241 597 -266 q 550 -183 550 -216 q 573 -126 550 -151 q 631 -101 597 -101 q 688 -126 663 -101 q 712 -183 712 -151 q 688 -241 712 -216 q 631 -266 665 -266 z "},"ù":{"ha":1153,"x_min":83,"x_max":1071,"o":"m 589 -30 q 388 15 480 -30 q 239 148 296 60 q 183 359 183 236 l 183 1032 q 170 1061 183 1048 q 141 1073 157 1073 l 83 1073 l 83 1157 l 464 1157 l 464 1073 l 417 1073 q 386 1061 399 1073 q 373 1032 373 1048 l 373 379 q 441 160 373 236 q 629 83 510 83 q 802 151 726 83 q 877 357 877 218 l 877 1032 q 865 1061 877 1048 q 835 1073 853 1073 l 808 1073 l 808 1157 l 1071 1157 l 1071 1073 l 1036 1073 q 1006 1061 1018 1073 q 994 1032 994 1048 l 994 331 q 942 146 994 228 q 805 17 891 63 q 617 -30 718 -30 l 589 -30 m 468 1391 l 544 1494 l 800 1290 l 754 1224 l 468 1391 z "},"ủ":{"ha":1153,"x_min":83,"x_max":1071,"o":"m 589 -30 q 388 15 480 -30 q 239 148 296 60 q 183 359 183 236 l 183 1032 q 170 1061 183 1048 q 141 1073 157 1073 l 83 1073 l 83 1157 l 464 1157 l 464 1073 l 417 1073 q 386 1061 399 1073 q 373 1032 373 1048 l 373 379 q 441 160 373 236 q 629 83 510 83 q 802 151 726 83 q 877 357 877 218 l 877 1032 q 865 1061 877 1048 q 835 1073 853 1073 l 808 1073 l 808 1157 l 1071 1157 l 1071 1073 l 1036 1073 q 1006 1061 1018 1073 q 994 1032 994 1048 l 994 331 q 942 146 994 228 q 805 17 891 63 q 617 -30 718 -30 l 589 -30 m 587 1236 q 647 1345 587 1296 q 677 1397 677 1371 q 662 1434 677 1421 q 625 1446 647 1446 q 563 1413 585 1446 l 520 1476 q 573 1529 540 1510 q 645 1548 607 1548 q 744 1508 704 1548 q 784 1411 784 1468 q 764 1340 784 1373 q 704 1288 744 1308 q 679 1266 690 1280 q 667 1236 667 1252 l 587 1236 z "},"ư":{"ha":1153,"x_min":83,"x_max":1163,"o":"m 1147 1216 q 1163 1173 1163 1200 q 1153 1134 1163 1153 q 1127 1101 1143 1115 q 1071 1073 1103 1083 q 1016 1069 1040 1067 q 994 1032 994 1056 l 994 331 q 942 146 994 228 q 805 17 891 63 q 617 -30 718 -30 l 589 -30 q 388 15 480 -30 q 239 148 296 60 q 183 359 183 236 l 183 1032 q 170 1061 183 1048 q 141 1073 157 1073 l 83 1073 l 83 1157 l 464 1157 l 464 1073 l 417 1073 q 386 1061 399 1073 q 373 1032 373 1048 l 373 379 q 441 160 373 236 q 629 83 510 83 q 802 151 726 83 q 877 357 877 218 l 877 1032 q 865 1061 877 1048 q 835 1073 853 1073 l 808 1073 l 808 1157 l 1018 1157 q 1042 1226 1012 1198 q 1089 1244 1063 1244 q 1147 1216 1125 1244 z "},"ứ":{"ha":1153,"x_min":83,"x_max":1163,"o":"m 1147 1216 q 1163 1173 1163 1200 q 1153 1134 1163 1153 q 1127 1101 1143 1115 q 1071 1073 1103 1083 q 1016 1069 1040 1067 q 994 1032 994 1056 l 994 331 q 942 146 994 228 q 805 17 891 63 q 617 -30 718 -30 l 589 -30 q 388 15 480 -30 q 239 148 296 60 q 183 359 183 236 l 183 1032 q 170 1061 183 1048 q 141 1073 157 1073 l 83 1073 l 83 1157 l 464 1157 l 464 1073 l 417 1073 q 386 1061 399 1073 q 373 1032 373 1048 l 373 379 q 441 160 373 236 q 629 83 510 83 q 802 151 726 83 q 877 357 877 218 l 877 1032 q 865 1061 877 1048 q 835 1073 853 1073 l 808 1073 l 808 1157 l 1018 1157 q 1042 1226 1012 1198 q 1089 1244 1063 1244 q 1147 1216 1125 1244 m 468 1290 l 724 1494 l 800 1391 l 514 1224 l 468 1290 z "},"ự":{"ha":1153,"x_min":83,"x_max":1163,"o":"m 1147 1216 q 1163 1173 1163 1200 q 1153 1134 1163 1153 q 1127 1101 1143 1115 q 1071 1073 1103 1083 q 1016 1069 1040 1067 q 994 1032 994 1056 l 994 331 q 942 146 994 228 q 805 17 891 63 q 617 -30 718 -30 l 589 -30 q 388 15 480 -30 q 239 148 296 60 q 183 359 183 236 l 183 1032 q 170 1061 183 1048 q 141 1073 157 1073 l 83 1073 l 83 1157 l 464 1157 l 464 1073 l 417 1073 q 386 1061 399 1073 q 373 1032 373 1048 l 373 379 q 441 160 373 236 q 629 83 510 83 q 802 151 726 83 q 877 357 877 218 l 877 1032 q 865 1061 877 1048 q 835 1073 853 1073 l 808 1073 l 808 1157 l 1018 1157 q 1042 1226 1012 1198 q 1089 1244 1063 1244 q 1147 1216 1125 1244 m 631 -266 q 573 -241 597 -266 q 550 -183 550 -216 q 573 -126 550 -151 q 631 -101 597 -101 q 688 -126 663 -101 q 712 -183 712 -151 q 688 -241 712 -216 q 631 -266 665 -266 z "},"ừ":{"ha":1153,"x_min":83,"x_max":1163,"o":"m 1147 1216 q 1163 1173 1163 1200 q 1153 1134 1163 1153 q 1127 1101 1143 1115 q 1071 1073 1103 1083 q 1016 1069 1040 1067 q 994 1032 994 1056 l 994 331 q 942 146 994 228 q 805 17 891 63 q 617 -30 718 -30 l 589 -30 q 388 15 480 -30 q 239 148 296 60 q 183 359 183 236 l 183 1032 q 170 1061 183 1048 q 141 1073 157 1073 l 83 1073 l 83 1157 l 464 1157 l 464 1073 l 417 1073 q 386 1061 399 1073 q 373 1032 373 1048 l 373 379 q 441 160 373 236 q 629 83 510 83 q 802 151 726 83 q 877 357 877 218 l 877 1032 q 865 1061 877 1048 q 835 1073 853 1073 l 808 1073 l 808 1157 l 1018 1157 q 1042 1226 1012 1198 q 1089 1244 1063 1244 q 1147 1216 1125 1244 m 468 1391 l 544 1494 l 800 1290 l 754 1224 l 468 1391 z "},"ử":{"ha":1153,"x_min":83,"x_max":1163,"o":"m 1147 1216 q 1163 1173 1163 1200 q 1153 1134 1163 1153 q 1127 1101 1143 1115 q 1071 1073 1103 1083 q 1016 1069 1040 1067 q 994 1032 994 1056 l 994 331 q 942 146 994 228 q 805 17 891 63 q 617 -30 718 -30 l 589 -30 q 388 15 480 -30 q 239 148 296 60 q 183 359 183 236 l 183 1032 q 170 1061 183 1048 q 141 1073 157 1073 l 83 1073 l 83 1157 l 464 1157 l 464 1073 l 417 1073 q 386 1061 399 1073 q 373 1032 373 1048 l 373 379 q 441 160 373 236 q 629 83 510 83 q 802 151 726 83 q 877 357 877 218 l 877 1032 q 865 1061 877 1048 q 835 1073 853 1073 l 808 1073 l 808 1157 l 1018 1157 q 1042 1226 1012 1198 q 1089 1244 1063 1244 q 1147 1216 1125 1244 m 587 1236 q 647 1345 587 1296 q 677 1397 677 1371 q 662 1434 677 1421 q 625 1446 647 1446 q 563 1413 585 1446 l 520 1476 q 573 1529 540 1510 q 645 1548 607 1548 q 744 1508 704 1548 q 784 1411 784 1468 q 764 1340 784 1373 q 704 1288 744 1308 q 679 1266 690 1280 q 667 1236 667 1252 l 587 1236 z "},"ữ":{"ha":1153,"x_min":83,"x_max":1163,"o":"m 1147 1216 q 1163 1173 1163 1200 q 1153 1134 1163 1153 q 1127 1101 1143 1115 q 1071 1073 1103 1083 q 1016 1069 1040 1067 q 994 1032 994 1056 l 994 331 q 942 146 994 228 q 805 17 891 63 q 617 -30 718 -30 l 589 -30 q 388 15 480 -30 q 239 148 296 60 q 183 359 183 236 l 183 1032 q 170 1061 183 1048 q 141 1073 157 1073 l 83 1073 l 83 1157 l 464 1157 l 464 1073 l 417 1073 q 386 1061 399 1073 q 373 1032 373 1048 l 373 379 q 441 160 373 236 q 629 83 510 83 q 802 151 726 83 q 877 357 877 218 l 877 1032 q 865 1061 877 1048 q 835 1073 853 1073 l 808 1073 l 808 1157 l 1018 1157 q 1042 1226 1012 1198 q 1089 1244 1063 1244 q 1147 1216 1125 1244 m 409 1319 q 458 1373 423 1355 q 542 1391 494 1391 q 651 1371 591 1391 q 762 1347 718 1347 q 849 1385 819 1347 l 861 1308 q 804 1254 843 1272 q 714 1236 764 1236 q 615 1256 661 1236 q 508 1282 562 1282 q 419 1246 448 1282 l 409 1319 z "},"ű":{"ha":1153,"x_min":83,"x_max":1071,"o":"m 589 -30 q 388 15 480 -30 q 239 148 296 60 q 183 359 183 236 l 183 1032 q 170 1061 183 1048 q 141 1073 157 1073 l 83 1073 l 83 1157 l 464 1157 l 464 1073 l 417 1073 q 386 1061 399 1073 q 373 1032 373 1048 l 373 379 q 441 160 373 236 q 629 83 510 83 q 802 151 726 83 q 877 357 877 218 l 877 1032 q 865 1061 877 1048 q 835 1073 853 1073 l 808 1073 l 808 1157 l 1071 1157 l 1071 1073 l 1036 1073 q 1006 1061 1018 1073 q 994 1032 994 1048 l 994 331 q 942 146 994 228 q 805 17 891 63 q 617 -30 718 -30 l 589 -30 z "},"ū":{"ha":1153,"x_min":83,"x_max":1071,"o":"m 589 -30 q 388 15 480 -30 q 239 148 296 60 q 183 359 183 236 l 183 1032 q 170 1061 183 1048 q 141 1073 157 1073 l 83 1073 l 83 1157 l 464 1157 l 464 1073 l 417 1073 q 386 1061 399 1073 q 373 1032 373 1048 l 373 379 q 441 160 373 236 q 629 83 510 83 q 802 151 726 83 q 877 357 877 218 l 877 1032 q 865 1061 877 1048 q 835 1073 853 1073 l 808 1073 l 808 1157 l 1071 1157 l 1071 1073 l 1036 1073 q 1006 1061 1018 1073 q 994 1032 994 1048 l 994 331 q 942 146 994 228 q 805 17 891 63 q 617 -30 718 -30 l 589 -30 m 411 1373 l 861 1373 l 861 1254 l 411 1254 l 411 1373 z "},"ų":{"ha":1153,"x_min":83,"x_max":1071,"o":"m 1071 1157 l 1071 1073 l 1036 1073 q 1006 1061 1018 1073 q 994 1032 994 1048 l 994 331 q 909 99 994 196 q 694 -22 823 2 q 624 -69 651 -36 q 597 -135 597 -103 q 603 -159 597 -147 q 655 -194 621 -194 q 716 -171 685 -194 l 756 -224 q 698 -278 732 -260 q 627 -296 665 -296 q 528 -259 569 -296 q 486 -161 486 -222 q 550 -28 486 -79 q 365 28 448 -20 q 232 160 282 75 q 183 359 183 244 l 183 1032 q 170 1061 183 1048 q 141 1073 157 1073 l 83 1073 l 83 1157 l 464 1157 l 464 1073 l 417 1073 q 386 1061 399 1073 q 373 1032 373 1048 l 373 379 q 441 160 373 236 q 629 83 510 83 q 802 151 726 83 q 877 357 877 218 l 877 1032 q 865 1061 877 1048 q 835 1073 853 1073 l 808 1073 l 808 1157 l 1071 1157 z "},"ů":{"ha":1153,"x_min":83,"x_max":1071,"o":"m 635 1153 q 518 1202 567 1153 q 468 1319 468 1252 q 518 1436 468 1387 q 635 1484 567 1484 q 750 1435 700 1484 q 800 1319 800 1385 q 750 1201 800 1250 q 635 1153 700 1153 m 635 1236 q 692 1260 669 1236 q 716 1319 716 1284 q 692 1376 716 1353 q 635 1399 669 1399 q 576 1376 599 1399 q 554 1319 554 1353 q 576 1260 554 1284 q 635 1236 599 1236 m 589 -30 q 388 15 480 -30 q 239 148 296 60 q 183 359 183 236 l 183 1032 q 170 1061 183 1048 q 141 1073 157 1073 l 83 1073 l 83 1157 l 464 1157 l 464 1073 l 417 1073 q 386 1061 399 1073 q 373 1032 373 1048 l 373 379 q 441 160 373 236 q 629 83 510 83 q 802 151 726 83 q 877 357 877 218 l 877 1032 q 865 1061 877 1048 q 835 1073 853 1073 l 808 1073 l 808 1157 l 1071 1157 l 1071 1073 l 1036 1073 q 1006 1061 1018 1073 q 994 1032 994 1048 l 994 331 q 942 146 994 228 q 805 17 891 63 q 617 -30 718 -30 l 589 -30 z "},"ũ":{"ha":1153,"x_min":83,"x_max":1071,"o":"m 589 -30 q 388 15 480 -30 q 239 148 296 60 q 183 359 183 236 l 183 1032 q 170 1061 183 1048 q 141 1073 157 1073 l 83 1073 l 83 1157 l 464 1157 l 464 1073 l 417 1073 q 386 1061 399 1073 q 373 1032 373 1048 l 373 379 q 441 160 373 236 q 629 83 510 83 q 802 151 726 83 q 877 357 877 218 l 877 1032 q 865 1061 877 1048 q 835 1073 853 1073 l 808 1073 l 808 1157 l 1071 1157 l 1071 1073 l 1036 1073 q 1006 1061 1018 1073 q 994 1032 994 1048 l 994 331 q 942 146 994 228 q 805 17 891 63 q 617 -30 718 -30 l 589 -30 m 409 1319 q 458 1373 423 1355 q 542 1391 494 1391 q 651 1371 591 1391 q 762 1347 718 1347 q 849 1385 819 1347 l 861 1308 q 804 1254 843 1272 q 714 1236 764 1236 q 615 1256 661 1236 q 508 1282 562 1282 q 419 1246 448 1282 l 409 1319 z "},"v":{"ha":1151,"x_min":58,"x_max":1093,"o":"m 153 1004 q 123 1058 137 1044 q 83 1071 109 1071 l 58 1071 l 58 1157 l 419 1157 l 419 1071 l 389 1071 q 355 1048 355 1071 q 361 1020 355 1036 l 639 351 l 889 1018 q 895 1046 895 1034 q 867 1071 895 1071 l 810 1071 l 810 1157 l 1093 1157 l 1093 1071 l 1071 1071 q 1002 1024 1018 1071 l 595 -69 l 589 -69 l 153 1004 z "}}}
